<svg width="109" height="82" viewBox="0 0 109 82" fill="none" xmlns="http://www.w3.org/2000/svg">
<path d="M7.22932 1.33754H10.9245C11.7576 1.8319 12.0801 2.37969 11.892 3.04773C11.7039 3.71578 11.153 4.07652 10.1318 4.08988H7.56525C6.35255 4.01641 5.13647 4.01641 3.92377 4.08988H1.55883C1.3608 4.10854 1.16104 4.08575 0.972407 4.02299C0.783776 3.96022 0.61046 3.85886 0.46362 3.72544C0.31678 3.59202 0.199673 3.4295 0.119841 3.24834C0.0400099 3.06719 -0.000775567 2.87141 0.000111761 2.67363C-0.00241746 2.47864 0.0380097 2.28547 0.118555 2.10767C0.1991 1.92987 0.31781 1.77176 0.466352 1.64443C0.614893 1.51711 0.789663 1.42366 0.978393 1.37064C1.16712 1.31762 1.36524 1.30633 1.55883 1.33754H7.22932Z" fill="#A682FF"/>
<path d="M5.2939 6.92139L8.57258 6.97483C9.58037 6.97483 10.1716 7.48254 10.185 8.31092C10.1997 8.51679 10.1662 8.72325 10.0872 8.9141C10.0082 9.10495 9.88575 9.275 9.72953 9.41091C9.57332 9.54682 9.38756 9.6449 9.18683 9.69745C8.9861 9.75 8.77585 9.7556 8.57258 9.71381C7.22886 9.71381 5.77764 9.71381 4.38017 9.71381C3.8796 9.71519 3.39798 9.52363 3.03645 9.17937C2.47209 7.84329 3.03645 6.96147 4.55486 6.96147C4.85048 6.97483 5.07891 6.93475 5.2939 6.92139Z" fill="#A682FF"/>
<path d="M6.8665 15.2845H6.3156C5.95923 15.2845 5.61746 15.1438 5.36547 14.8932C5.11348 14.6426 4.97191 14.3028 4.97191 13.9484C4.95704 13.7642 4.98077 13.5789 5.04161 13.4043C5.10245 13.2296 5.19906 13.0694 5.32535 12.9338C5.45163 12.7982 5.60484 12.6901 5.77529 12.6164C5.94574 12.5426 6.12972 12.5049 6.3156 12.5055C6.7625 12.4637 7.21237 12.4637 7.65928 12.5055C7.84393 12.505 8.0267 12.5424 8.19617 12.6153C8.36565 12.6882 8.51818 12.7951 8.64427 12.9293C8.77035 13.0634 8.86728 13.222 8.92899 13.395C8.99071 13.5681 9.01589 13.7519 9.00296 13.9351C9.00341 14.1187 8.9658 14.3004 8.89247 14.4689C8.81914 14.6375 8.71166 14.7891 8.57675 14.9145C8.44184 15.0399 8.28239 15.1362 8.10835 15.1976C7.93431 15.259 7.74942 15.284 7.56522 15.2712L6.8665 15.2845Z" fill="#A682FF"/>
<path d="M93.6976 40.3097C93.5371 40.1143 93.4225 39.8858 93.3621 39.6408C93.3016 39.3958 93.2969 39.1405 93.3482 38.8935C93.4423 38.0384 93.5095 37.1833 93.617 36.3415C94.0469 32.8009 94.0335 32.8009 91.7492 30.0352C90.1636 28.138 88.6049 26.2007 87.0462 24.2767C86.3609 23.5787 85.7319 22.8281 85.1649 22.0321C84.8559 21.658 84.52 21.3106 84.2109 20.9365L79.3198 14.9374C78.6872 14.3869 77.9243 14.0053 77.1026 13.8285H75.3558H68.1535L67.9385 13.6949C67.9113 13.1752 67.952 12.6543 68.0594 12.145C68.3013 12.0782 68.3281 11.9847 68.0594 11.8511L68.1535 10.6219C68.4625 10.515 68.4625 10.368 68.1535 10.181C68.1132 9.95088 68.1412 9.7141 68.2341 9.49957C68.3595 8.19837 68.3098 6.88634 68.0863 5.5982C67.7563 4.39187 67.1306 3.2857 66.2653 2.37869C65.4 1.47168 64.3221 0.792122 63.1279 0.400826C63.1279 0.200413 63.0339 0.093526 62.8458 0.293939H62.577C62.4426 -0.0400826 62.2411 0 62.0127 0.173691H61.7305L58.089 0C56.2212 0 54.3669 0 52.5126 0H45.2027C43.99 0.0734698 42.774 0.0734698 41.5613 0C39.7607 0 37.9466 0 36.1864 0L28.7287 0.0668043C27.516 0.140274 26.3 0.140274 25.0873 0.0668043L19.8736 0.146969C19.6855 0 19.5377 0 19.4571 0.240496H19.0405C18.8658 0.0400826 18.7986 0.146969 18.7583 0.347382L18.1134 0.654682C16.5462 1.21483 15.1694 2.20241 14.1404 3.50436C13.1114 4.80631 12.4719 6.37002 12.295 8.01652C12.1204 9.2858 11.9994 10.5818 11.8651 11.8644C11.895 11.9602 11.9032 12.0614 11.8893 12.1607C11.8754 12.26 11.8396 12.355 11.7844 12.439V13.254C11.7844 14.5901 11.5829 15.9261 11.3948 17.3558C11.4329 17.5628 11.4096 17.7763 11.3276 17.9704C11.3663 18.0123 11.3878 18.0671 11.3878 18.124C11.3878 18.1809 11.3663 18.2358 11.3276 18.2777V19.2396C11.3777 19.4795 11.3446 19.7291 11.2335 19.9478L11.1394 21.1903C11.1649 21.2615 11.1721 21.3379 11.1603 21.4126C11.1486 21.4872 11.1183 21.5578 11.0723 21.6179C10.8573 24.771 10.5213 27.9242 10.1988 31.0774C9.91666 32.5337 9.91666 34.0168 9.59417 35.4865L9.3523 38.8667C9.3523 39.1874 9.12387 39.2809 8.882 39.3878C8.44529 39.5872 8.07033 39.8994 7.79619 40.2918C7.52204 40.6842 7.35874 41.1426 7.32329 41.6191C7.20235 42.9552 7.06798 44.3848 6.94704 45.761C6.86776 46.0779 6.8535 46.4075 6.90512 46.7301C6.95675 47.0526 7.07319 47.3615 7.24751 47.6384C7.42183 47.9152 7.65045 48.1543 7.91973 48.3413C8.18901 48.5284 8.49343 48.6596 8.81481 48.7271C9.74198 48.7271 10.6691 48.7271 11.5963 48.7271C12.1204 48.7271 12.3354 48.874 12.1607 49.4085C12.2144 49.6325 12.2144 49.8659 12.1607 50.0899C11.9322 50.2769 11.9322 50.4239 12.2279 50.5174L12.3219 51.1988C12.0801 51.3725 12.1876 51.4527 12.4025 51.4928C12.7261 52.6564 13.2803 53.7439 14.0325 54.6915C14.7848 55.6391 15.72 56.4277 16.7831 57.0108C17.6808 57.3997 18.6117 57.7082 19.5646 57.9327H19.6318C22.3189 58.2366 25.021 57.5039 27.1809 55.8856C29.3409 54.2674 30.7943 51.8869 31.2415 49.2348C31.2415 48.8206 31.5102 48.7271 31.9133 48.7404C33.0331 48.7404 34.1484 48.7404 35.2592 48.7404C35.4595 48.7747 35.6649 48.7663 35.8617 48.7159C36.0586 48.6655 36.2424 48.5741 36.4011 48.4478C36.5598 48.3216 36.6898 48.1633 36.7825 47.9834C36.8752 47.8036 36.9285 47.6062 36.9389 47.4043C36.697 46.3622 36.267 46.0683 35.098 46.0683H10.5885C9.70167 46.0683 9.70167 46.0683 9.76885 45.2265C9.83604 44.3848 9.91666 43.5297 9.91666 42.7548C9.91666 42.1402 10.1585 41.9264 10.8438 41.9264C17.7237 41.9264 24.6035 41.9264 31.4699 41.9264H90.298C91.2654 41.9264 91.252 41.9264 91.1579 42.8884C91.1579 43.6099 91.0236 44.318 90.9698 45.0395C90.8892 46.0816 91.0639 46.0148 89.8814 46.0148H42.4481C41.2522 46.0148 40.8894 46.282 40.5803 47.3509C40.6153 47.6594 40.7411 47.9507 40.9419 48.1884C41.1426 48.426 41.4095 48.5995 41.7091 48.687H58.1293C61.5424 48.687 64.9688 48.687 68.3953 48.687C68.5969 48.687 68.9866 48.4331 69.0269 48.9275L69.1613 50.7446C68.9463 50.8915 69.0269 50.9717 69.1613 51.0251V51.4393C68.9463 51.6264 69.0806 51.6798 69.2687 51.7199L69.6584 52.8556C69.5509 53.0693 69.6584 53.203 69.86 53.2564C69.922 53.2996 69.9719 53.3579 70.0048 53.4258C70.0377 53.4936 70.0526 53.5687 70.0481 53.6439L71.7412 55.7148L72.3593 56.1557C73.3109 56.8659 74.3946 57.3816 75.5478 57.6729C76.701 57.9641 77.9008 58.0252 79.0779 57.8525C80.802 57.5857 82.4424 56.9323 83.875 55.9419L85.9577 53.9512C87.0346 52.5449 87.7496 50.8983 88.0405 49.1546C88.0405 48.7404 88.2958 48.6736 88.6452 48.6736C89.3708 48.6736 90.0964 48.6736 90.8086 48.6736C91.466 48.7183 92.1149 48.5058 92.6169 48.0815C93.119 47.6572 93.4345 47.0546 93.496 46.4023C93.7244 44.799 93.8185 43.1689 93.9797 41.5656C94.0468 41.1267 93.9461 40.6786 93.6976 40.3097ZM20.6664 48.7404H22.9642C23.1657 48.7404 23.3539 48.7404 23.2598 49.0344C23.1054 49.3356 22.8787 49.5944 22.5999 49.7878C22.321 49.9812 21.9984 50.1033 21.6608 50.1433C21.3925 50.1753 21.1208 50.126 20.8811 50.0021C20.6414 49.8782 20.4448 49.6853 20.3171 49.4486C19.9542 48.9275 20.0617 48.7538 20.6664 48.7404ZM15.9634 50.7713H16.6353C16.9294 50.7215 17.2318 50.7553 17.5075 50.8687C17.7832 50.9822 18.0212 51.1707 18.194 51.4126C18.593 51.9139 19.0991 52.3208 19.6757 52.6039C20.2523 52.887 20.8849 53.0391 21.5278 53.0493C22.1707 53.0596 22.8079 52.9276 23.3933 52.663C23.9787 52.3985 24.4976 52.0079 24.9126 51.5195C25.7054 50.611 26.6728 50.8114 27.6 50.7045C28.1106 50.7045 27.7478 51.1454 27.6672 51.2924C27.0465 52.4476 26.1164 53.4095 24.9798 54.0714C24.1011 54.6399 23.1057 55.0058 22.0664 55.1422C21.0271 55.2786 19.9702 55.1821 18.9733 54.8597C18.1911 54.5873 17.4755 54.1538 16.8734 53.5874C16.2714 53.021 15.7964 52.3345 15.4797 51.5729C15.1303 50.8648 15.2915 50.7713 15.9634 50.7713ZM76.7936 17.5428C76.7804 17.4857 76.7804 17.4263 76.7936 17.3691C76.7804 17.4263 76.7804 17.4857 76.7936 17.5428ZM76.6323 19.1595C76.626 19.0973 76.626 19.0346 76.6323 18.9724C76.626 19.0346 76.626 19.0973 76.6323 19.1595ZM76.4845 20.8296C76.4845 20.8296 76.4845 20.7494 76.4845 20.7093C76.4845 20.6693 76.498 20.7895 76.4845 20.8296ZM76.0545 25.9334C76.1889 24.3435 76.3636 22.7535 76.5248 21.1636C76.7801 20.9632 76.7264 20.7361 76.5248 20.5089L76.592 19.6271C76.8742 19.3733 76.7801 19.066 76.6995 18.7587V17.7967C76.7406 17.7719 76.7757 17.7382 76.802 17.6982C76.8284 17.6582 76.8454 17.6128 76.8518 17.5654C76.8583 17.5181 76.854 17.4698 76.8392 17.4243C76.8245 17.3788 76.7997 17.3371 76.7667 17.3023L76.8473 16.808H77.0758V16.7144C77.0758 16.7144 76.9683 16.6343 76.8876 16.7144C76.9683 16.5808 77.022 16.5942 77.0758 16.7144V16.808C78.7554 18.8255 80.4485 20.8162 82.1147 22.8471L85.5546 27.0157C85.4203 27.2428 85.2321 27.1626 85.0843 27.1626C82.3969 27.1626 79.7094 27.1626 77.1161 27.1626C76.162 27.2027 75.9605 27.0023 76.0545 25.9334ZM35.2055 8.75137C35.4742 7.04117 35.7698 5.33098 36.0251 3.62079C36.1058 3.073 36.267 2.81914 36.8851 2.8325C38.8066 2.8325 40.7147 2.8325 42.6228 2.8325C43.1334 2.8325 43.2543 2.96611 43.1737 3.46046C42.6631 6.5201 42.1525 9.57974 41.6688 12.6527C41.5747 13.2406 41.3866 13.2673 40.9297 12.92C40.4728 12.5726 39.7338 12.1049 39.1694 11.6774C38.8837 11.4336 38.5229 11.294 38.1466 11.2819C37.7703 11.2697 37.4011 11.3857 37.1001 11.6106C36.3073 12.0782 35.4876 12.5058 34.4799 13.0669L35.2055 8.75137ZM86.0115 38.5728C86.0921 39.0939 85.9309 39.1607 85.4874 39.1607H66.1244C65.6273 39.1607 65.4795 39.0137 65.5332 38.5194C65.9632 34.0568 66.3797 29.6077 66.8769 25.1585C66.9979 23.9694 66.8769 23.6354 65.681 23.1544C64.512 23.3815 64.2567 23.6354 64.1492 24.8378C63.7192 29.2737 63.3026 33.6961 62.8861 38.1987C62.792 39.2008 62.8055 39.2008 61.7842 39.2008H13.0207C12.0935 39.2008 12.0801 39.2008 12.1607 38.3056C12.7385 32.1863 13.3431 26.0804 13.9209 19.9611C14.2569 16.4472 14.6062 12.9467 14.875 9.43277C14.8741 8.23328 15.198 7.05568 15.8128 6.02362C16.4275 4.99156 17.3104 4.1431 18.3687 3.56735C19.1691 3.1348 20.0645 2.90533 20.9755 2.89931C24.8991 2.89931 28.8228 2.89931 32.733 2.89931C33.2839 2.89931 33.3377 3.09972 33.2571 3.56735C32.6658 7.05454 32.1015 10.5551 31.5237 14.0556L31.3624 15.0176C31.2815 15.3234 31.2974 15.6467 31.408 15.9432C31.5186 16.2397 31.7186 16.495 31.9805 16.6744C32.25 16.863 32.5715 16.9642 32.901 16.9642C33.2305 16.9642 33.552 16.863 33.8214 16.6744C35.0173 16.0063 36.2267 15.3383 37.4092 14.6569C37.5731 14.5149 37.7831 14.4368 38.0004 14.4368C38.2177 14.4368 38.4277 14.5149 38.5916 14.6569C39.4247 15.2848 40.2982 15.846 41.1581 16.4472C41.3998 16.6749 41.7027 16.8279 42.0301 16.8877C42.3575 16.9476 42.6953 16.9117 43.0026 16.7844C43.3099 16.6571 43.5734 16.4438 43.7612 16.1705C43.949 15.8973 44.053 15.5756 44.0606 15.2447C44.5712 12.1717 45.0684 9.11211 45.5655 6.03911C45.6999 5.15729 45.8612 4.26212 45.9821 3.36694C45.9788 3.28703 45.9936 3.20742 46.0254 3.13397C46.0572 3.06051 46.1052 2.99509 46.1658 2.94252C46.2264 2.88995 46.2981 2.85157 46.3756 2.83022C46.4531 2.80887 46.5345 2.80508 46.6136 2.81914C51.4242 2.81914 56.2212 2.81914 61.0317 2.81914C61.692 2.81541 62.3455 2.95238 62.9481 3.22084C63.5507 3.4893 64.0884 3.88301 64.5251 4.37547C64.9618 4.86793 65.2874 5.44771 65.4798 6.07577C65.6722 6.70384 65.7271 7.3656 65.6407 8.01652C65.466 10.4749 65.1973 12.92 64.9688 15.365C64.8748 16.4205 64.7404 17.4894 64.6732 18.5449C64.606 19.6004 64.7807 19.9478 65.802 20.4154C66.9844 20.2551 67.3607 19.8542 67.4278 18.6518C67.5622 16.661 67.5622 16.661 69.5509 16.661C70.8946 16.661 72.1712 16.661 73.4746 16.661C73.9852 16.661 74.1464 16.7545 74.0927 17.3157C73.7971 20.2283 73.5283 23.1277 73.2999 26.0403C73.2127 26.5562 73.2448 27.085 73.3936 27.5867C73.5425 28.0884 73.8042 28.5498 74.159 28.9361C74.5138 29.3223 74.9523 29.6232 75.4413 29.8159C75.9304 30.0087 76.4571 30.0882 76.9817 30.0486C80.4619 30.0486 83.9287 30.0486 87.409 30.0486C87.6253 30.0284 87.8431 30.0645 88.041 30.1536C88.239 30.2426 88.4102 30.3814 88.5377 30.5563C89.1961 31.4114 89.8814 32.2398 90.6608 33.2285C89.7868 33.2583 88.9353 33.5114 88.1883 33.9633C87.4051 34.4288 86.7796 35.1162 86.3918 35.9374C86.0039 36.7587 85.8715 37.6763 86.0115 38.5728ZM90.7683 36.8626C90.7683 37.4639 90.607 38.0517 90.5936 38.653C90.5801 39.2542 90.3383 39.174 89.9755 39.134C89.751 39.1245 89.5325 39.0591 89.34 38.944C89.1475 38.8288 88.9871 38.6675 88.8734 38.4748C88.7598 38.2821 88.6966 38.0641 88.6896 37.8408C88.6826 37.6175 88.732 37.396 88.8333 37.1966C88.9654 36.8215 89.215 36.4983 89.5455 36.2747C89.8814 36.0209 90.298 35.7537 90.6876 35.9674C91.0773 36.1812 90.6876 36.5553 90.7683 36.8626ZM77.022 48.8874C77.1429 48.6469 77.3982 48.7538 77.5864 48.7538C77.7745 48.7538 78.2851 48.7538 78.621 48.7538H79.5348C79.7229 48.7538 80.0051 48.6469 80.1126 48.8473C80.2201 49.0477 79.9782 49.3149 79.8169 49.4886C79.664 49.701 79.4623 49.8741 79.2286 49.9935C78.9949 50.1129 78.736 50.1752 78.4732 50.1752C78.2105 50.1752 77.9515 50.1129 77.7179 49.9935C77.4842 49.8741 77.2825 49.701 77.1295 49.4886C77.1026 49.3283 76.9145 49.1145 77.022 48.8874ZM84.5065 51.279C83.9587 52.2502 83.2051 53.0914 82.2979 53.7442C81.3907 54.3971 80.3516 54.8461 79.2526 55.0601C78.8145 55.1761 78.3621 55.2301 77.9089 55.2204C76.7363 55.2288 75.5877 54.8903 74.6091 54.248C73.6305 53.6056 72.8661 52.6884 72.413 51.613C72.2921 51.3592 72.1577 51.0919 72.319 50.8247C72.4802 50.5575 72.7759 50.8247 73.0177 50.7446C73.5156 50.7035 74.0159 50.7886 74.4717 50.9918C74.9276 51.1951 75.3242 51.51 75.6245 51.9069C76.4561 52.6517 77.5483 53.0423 78.6665 52.9948C79.7846 52.9473 80.8394 52.4656 81.6041 51.6531C81.9464 51.2997 82.3695 51.0338 82.8374 50.8779C83.3053 50.7221 83.8042 50.6809 84.2915 50.7579C84.6812 50.7713 84.7081 50.945 84.5065 51.279Z" fill="#A682FF"/>
<path d="M33.176 25.2655L33.4581 27.0558C33.4853 27.2236 33.5117 27.3921 33.5382 27.561C33.63 28.1456 33.7227 28.7364 33.8478 29.3272C33.9284 29.7414 33.8344 29.9017 33.3775 29.9017H32.0338C31.6527 29.9017 31.4612 29.9017 31.3998 29.8128C31.3377 29.7231 31.4083 29.5427 31.5501 29.1802C31.5672 29.1377 31.5884 29.0965 31.6094 29.0557C31.6542 28.9686 31.6979 28.8838 31.6979 28.7928C31.7614 28.4096 31.9081 28.0449 32.1279 27.7239L32.9878 25.2655H33.176Z" fill="#A682FF"/>
<path fill-rule="evenodd" clip-rule="evenodd" d="M64.8449 16.3978C64.759 17.0918 64.6728 17.7877 64.6728 18.4778C64.5922 19.6135 64.7803 19.8807 65.8015 20.3216C65.7928 21.2641 65.73 22.2053 65.6134 23.1407C64.4444 23.3679 64.1891 23.6217 64.0816 24.8242C63.6516 29.26 63.235 33.6824 62.8185 38.1182C62.7714 38.6198 62.7512 38.8703 62.6148 38.9955C62.4786 39.1203 62.2267 39.1203 61.7166 39.1203H13.0202C12.0931 39.1203 12.0796 39.1203 12.1603 38.2251C12.4492 35.1655 12.7448 32.1092 13.0404 29.0529C13.336 25.9966 13.6316 22.9403 13.9205 19.8807C13.9717 19.3453 14.0232 18.8103 14.0747 18.2754C14.361 15.2998 14.6468 12.3309 14.8746 9.35231C14.8789 8.14742 15.2109 6.96613 15.8354 5.93357C16.4599 4.901 17.3537 4.05559 18.422 3.48689C19.2224 3.05434 20.1178 2.82487 21.0288 2.81885H32.7863C33.3104 2.81885 33.391 3.01926 33.3104 3.48689C32.9061 5.87162 32.5143 8.26261 32.1222 10.6556C31.941 11.7618 31.7597 12.8685 31.577 13.9752L31.4157 14.9372C31.2987 15.2466 31.2852 15.5854 31.3771 15.9031C31.4691 16.2208 31.6617 16.5006 31.9264 16.7008C32.1958 16.8894 32.5173 16.9906 32.8468 16.9906C33.1763 16.9906 33.4978 16.8894 33.7673 16.7008C34.2579 16.4213 34.7507 16.1485 35.2431 15.876C35.9509 15.4842 36.6576 15.093 37.355 14.6833C37.5189 14.5414 37.7289 14.4632 37.9462 14.4632C38.1636 14.4632 38.3736 14.5414 38.5375 14.6833C39.0847 15.0958 39.6493 15.4794 40.2161 15.8645C40.5122 16.0657 40.8089 16.2673 41.104 16.4736C41.3456 16.7013 41.6485 16.8543 41.9759 16.9142C42.3033 16.974 42.6411 16.9381 42.9484 16.8108C43.2557 16.6835 43.5192 16.4703 43.707 16.197C43.8948 15.9237 43.9988 15.6021 44.0064 15.2712C44.517 12.1982 45.0142 9.13854 45.5114 6.06554C45.5624 5.73059 45.6173 5.39372 45.6724 5.05565C45.7624 4.50368 45.8529 3.94852 45.9279 3.39336C45.9247 3.31346 45.9395 3.23385 45.9713 3.16039C46.0031 3.08694 46.051 3.02151 46.1116 2.96895C46.1722 2.91638 46.2439 2.878 46.3214 2.85665C46.399 2.83529 46.4803 2.83151 46.5595 2.84557H60.9776C61.6334 2.83588 62.2839 2.9651 62.8856 3.22463C63.4874 3.48416 64.0267 3.86807 64.4677 4.35083C64.9088 4.8336 65.2414 5.40417 65.4436 6.02462C65.6458 6.64508 65.7128 7.30121 65.6403 7.94942C65.5175 9.67739 65.3482 11.3988 65.1792 13.1182C65.1077 13.845 65.0363 14.5714 64.9684 15.2979C64.9359 15.6633 64.8904 16.0303 64.8449 16.3978ZM23.7565 29.3936H25.7049C25.8615 29.3868 26.0151 29.3491 26.1568 29.2827C26.2986 29.2164 26.4257 29.1227 26.5307 29.0071C26.6357 28.8915 26.7166 28.7562 26.7686 28.6093C26.8206 28.4623 26.8427 28.3066 26.8337 28.151C26.8068 27.483 26.3634 27.2291 25.7318 27.2291H23.8372C23.3669 27.2425 23.3669 27.0688 23.3669 26.6947C23.3771 26.6171 23.3874 26.5393 23.3979 26.4613C23.47 25.9215 23.5433 25.3728 23.555 24.8242C23.5684 24.1962 23.8506 24.0225 24.4687 24.0225H28.2446C29.0239 24.0092 29.427 23.1942 29.4002 22.446C29.3733 21.6977 29.118 21.484 28.258 21.484H22.171C22.0248 21.4674 21.8767 21.4804 21.7357 21.5224C21.5948 21.5643 21.4638 21.6342 21.3507 21.7278C21.2377 21.8215 21.1449 21.937 21.0781 22.0673C21.0112 22.1976 20.9716 22.3401 20.9616 22.486L19.712 34.0165C19.6816 34.1419 19.6816 34.2727 19.7119 34.3981C19.7423 34.5236 19.8022 34.64 19.8866 34.7379C20.1471 34.9361 20.4542 35.0647 20.7788 35.1115C21.1034 35.1583 21.4346 35.1217 21.741 35.0052C21.9839 34.9553 22.2015 34.8224 22.3562 34.6296C22.5108 34.4368 22.5926 34.1962 22.5875 33.9497C22.6354 33.4364 22.6917 32.9315 22.7481 32.4258C22.8342 31.6548 22.9204 30.8819 22.9772 30.075C23.0175 29.5406 23.1519 29.3936 23.7565 29.3936ZM35.9124 35.1006C36.2497 35.0631 36.5711 34.938 36.8444 34.7379L36.7906 34.6177C37.003 34.528 37.1812 34.3736 37.2996 34.1767C37.4179 33.9798 37.4702 33.7505 37.4491 33.5221C37.0298 31.4058 36.6251 29.2894 36.2204 27.173C35.9505 25.7621 35.6807 24.3512 35.4066 22.9403C35.1782 21.7779 34.7347 21.4439 33.1088 21.4439C32.7322 21.4522 32.3674 21.5761 32.0644 21.7985C31.7613 22.021 31.5348 22.3311 31.4157 22.6864C30.7317 24.3709 30.0386 26.0613 29.3436 27.7564C28.5777 29.6244 27.8095 31.4979 27.0487 33.3751C26.6993 34.2302 26.7396 34.591 27.7743 34.9918C28.8089 35.3926 29.3599 35.1254 29.763 34.0565C30.4483 32.2662 30.4483 32.2662 32.3564 32.2662C32.5502 32.2704 32.7625 32.2391 32.9752 32.2078C33.4405 32.1392 33.9071 32.0704 34.1838 32.3731C34.4672 32.6831 34.4982 33.1384 34.529 33.5904C34.542 33.7812 34.555 33.9715 34.5869 34.1501C34.5974 34.2075 34.6049 34.267 34.6123 34.3268C34.643 34.5727 34.6742 34.8227 34.9229 34.9517C35.2339 35.0868 35.5751 35.1381 35.9124 35.1006ZM46.3825 24.5513C46.5594 24.563 46.7364 24.5281 46.8954 24.4501V24.3298C47.1467 24.1618 47.3528 23.9351 47.4957 23.6696C47.6386 23.4041 47.7139 23.1078 47.7151 22.8067C47.7198 22.5495 47.6396 22.2978 47.4867 22.0902C47.3338 21.8827 47.1166 21.7307 46.8685 21.6577C46.0792 21.359 45.2406 21.2095 44.3961 21.2168C43.7208 21.2197 43.0484 21.305 42.3939 21.4706C41.8464 21.5925 41.3291 21.8227 40.873 22.1476C40.4168 22.4726 40.0312 22.8855 39.739 23.3618C39.4468 23.8381 39.2541 24.368 39.1723 24.92C39.0906 25.4719 39.1214 26.0346 39.2631 26.5745C39.3998 27.056 39.6383 27.503 39.9627 27.8855C40.2871 28.268 40.69 28.5772 41.1443 28.7924C42.0325 29.1968 42.8825 29.6798 43.6839 30.2353C43.8912 30.3594 44.0563 30.5423 44.1579 30.7606C44.2595 30.9789 44.2929 31.2225 44.2539 31.4599C44.2148 31.6972 44.105 31.9175 43.9388 32.0922C43.7725 32.2669 43.5573 32.388 43.3211 32.4399C42.8158 32.6295 42.2648 32.6634 41.7399 32.5371C41.215 32.4108 40.7405 32.1301 40.3784 31.7318C39.5587 30.9167 38.7525 31.0771 38.215 32.1192C38.1092 32.3015 38.0427 32.5036 38.0194 32.7128C37.9961 32.9219 38.0167 33.1336 38.0798 33.3345C38.143 33.5353 38.2473 33.721 38.3862 33.8798C38.5251 34.0385 38.6955 34.167 38.8868 34.257C39.6397 34.751 40.4981 35.0638 41.3937 35.1705C42.2894 35.2771 43.1978 35.1748 44.0467 34.8716C44.8198 34.6728 45.5183 34.2551 46.0574 33.6693C46.5964 33.0835 46.9529 32.3547 47.0835 31.5714C47.3184 30.7653 47.2738 29.9041 46.957 29.1263C46.6401 28.3484 46.0695 27.699 45.3367 27.2826C44.8599 26.9895 44.3607 26.7409 43.8645 26.4938C43.5915 26.3579 43.3194 26.2223 43.0524 26.0801C42.5283 25.8129 42.0043 25.5323 42.0849 24.8108C42.1655 24.0893 42.8508 23.8889 43.5092 23.7954C44.3453 23.728 45.1806 23.9345 45.8876 24.3833C46.0348 24.4816 46.2055 24.5395 46.3825 24.5513ZM55.3474 23.9424C55.974 23.9758 56.602 23.9758 57.2286 23.9424V23.8221C57.9408 23.782 58.3842 22.967 58.3573 22.2455C58.3304 21.5241 58.0751 21.2969 57.2958 21.2969H50.2278C49.9621 21.1995 49.6722 21.188 49.3995 21.2642C49.1268 21.3403 48.8853 21.5002 48.7095 21.721C48.5337 21.9418 48.4325 22.2121 48.4204 22.4935C48.4083 22.7749 48.486 23.0528 48.6422 23.2877C48.6626 23.4876 48.7616 23.6713 48.9177 23.799C49.0737 23.9266 49.2742 23.9877 49.4753 23.9691C49.6679 23.9691 49.871 23.9721 50.074 23.975C50.4801 23.981 50.8862 23.9869 51.2087 23.9691C51.6925 23.9424 51.7865 24.0626 51.7865 24.5837C51.5027 27.0586 51.2543 29.5246 51.0054 31.9962C50.948 32.5668 50.8905 33.1378 50.8325 33.7092C50.8325 34.6845 51.155 35.0452 52.1762 35.0452C53.1974 35.0452 53.6274 34.7112 53.7349 33.7092C54.0843 30.6451 54.4157 27.5854 54.7293 24.5303C54.7696 24.076 54.904 23.9424 55.3474 23.9424Z" fill="#A682FF"/>
<path d="M10.1589 72.0531C9.78862 71.651 9.32911 71.342 8.81764 71.1513C8.1452 70.8989 7.42911 70.7844 6.7118 70.8148H4.19016C3.99569 70.8201 3.80147 70.7974 3.6134 70.7475C3.52448 70.7199 3.44226 70.6741 3.37196 70.6129C3.33569 70.5744 3.30822 70.5285 3.29149 70.4783C3.27845 70.3845 3.27845 70.2894 3.29149 70.1956C3.27802 70.0253 3.33091 69.8565 3.43903 69.7245C3.61262 69.6078 3.82131 69.5555 4.0292 69.5765H9.55535C9.73322 69.5765 9.9038 69.5056 10.0296 69.3793C10.1553 69.2531 10.226 69.082 10.226 68.9035V66.9921C10.226 66.8136 10.1553 66.6425 10.0296 66.5162C9.9038 66.39 9.73322 66.3191 9.55535 66.3191H4.0292C3.42688 66.3056 2.82708 66.4014 2.25869 66.6018C1.7568 66.7664 1.29835 67.0425 0.917386 67.4094C0.579073 67.7719 0.322845 68.2035 0.166259 68.6746C0.036199 69.1476 -0.0181306 69.6383 0.00530333 70.1283C-0.000878861 70.5831 0.0578397 71.0363 0.179672 71.4743C0.300919 71.9728 0.540176 72.4345 0.877147 72.8203C1.24509 73.2253 1.70532 73.5347 2.21845 73.7222C2.86757 73.9557 3.55452 74.0653 4.24381 74.0452H6.77886C6.98331 74.0343 7.18799 74.0617 7.38245 74.126C7.48662 74.1524 7.58312 74.2032 7.66412 74.274C7.71461 74.3141 7.74815 74.3718 7.75801 74.4356C7.77826 74.5332 7.77826 74.634 7.75801 74.7317C7.7666 74.8245 7.7555 74.918 7.72544 75.0062C7.69539 75.0943 7.64706 75.1751 7.58364 75.2432C7.39295 75.3795 7.15938 75.4417 6.9264 75.4181H0.863734C0.685867 75.4181 0.515285 75.4891 0.389514 75.6153C0.263743 75.7415 0.193085 75.9127 0.193085 76.0912V77.8948C0.193085 78.0733 0.263743 78.2445 0.389514 78.3707C0.515285 78.4969 0.685867 78.5678 0.863734 78.5678H6.9264C7.54184 78.581 8.15478 78.4853 8.73716 78.2851C9.24008 78.1161 9.69855 77.8355 10.0785 77.4641C10.4386 77.0823 10.705 76.6214 10.8564 76.1181C11.0102 75.6398 11.0872 75.14 11.0844 74.6375C11.0804 74.1834 11.0218 73.7315 10.9101 73.2915C10.7604 72.8251 10.503 72.4007 10.1589 72.0531Z" fill="#A682FF"/>
<path d="M18.2337 68.7015H15.8864C15.3601 68.6696 14.8331 68.753 14.3421 68.9459C13.851 69.1388 13.4077 69.4366 13.0429 69.8187C12.3455 70.7342 12.0024 71.8723 12.0771 73.0222V81.327C12.0806 81.5045 12.1523 81.6737 12.2774 81.7991C12.4024 81.9246 12.571 81.9966 12.7478 82.0001H14.4512C14.6291 82.0001 14.7997 81.9291 14.9254 81.8029C15.0512 81.6767 15.1219 81.5055 15.1219 81.327V78.635H18.2203C18.8244 78.6653 19.4278 78.563 19.9884 78.3351C20.549 78.1073 21.0533 77.7595 21.4662 77.3159C22.2345 76.2458 22.648 74.9603 22.648 73.6413C22.648 72.3224 22.2345 71.0368 21.4662 69.9667C21.05 69.5347 20.5457 69.1979 19.9877 68.9796C19.4298 68.7612 18.8315 68.6663 18.2337 68.7015ZM19.1592 75.2027C19.0145 75.3419 18.8407 75.4468 18.6503 75.5097C18.46 75.5725 18.2581 75.5918 18.0593 75.5661H15.1353V73.1029C15.0883 72.7018 15.1832 72.2968 15.4035 71.9588C15.6822 71.7438 16.0338 71.6471 16.3827 71.6896H18.0593C18.2591 71.6656 18.4616 71.6871 18.652 71.7523C18.8424 71.8175 19.0157 71.9249 19.1592 72.0665C19.3888 72.5571 19.5079 73.0925 19.5079 73.6346C19.5079 74.1767 19.3888 74.7121 19.1592 75.2027Z" fill="#A682FF"/>
<path d="M32.5588 74.2881C32.8553 73.9861 33.0859 73.6255 33.236 73.2293C33.3861 72.833 33.4524 72.4097 33.4306 71.9864C33.4534 71.5487 33.3879 71.1109 33.2381 70.6992C33.0883 70.2876 32.8572 69.9105 32.5588 69.5905C32.1938 69.2696 31.7682 69.0256 31.3074 68.873C30.8465 68.7204 30.3598 68.6623 29.8762 68.7021H27.1399C26.5966 68.6861 26.0551 68.7729 25.5438 68.9579C25.1002 69.1115 24.6999 69.37 24.3769 69.7116C24.0549 70.0331 23.8195 70.4314 23.6928 70.8692C23.564 71.306 23.5007 71.7597 23.505 72.2152V75.1226C23.5007 75.5781 23.564 76.0318 23.6928 76.4686C23.8275 76.9028 24.0618 77.2993 24.3769 77.6262C24.7034 77.9635 25.1026 78.2213 25.5438 78.3799C26.0577 78.5534 26.5979 78.6354 27.1399 78.6222H32.3308C32.5086 78.6222 32.6792 78.5513 32.805 78.4251C32.9307 78.2989 33.0014 78.1277 33.0014 77.9492V76.2398C33.0014 76.0613 32.9307 75.8901 32.805 75.7639C32.6792 75.6377 32.5086 75.5668 32.3308 75.5668H27.1399C26.9629 75.5876 26.7839 75.5497 26.6302 75.4591C26.588 75.4145 26.5554 75.3615 26.5346 75.3036C26.5139 75.2456 26.5053 75.184 26.5095 75.1226H29.8762C30.8452 75.2118 31.8099 74.9117 32.5588 74.2881ZM26.4961 72.4306V72.2018C26.4881 72.0549 26.536 71.9106 26.6302 71.7979C26.7855 71.7116 26.9631 71.6741 27.1399 71.6903H29.8225C29.9763 71.6744 30.1311 71.7073 30.2652 71.7845C30.3016 71.8238 30.329 71.8708 30.3452 71.922C30.3615 71.9732 30.3662 72.0274 30.359 72.0806C30.359 72.2691 30.359 72.3229 30.2786 72.3498C30.1191 72.4226 29.9429 72.4505 29.7689 72.4306H26.4961Z" fill="#A682FF"/>
<path d="M43.4498 74.2875C43.7367 73.981 43.9574 73.6183 44.0982 73.2223C44.239 72.8262 44.2968 72.4053 44.268 71.9858C44.2908 71.5481 44.2253 71.1103 44.0755 70.6986C43.9257 70.287 43.6946 69.9099 43.3962 69.5899C43.032 69.2677 42.6065 69.0229 42.1455 68.8702C41.6844 68.7175 41.1973 68.6601 40.7136 68.7015H38.031C37.4878 68.6877 36.9467 68.7744 36.4348 68.9573C35.9928 69.1141 35.5933 69.3722 35.2679 69.711C34.956 70.038 34.7262 70.4348 34.5973 70.8686C34.4572 71.3032 34.3893 71.7579 34.3961 72.2146V75.122C34.3893 75.5787 34.4572 76.0334 34.5973 76.468C34.7324 76.8991 34.9615 77.2945 35.2679 77.6256C35.5968 77.96 35.9953 78.2174 36.4348 78.3793C36.9493 78.5507 37.4891 78.6326 38.031 78.6216H43.2352C43.4131 78.6216 43.5837 78.5507 43.7094 78.4245C43.8352 78.2983 43.9059 78.1271 43.9059 77.9486V76.2392C43.9059 76.0607 43.8352 75.8895 43.7094 75.7633C43.5837 75.6371 43.4131 75.5662 43.2352 75.5662H38.031C37.8539 75.587 37.675 75.5491 37.5213 75.4585C37.4467 75.3619 37.4044 75.2441 37.4006 75.122H40.7672C41.2471 75.1676 41.7313 75.1174 42.1918 74.9742C42.6522 74.8309 43.0798 74.5975 43.4498 74.2875ZM37.4006 72.43V72.2012C37.3936 72.1282 37.4019 72.0545 37.425 71.985C37.4481 71.9154 37.4855 71.8515 37.5347 71.7973C37.6849 71.7104 37.8584 71.6728 38.031 71.6897H40.7136C40.8673 71.6738 41.0221 71.7067 41.1562 71.7839C41.1927 71.8232 41.22 71.8702 41.2363 71.9214C41.2525 71.9726 41.2572 72.0268 41.2501 72.08C41.2501 72.2685 41.2501 72.3223 41.1696 72.3492C41.0148 72.4216 40.843 72.4495 40.6733 72.43H37.4006Z" fill="#A682FF"/>
<path d="M54.9045 65H53.1742C52.9963 65 52.8258 65.0709 52.7 65.1971C52.5742 65.3233 52.5036 65.4945 52.5036 65.673V68.7015H49.432C48.8422 68.674 48.2532 68.7712 47.7032 68.9868C47.1533 69.2025 46.6546 69.5318 46.2397 69.9533C45.3945 70.9874 44.9768 72.3074 45.0728 73.6414C44.9776 74.9711 45.3953 76.2867 46.2397 77.316C46.6546 77.7375 47.1533 78.0668 47.7032 78.2825C48.2532 78.4981 48.8422 78.5953 49.432 78.5678H51.7793C52.3033 78.5968 52.8274 78.512 53.3159 78.3192C53.8043 78.1264 54.2455 77.8301 54.6094 77.4506C55.3067 76.5351 55.6498 75.397 55.5751 74.2471V65.673C55.5751 65.4945 55.5045 65.3233 55.3787 65.1971C55.2529 65.0709 55.0824 65 54.9045 65ZM52.5036 74.1663C52.5391 74.5607 52.4499 74.9563 52.2487 75.297C51.9736 75.5086 51.6275 75.605 51.283 75.5662H49.6332C49.4326 75.5884 49.2295 75.5674 49.0375 75.5048C48.8456 75.4421 48.6691 75.3392 48.5199 75.2028C48.2384 74.7338 48.1161 74.186 48.1712 73.6414C48.1087 73.0903 48.2365 72.5344 48.5333 72.0665C48.6768 71.925 48.8501 71.8176 49.0405 71.7524C49.2309 71.6871 49.4334 71.6657 49.6332 71.6897H52.5438L52.5036 74.1663Z" fill="#A682FF"/>
<path d="M67.1772 68.9973C67.1151 68.9051 67.0311 68.8297 66.9328 68.778C66.8344 68.7263 66.7249 68.6999 66.6139 68.7012H64.8031C64.6726 68.7024 64.5452 68.7411 64.4359 68.8127C64.3265 68.8842 64.2399 68.9857 64.1861 69.105L61.6243 75.0409L59.2367 69.1185C59.188 68.9945 59.1029 68.8883 58.9928 68.8138C58.8826 68.7393 58.7526 68.7001 58.6198 68.7012H56.809C56.7001 68.701 56.5928 68.7279 56.4968 68.7796C56.4008 68.8313 56.3191 68.9061 56.2591 68.9973C56.2097 69.093 56.1839 69.1992 56.1839 69.3069C56.1839 69.4147 56.2097 69.5208 56.2591 69.6165L59.0221 76.7773C59.1624 77.2203 59.4337 77.61 59.8001 77.8945C59.943 78.0072 60.1073 78.0897 60.283 78.1367L59.0221 81.0576C58.9693 81.1546 58.9416 81.2633 58.9416 81.3739C58.9416 81.4844 58.9693 81.5932 59.0221 81.6902C59.0827 81.785 59.1661 81.863 59.2645 81.9171C59.3629 81.9712 59.4733 81.9996 59.5855 81.9998H61.4231C61.5536 81.9986 61.681 81.9599 61.7903 81.8883C61.8997 81.8168 61.9863 81.7153 62.0401 81.596L67.1504 69.6434C67.2074 69.5462 67.2397 69.4364 67.2444 69.3238C67.2491 69.2111 67.226 69.099 67.1772 68.9973Z" fill="#A682FF"/>
<path d="M73.3746 66.992C74.0428 66.9463 74.7132 67.0425 75.3419 67.2744C75.9705 67.5064 76.5434 67.8688 77.0229 68.3381C77.9593 69.5155 78.4062 71.0104 78.2703 72.5107C78.3702 73.9656 77.9253 75.4056 77.0229 76.5487C76.5438 77.0186 75.9711 77.3815 75.3423 77.6135C74.7135 77.8455 74.0429 77.9413 73.3746 77.8947H69.5519C69.431 77.9124 69.3076 77.9017 69.1915 77.8635C69.0754 77.8253 68.9697 77.7606 68.8826 77.6746C68.7956 77.5885 68.7296 77.4834 68.6898 77.3675C68.65 77.2516 68.6375 77.1279 68.6532 77.0064V67.8804C68.6375 67.7588 68.65 67.6352 68.6898 67.5193C68.7296 67.4033 68.7956 67.2982 68.8826 67.2122C68.9697 67.1261 69.0754 67.0615 69.1915 67.0233C69.3076 66.9851 69.431 66.9744 69.5519 66.992H73.3746ZM70.5445 75.7949C70.5445 75.9295 70.5445 75.9968 70.7591 75.9968H73.4417C73.8479 76.0333 74.2572 75.9812 74.6415 75.8441C75.0258 75.7071 75.376 75.4883 75.6682 75.2027C76.1288 74.3808 76.3708 73.4537 76.3708 72.5107C76.3708 71.5677 76.1288 70.6406 75.6682 69.8187C75.3721 69.5167 75.0125 69.285 74.6156 69.1406C74.2188 68.9962 73.7947 68.9428 73.3746 68.9841H70.692C70.5445 68.9841 70.4774 68.9841 70.4774 69.1726L70.5445 75.7949Z" fill="#A682FF"/>
<path d="M86.5861 69.3744V71.0165H83.5951C83.4465 70.996 83.2951 71.0106 83.1531 71.059C83.011 71.1075 82.8821 71.1884 82.7767 71.2956C82.6713 71.4027 82.5921 71.533 82.5456 71.6761C82.4991 71.8193 82.4865 71.9713 82.5087 72.1202V77.8946H80.8053V71.8645C80.7497 71.1896 80.9351 70.5169 81.3284 69.9666C81.5724 69.7383 81.8636 69.5668 82.1812 69.4644C82.4988 69.3621 82.8351 69.3313 83.1659 69.3744H86.5861Z" fill="#A682FF"/>
<path d="M93.7349 69.3748C94.2302 69.3531 94.7246 69.4353 95.1865 69.6161C95.6483 69.7969 96.0676 70.0722 96.4175 70.4247C97.1438 71.3314 97.4987 72.4817 97.4101 73.6416C97.5007 74.7977 97.1454 75.9445 96.4175 76.8451C96.0676 77.1976 95.6483 77.4729 95.1865 77.6537C94.7246 77.8345 94.2302 77.9166 93.7349 77.895H91.951C91.4554 77.9192 90.9604 77.8381 90.4981 77.6572C90.0359 77.4763 89.6168 77.1996 89.2684 76.8451C88.6213 75.9005 88.2749 74.7812 88.2749 73.6349C88.2749 72.4886 88.6213 71.3693 89.2684 70.4247C89.6168 70.0702 90.0359 69.7935 90.4981 69.6125C90.9604 69.4316 91.4554 69.3506 91.951 69.3748H93.7349ZM92.112 71.0169C91.8143 70.989 91.5142 71.0304 91.2351 71.1378C90.9559 71.2452 90.7052 71.4157 90.5024 71.6361C90.1606 72.2537 89.9813 72.9486 89.9813 73.6551C89.9813 74.3616 90.1606 75.0564 90.5024 75.6741C90.7083 75.8897 90.9599 76.056 91.2385 76.1608C91.5171 76.2657 91.8156 76.3063 92.112 76.2798H93.574C93.8821 76.3087 94.1928 76.2654 94.4814 76.1533C94.77 76.0411 95.0287 75.8633 95.2372 75.6337C95.5789 75.016 95.7583 74.3212 95.7583 73.6147C95.7583 72.9082 95.5789 72.2134 95.2372 71.5957C95.0323 71.3742 94.7793 71.2031 94.4978 71.0957C94.2163 70.9884 93.914 70.9476 93.6142 70.9765L92.112 71.0169Z" fill="#A682FF"/>
<path d="M105.311 69.3748C105.807 69.3498 106.302 69.4304 106.764 69.6114C107.227 69.7924 107.646 70.0696 107.994 70.4247C108.72 71.3315 109.075 72.4817 108.986 73.6417C109.077 74.7977 108.721 75.9445 107.994 76.8452C107.646 77.2004 107.227 77.4775 106.764 77.6585C106.302 77.8395 105.807 77.9201 105.311 77.8951H101.542V81.3274H99.8384V73.0225C99.7562 72.0406 100.027 71.0616 100.603 70.2632C100.904 69.953 101.268 69.7127 101.672 69.5592C102.075 69.4057 102.507 69.3428 102.937 69.3748H105.311ZM101.542 76.2395H105.137C105.433 76.266 105.731 76.2254 106.01 76.1205C106.289 76.0157 106.54 75.8493 106.746 75.6338C107.088 75.0161 107.267 74.3213 107.267 73.6148C107.267 72.9083 107.088 72.2134 106.746 71.5958C106.543 71.3754 106.293 71.2048 106.013 71.0975C105.734 70.9901 105.434 70.9487 105.137 70.9766H103.46C103.194 70.948 102.925 70.9764 102.67 71.06C102.416 71.1435 102.182 71.2802 101.985 71.4612C101.648 71.9234 101.491 72.4928 101.542 73.0629V76.2395Z" fill="#A682FF"/>
</svg>
