<svg width="109" height="82" viewBox="0 0 109 82" fill="none" xmlns="http://www.w3.org/2000/svg">
<path d="M7.22932 1.33749H10.9245C11.7576 1.83184 12.0801 2.37964 11.892 3.04768C11.7039 3.71572 11.153 4.07647 10.1318 4.08983H7.56525C6.35255 4.01636 5.13647 4.01636 3.92377 4.08983H1.55883C1.3608 4.10849 1.16104 4.0857 0.972407 4.02293C0.783776 3.96016 0.61046 3.8588 0.46362 3.72539C0.31678 3.59197 0.199673 3.42944 0.119841 3.24829C0.0400099 3.06713 -0.000775567 2.87136 0.000111761 2.67358C-0.00241746 2.47859 0.0380097 2.28542 0.118555 2.10762C0.1991 1.92982 0.31781 1.77171 0.466352 1.64438C0.614893 1.51706 0.789663 1.4236 0.978393 1.37059C1.16712 1.31757 1.36524 1.30627 1.55883 1.33749H7.22932Z" fill="#050029"/>
<path d="M5.2939 6.92132L8.57258 6.97476C9.58037 6.97476 10.1716 7.48247 10.185 8.31085C10.1997 8.51672 10.1662 8.72318 10.0872 8.91403C10.0082 9.10488 9.88575 9.27493 9.72953 9.41084C9.57332 9.54675 9.38756 9.64483 9.18683 9.69738C8.9861 9.74994 8.77585 9.75553 8.57258 9.71374C7.22886 9.71374 5.77764 9.71374 4.38017 9.71374C3.8796 9.71512 3.39798 9.52356 3.03645 9.1793C2.47209 7.84322 3.03645 6.9614 4.55486 6.9614C4.85048 6.97476 5.07891 6.93468 5.2939 6.92132Z" fill="#050029"/>
<path d="M6.8665 15.2846H6.3156C5.95923 15.2846 5.61746 15.1439 5.36547 14.8933C5.11348 14.6428 4.97191 14.3029 4.97191 13.9486C4.95704 13.7643 4.98077 13.579 5.04161 13.4044C5.10245 13.2297 5.19906 13.0695 5.32535 12.9339C5.45163 12.7983 5.60484 12.6902 5.77529 12.6165C5.94574 12.5428 6.12972 12.505 6.3156 12.5056C6.7625 12.4638 7.21237 12.4638 7.65928 12.5056C7.84393 12.5051 8.0267 12.5425 8.19617 12.6155C8.36565 12.6884 8.51818 12.7952 8.64427 12.9294C8.77035 13.0635 8.86728 13.2221 8.92899 13.3951C8.99071 13.5682 9.01589 13.752 9.00296 13.9352C9.00341 14.1188 8.9658 14.3005 8.89247 14.4691C8.81914 14.6376 8.71166 14.7893 8.57675 14.9146C8.44184 15.04 8.28239 15.1364 8.10835 15.1977C7.93431 15.2591 7.74942 15.2841 7.56522 15.2713L6.8665 15.2846Z" fill="#050029"/>
<path d="M44.4233 21.2172C45.2679 21.2099 46.1064 21.3595 46.8958 21.6582C47.1439 21.7312 47.3611 21.8831 47.514 22.0907C47.6669 22.2983 47.7471 22.5499 47.7423 22.8072C47.7382 23.1107 47.6588 23.4086 47.5112 23.6743C47.3635 23.94 47.1521 24.1654 46.8958 24.3303C46.7367 24.4083 46.5598 24.4432 46.3829 24.4315C46.2059 24.4198 46.0352 24.3618 45.888 24.2635C45.1667 23.8566 44.3324 23.6925 43.5096 23.7959C42.8512 23.8894 42.1659 24.0898 42.0853 24.8113C42.0046 25.5328 42.5287 25.8134 43.0527 26.0806C43.3198 26.2228 43.5919 26.3583 43.8649 26.4943C44.3611 26.7414 44.8603 26.99 45.3371 27.2831C46.0699 27.6995 46.6405 28.3489 46.9573 29.1267C47.2742 29.9046 47.3187 30.7658 47.0839 31.5719C46.9533 32.3552 46.5968 33.084 46.0577 33.6698C45.5187 34.2556 44.8202 34.6733 44.0471 34.872C43.1982 35.1753 42.2898 35.2776 41.3941 35.1709C40.4985 35.0643 39.6401 34.7515 38.8872 34.2574C38.6959 34.1674 38.5254 34.039 38.3866 33.8802C38.2477 33.7215 38.1434 33.5358 38.0802 33.3349C38.0171 33.1341 37.9965 32.9224 38.0198 32.7133C38.043 32.5041 38.1096 32.302 38.2154 32.1197C38.7528 31.0776 39.5591 30.9172 40.3787 31.7322C40.7409 32.1306 41.2154 32.4113 41.7403 32.5376C42.2652 32.6639 42.8162 32.63 43.3215 32.4404C43.5577 32.3885 43.7729 32.2674 43.9392 32.0927C44.1054 31.918 44.2152 31.6977 44.2543 31.4604C44.2933 31.223 44.2599 30.9794 44.1583 30.7611C44.0567 30.5428 43.8916 30.3598 43.6843 30.2358C42.8829 29.6803 42.0329 29.1973 41.1447 28.7929C40.6904 28.5777 40.2875 28.2685 39.9631 27.886C39.6387 27.5035 39.4001 27.0565 39.2635 26.575C39.1218 26.0351 39.091 25.4724 39.1727 24.9205C39.2545 24.3685 39.4472 23.8386 39.7394 23.3623C40.0316 22.886 40.4172 22.473 40.8734 22.1481C41.3295 21.8232 41.8468 21.593 42.3943 21.4711C43.0575 21.3033 43.739 21.218 44.4233 21.2172Z" fill="#050029"/>
<path fill-rule="evenodd" clip-rule="evenodd" d="M35.407 22.7669C35.1785 21.6045 34.7351 21.2705 33.1092 21.2705C32.7259 21.2826 32.3562 21.4142 32.0523 21.6468C31.7485 21.8794 31.5259 22.2012 31.4161 22.5665C30.7323 24.2505 30.0394 25.9405 29.3445 27.6351C28.5786 29.5032 27.8099 31.3779 27.049 33.2552C26.6997 34.1103 26.74 34.471 27.7747 34.8718C28.8093 35.2727 29.3602 35.0055 29.7634 33.9366C30.1073 33.0381 30.2786 32.5906 30.6051 32.3676C30.9292 32.1462 31.4062 32.1462 32.3567 32.1462C32.5506 32.1504 32.7629 32.1191 32.9755 32.0878C33.4408 32.0192 33.9075 31.9505 34.1842 32.2531C34.4676 32.5631 34.4986 33.0184 34.5294 33.4704C34.5424 33.6613 34.5554 33.8516 34.5873 34.0301C34.5978 34.0875 34.6052 34.1469 34.6127 34.2066C34.6434 34.4525 34.6746 34.7028 34.9232 34.8318C35.2343 34.9668 35.5755 35.0181 35.9128 34.9806C36.25 34.9431 36.5715 34.818 36.8448 34.618C37.0809 34.5125 37.2715 34.3268 37.3823 34.0941C37.4931 33.8615 37.5169 33.5972 37.4494 33.3487C37.0302 31.2323 36.6255 29.116 36.2207 26.9996C35.9509 25.5887 35.6811 24.1778 35.407 22.7669ZM31.6043 29.1668L31.7655 28.7793H31.7118C31.7855 28.394 31.9514 28.0319 32.1955 27.7238L33.0555 25.2654H33.2436L33.5258 27.0557C33.5582 27.2563 33.5896 27.4577 33.6211 27.6597C33.7072 28.2112 33.7938 28.7661 33.902 29.3137C33.9826 29.7279 33.8886 29.8882 33.4317 29.8882H32.088C31.7069 29.8882 31.5154 29.8882 31.454 29.7994C31.3919 29.7096 31.4625 29.5293 31.6043 29.1668Z" fill="#050029"/>
<path d="M28.2581 21.3775H25.4631V21.471H22.171C22.0248 21.4544 21.8768 21.4675 21.7358 21.5094C21.5948 21.5513 21.4638 21.6212 21.3508 21.7149C21.2378 21.8085 21.145 21.924 21.0781 22.0543C21.0112 22.1846 20.9716 22.3271 20.9617 22.4731L19.712 34.0035C19.6816 34.1289 19.6816 34.2597 19.712 34.3852C19.7423 34.5106 19.8022 34.6271 19.8867 34.725C20.1472 34.9232 20.4543 35.0518 20.7789 35.0986C21.1035 35.1453 21.4347 35.1087 21.741 34.9922C21.9839 34.9423 22.2016 34.8094 22.3562 34.6166C22.5108 34.4238 22.5927 34.1832 22.5876 33.9367C22.6355 33.4235 22.6918 32.9187 22.7482 32.4131C22.8342 31.6421 22.9204 30.8689 22.9772 30.062C23.0176 29.5276 23.1519 29.3806 23.7566 29.3806H25.705C25.8703 29.3747 26.0325 29.3344 26.1811 29.2622C26.3297 29.1901 26.4615 29.0878 26.5678 28.9619C26.6742 28.836 26.7528 28.6893 26.7986 28.5313C26.8444 28.3732 26.8564 28.2074 26.8337 28.0445C26.8068 27.3765 26.3634 27.1226 25.7319 27.1226H23.8372C23.3669 27.136 23.3669 26.9623 23.3669 26.5882L23.3979 26.3548C23.47 25.815 23.5433 25.2663 23.555 24.7177C23.5685 24.0897 23.8507 23.916 24.4688 23.916H28.2446C29.024 23.9027 29.4271 23.0877 29.4002 22.3395C29.3734 21.5912 29.118 21.3775 28.2581 21.3775Z" fill="#050029"/>
<path d="M50.2282 21.284H57.2425C58.0218 21.2974 58.3712 21.3108 58.4249 22.2193C58.4787 23.1278 58.0621 23.8092 57.35 23.8092C56.7233 23.8426 56.0954 23.8426 55.4688 23.8092C55.0253 23.7959 54.8506 23.9428 54.8506 24.3971C54.5371 27.4612 54.2057 30.5208 53.8563 33.576C53.7488 34.5514 53.3994 34.9121 52.2976 34.9121C51.1957 34.9121 50.8464 34.5915 50.9539 33.576C51.0118 33.005 51.0693 32.4344 51.1267 31.8641C51.3756 29.3922 51.624 26.9258 51.9079 24.4506C51.9751 23.9295 51.9079 23.836 51.3301 23.836H49.5967C49.3955 23.8546 49.1951 23.7935 49.039 23.6658C48.883 23.5382 48.784 23.3544 48.7636 23.1546C48.6612 22.9323 48.6221 22.6863 48.6505 22.4435C48.679 22.2006 48.7739 21.9702 48.925 21.7773C49.076 21.5844 49.2774 21.4364 49.5072 21.3494C49.737 21.2624 49.9864 21.2398 50.2282 21.284Z" fill="#050029"/>
<path d="M36.9788 47.3642C36.7369 46.322 36.3069 46.0281 35.1379 46.0281H10.5881C9.70126 46.0281 9.70126 46.0281 9.76845 45.1863C9.83563 44.3446 9.91626 43.5296 9.91626 42.7547C9.91626 42.1401 10.1581 41.9263 10.8434 41.9263C17.7233 41.9263 24.6031 41.9263 31.4695 41.9263H90.2975C91.265 41.9263 91.2516 41.9263 91.1575 42.8883C91.1575 43.6098 91.0231 44.3179 90.9694 45.0394C90.8888 46.0815 91.0635 46.0147 89.881 46.0147H42.4477C41.2518 46.0147 40.889 46.2819 40.5799 47.3508L36.9788 47.3642Z" fill="#2A2D43"/>
<path d="M65.6136 23.1677C65.7303 22.2323 65.7931 21.291 65.8018 20.3485C66.9842 20.1882 67.3605 19.7874 67.4277 18.5849C67.562 16.5941 67.562 16.5941 69.5507 16.5941C70.8945 16.5941 72.171 16.5941 73.4744 16.5941C73.985 16.5941 74.1463 16.6876 74.0925 17.2488C73.7969 20.1615 73.5281 23.0608 73.2997 25.9734C73.2126 26.4893 73.2446 27.0181 73.3935 27.5198C73.5423 28.0215 73.804 28.483 74.1588 28.8692C74.5136 29.2554 74.9521 29.5563 75.4411 29.7491C75.9302 29.9418 76.457 30.0214 76.9815 29.9817C80.4617 29.9817 83.9285 29.9817 87.4088 29.9817C87.6251 29.9615 87.8429 29.9977 88.0409 30.0867C88.2388 30.1757 88.41 30.3145 88.5375 30.4894C89.1959 31.3445 89.8812 32.1729 90.6606 33.1616C89.7866 33.1914 88.9352 33.4445 88.1881 33.8964C87.3783 34.3714 86.7351 35.0826 86.3457 35.9335C85.9563 36.7844 85.8395 37.7338 86.0113 38.6529C86.0919 39.174 85.9307 39.2408 85.4872 39.2408H66.1243C65.6271 39.2408 65.4793 39.0938 65.533 38.5995C65.963 34.1369 66.3796 29.6878 66.8767 25.2386C66.9305 24.0495 66.7558 23.6487 65.6136 23.1677Z" fill="#2A2D43"/>
<path d="M34.4799 13.0802L35.2055 8.75124C35.4742 7.04105 35.7698 5.33086 36.0251 3.62067C36.1057 3.07288 36.267 2.81902 36.8851 2.83238C38.8066 2.83238 40.7147 2.83238 42.6228 2.83238C43.1334 2.83238 43.2543 2.96599 43.1737 3.46034C42.6631 6.51998 42.1525 9.57962 41.6687 12.6526C41.5747 13.2405 41.3866 13.2672 40.9297 12.9198C40.4728 12.5724 39.7338 12.1048 39.1694 11.6773C38.8837 11.4334 38.5229 11.2939 38.1466 11.2818C37.7703 11.2696 37.4011 11.3856 37.1001 11.6105C36.3073 12.0915 35.4473 12.519 34.4799 13.0802Z" fill="#2A2D43"/>
<path d="M77.8686 55.2205C76.696 55.2289 75.5474 54.8904 74.5688 54.248C73.5902 53.6056 72.8258 52.6885 72.3728 51.613C72.2518 51.3592 72.1175 51.092 72.2787 50.8247C72.44 50.5575 72.7356 50.8247 72.9775 50.7446C73.4754 50.7035 73.9756 50.7886 74.4315 50.9919C74.8873 51.1951 75.2839 51.51 75.5843 51.907C76.4158 52.6517 77.5081 53.0423 78.6262 52.9948C79.7443 52.9474 80.7991 52.4656 81.5638 51.6531C81.9061 51.2997 82.3292 51.0338 82.7971 50.878C83.265 50.7221 83.7639 50.6809 84.2512 50.7579C84.6812 50.7579 84.7081 50.945 84.5065 51.279C83.9587 52.2502 83.2051 53.0914 82.2979 53.7443C81.3907 54.3972 80.3516 54.8461 79.2526 55.0601C78.8015 55.1799 78.3353 55.2339 77.8686 55.2205Z" fill="#A682FF"/>
<path d="M16.6351 50.7714C16.9293 50.7217 17.2316 50.7554 17.5074 50.8689C17.7831 50.9823 18.0211 51.1708 18.1938 51.4128C18.5929 51.9141 19.099 52.321 19.6756 52.6041C20.2521 52.8871 20.8847 53.0393 21.5277 53.0495C22.1706 53.0597 22.8078 52.9278 23.3932 52.6632C23.9785 52.3986 24.4975 52.008 24.9124 51.5196C25.7052 50.6111 26.6727 50.8115 27.5999 50.7046C28.1105 50.7046 27.7477 51.1455 27.6671 51.2925C27.0464 52.4478 26.1163 53.4096 24.9796 54.0716C24.101 54.6401 23.1055 55.0059 22.0662 55.1423C21.0269 55.2787 19.9701 55.1822 18.9732 54.8599C18.1909 54.5875 17.4754 54.1539 16.8733 53.5875C16.2712 53.0211 15.7963 52.3346 15.4795 51.5731C15.1705 50.8783 15.2645 50.7848 16.0036 50.7714H16.6351Z" fill="#A682FF"/>
<path d="M90.768 36.8628C90.768 37.4641 90.6067 38.0519 90.5933 38.6532C90.5799 39.2544 90.338 39.1743 89.9752 39.1342C89.7507 39.1247 89.5323 39.0593 89.3397 38.9442C89.1472 38.829 88.9868 38.6677 88.8732 38.475C88.7596 38.2823 88.6964 38.0643 88.6894 37.841C88.6824 37.6177 88.7318 37.3962 88.8331 37.1968C88.9651 36.8217 89.2147 36.4985 89.5452 36.2749C89.8811 36.0211 90.2977 35.7539 90.6873 35.9676C91.077 36.1814 90.6873 36.5555 90.768 36.8628Z" fill="#A682FF"/>
<path d="M21.7142 48.7404H22.9638C23.1653 48.7404 23.3534 48.7404 23.2594 49.0346C23.105 49.3361 22.8784 49.5951 22.5995 49.7886C22.3206 49.9822 21.998 50.1044 21.6604 50.1444C21.3922 50.1764 21.1205 50.1271 20.8808 50.0031C20.6411 49.8791 20.4445 49.686 20.3167 49.4491C20.0211 48.9276 20.1286 48.7538 20.7333 48.7404H21.7142Z" fill="#A682FF"/>
<path d="M78.6211 48.7402H79.5348C79.7229 48.7402 80.005 48.6333 80.1125 48.8338C80.22 49.0342 79.9782 49.3014 79.8169 49.4751C79.664 49.6875 79.4623 49.8606 79.2286 49.98C78.9949 50.0994 78.736 50.1617 78.4732 50.1617C78.2105 50.1617 77.9516 50.0994 77.7179 49.98C77.4842 49.8606 77.2825 49.6875 77.1296 49.4751C76.9952 49.2747 76.8608 49.0609 76.9683 48.8338C77.0758 48.6066 77.3446 48.7001 77.5327 48.7001C77.7208 48.7001 78.2314 48.7001 78.5673 48.7001L78.6211 48.7402Z" fill="#A682FF"/>
<path d="M93.6976 40.3097C93.5371 40.1143 93.4225 39.8858 93.3621 39.6408C93.3016 39.3958 93.2969 39.1405 93.3482 38.8935C93.4423 38.0384 93.5095 37.1833 93.617 36.3415C94.0469 32.8009 94.0335 32.8009 91.7492 30.0352C90.1636 28.138 88.6049 26.2007 87.0462 24.2767C86.3609 23.5787 85.7319 22.8281 85.1649 22.0321C84.8559 21.658 84.52 21.3106 84.2109 20.9365L79.3198 14.9374C78.6872 14.3869 77.9243 14.0053 77.1026 13.8285H75.3558H68.1535L67.9385 13.6949C67.9113 13.1752 67.952 12.6543 68.0594 12.145C68.3013 12.0782 68.3281 11.9847 68.0594 11.8511L68.1535 10.6219C68.4625 10.515 68.4625 10.368 68.1535 10.181C68.1132 9.95088 68.1412 9.7141 68.2341 9.49957C68.3595 8.19837 68.3098 6.88634 68.0863 5.5982C67.7563 4.39187 67.1306 3.2857 66.2653 2.37869C65.4 1.47168 64.3221 0.792122 63.1279 0.400826C63.1279 0.200413 63.0339 0.093526 62.8458 0.293939H62.577C62.4426 -0.0400826 62.2411 0 62.0127 0.173691H61.7305L58.089 0C56.2212 0 54.3669 0 52.5126 0H45.2027C43.99 0.0734698 42.774 0.0734698 41.5613 0C39.7607 0 37.9466 0 36.1864 0L28.7287 0.0668043C27.516 0.140274 26.3 0.140274 25.0873 0.0668043L19.8736 0.146969C19.6855 0 19.5377 0 19.4571 0.240496H19.0405C18.8658 0.0400826 18.7986 0.146969 18.7583 0.347382L18.1134 0.654682C16.5462 1.21483 15.1694 2.20241 14.1404 3.50436C13.1114 4.80631 12.4719 6.37002 12.295 8.01652C12.1204 9.2858 11.9994 10.5818 11.8651 11.8644C11.895 11.9602 11.9032 12.0614 11.8893 12.1607C11.8754 12.26 11.8396 12.355 11.7844 12.439V13.254C11.7844 14.5901 11.5829 15.9261 11.3948 17.3558C11.4329 17.5628 11.4096 17.7763 11.3276 17.9704C11.3663 18.0123 11.3878 18.0671 11.3878 18.124C11.3878 18.1809 11.3663 18.2358 11.3276 18.2777V19.2396C11.3777 19.4795 11.3446 19.7291 11.2335 19.9478L11.1394 21.1903C11.1649 21.2615 11.1721 21.3379 11.1603 21.4126C11.1486 21.4872 11.1183 21.5578 11.0723 21.6179C10.8573 24.771 10.5213 27.9242 10.1988 31.0774C9.91666 32.5337 9.91666 34.0168 9.59417 35.4865L9.3523 38.8667C9.3523 39.1874 9.12387 39.2809 8.882 39.3878C8.44529 39.5872 8.07033 39.8994 7.79619 40.2918C7.52204 40.6842 7.35874 41.1426 7.32329 41.6191C7.20235 42.9552 7.06798 44.3848 6.94704 45.761C6.86776 46.0779 6.8535 46.4075 6.90512 46.7301C6.95675 47.0526 7.07319 47.3615 7.24751 47.6384C7.42183 47.9152 7.65045 48.1543 7.91973 48.3413C8.18901 48.5284 8.49343 48.6596 8.81481 48.7271C9.74198 48.7271 10.6691 48.7271 11.5963 48.7271C12.1204 48.7271 12.3354 48.874 12.1607 49.4085C12.2144 49.6325 12.2144 49.8659 12.1607 50.0899C11.9322 50.2769 11.9322 50.4239 12.2279 50.5174L12.3219 51.1988C12.0801 51.3725 12.1876 51.4527 12.4025 51.4928C12.7261 52.6564 13.2803 53.7439 14.0325 54.6915C14.7848 55.6391 15.72 56.4277 16.7831 57.0108C17.6808 57.3997 18.6117 57.7082 19.5646 57.9327H19.6318C22.3189 58.2366 25.021 57.5039 27.1809 55.8856C29.3409 54.2674 30.7943 51.8869 31.2415 49.2348C31.2415 48.8206 31.5102 48.7271 31.9133 48.7404C33.0331 48.7404 34.1484 48.7404 35.2592 48.7404C35.4595 48.7747 35.6649 48.7663 35.8617 48.7159C36.0586 48.6655 36.2424 48.5741 36.4011 48.4478C36.5598 48.3216 36.6898 48.1633 36.7825 47.9834C36.8752 47.8036 36.9285 47.6062 36.9389 47.4043C36.697 46.3622 36.267 46.0683 35.098 46.0683H10.5885C9.70167 46.0683 9.70167 46.0683 9.76885 45.2265C9.83604 44.3848 9.91666 43.5297 9.91666 42.7548C9.91666 42.1402 10.1585 41.9264 10.8438 41.9264C17.7237 41.9264 24.6035 41.9264 31.4699 41.9264H90.298C91.2654 41.9264 91.252 41.9264 91.1579 42.8884C91.1579 43.6099 91.0236 44.318 90.9698 45.0395C90.8892 46.0816 91.0639 46.0148 89.8814 46.0148H42.4481C41.2522 46.0148 40.8894 46.282 40.5803 47.3509C40.6153 47.6594 40.7411 47.9507 40.9419 48.1884C41.1426 48.426 41.4095 48.5995 41.7091 48.687H58.1293C61.5424 48.687 64.9688 48.687 68.3953 48.687C68.5969 48.687 68.9866 48.4331 69.0269 48.9275L69.1613 50.7446C68.9463 50.8915 69.0269 50.9717 69.1613 51.0251V51.4393C68.9463 51.6264 69.0806 51.6798 69.2687 51.7199L69.6584 52.8556C69.5509 53.0693 69.6584 53.203 69.86 53.2564C69.922 53.2996 69.9719 53.3579 70.0048 53.4258C70.0377 53.4936 70.0526 53.5687 70.0481 53.6439L71.7412 55.7148L72.3593 56.1557C73.3109 56.8659 74.3946 57.3816 75.5478 57.6729C76.701 57.9641 77.9008 58.0252 79.0779 57.8525C80.802 57.5857 82.4424 56.9323 83.875 55.9419L85.9577 53.9512C87.0346 52.5449 87.7496 50.8983 88.0405 49.1546C88.0405 48.7404 88.2958 48.6736 88.6452 48.6736C89.3708 48.6736 90.0964 48.6736 90.8086 48.6736C91.466 48.7183 92.1149 48.5058 92.6169 48.0815C93.119 47.6572 93.4345 47.0546 93.496 46.4023C93.7244 44.799 93.8185 43.1689 93.9797 41.5656C94.0468 41.1267 93.9461 40.6786 93.6976 40.3097ZM20.6664 48.7404H22.9642C23.1657 48.7404 23.3539 48.7404 23.2598 49.0344C23.1054 49.3356 22.8787 49.5944 22.5999 49.7878C22.321 49.9812 21.9984 50.1033 21.6608 50.1433C21.3925 50.1753 21.1208 50.126 20.8811 50.0021C20.6414 49.8782 20.4448 49.6853 20.3171 49.4486C19.9542 48.9275 20.0617 48.7538 20.6664 48.7404ZM15.9634 50.7713H16.6353C16.9294 50.7215 17.2318 50.7553 17.5075 50.8687C17.7832 50.9822 18.0212 51.1707 18.194 51.4126C18.593 51.9139 19.0991 52.3208 19.6757 52.6039C20.2523 52.887 20.8849 53.0391 21.5278 53.0493C22.1707 53.0596 22.8079 52.9276 23.3933 52.663C23.9787 52.3985 24.4976 52.0079 24.9126 51.5195C25.7054 50.611 26.6728 50.8114 27.6 50.7045C28.1106 50.7045 27.7478 51.1454 27.6672 51.2924C27.0465 52.4476 26.1164 53.4095 24.9798 54.0714C24.1011 54.6399 23.1057 55.0058 22.0664 55.1422C21.0271 55.2786 19.9702 55.1821 18.9733 54.8597C18.1911 54.5873 17.4755 54.1538 16.8734 53.5874C16.2714 53.021 15.7964 52.3345 15.4797 51.5729C15.1303 50.8648 15.2915 50.7713 15.9634 50.7713ZM76.7936 17.5428C76.7804 17.4857 76.7804 17.4263 76.7936 17.3691C76.7804 17.4263 76.7804 17.4857 76.7936 17.5428ZM76.6323 19.1595C76.626 19.0973 76.626 19.0346 76.6323 18.9724C76.626 19.0346 76.626 19.0973 76.6323 19.1595ZM76.4845 20.8296C76.4845 20.8296 76.4845 20.7494 76.4845 20.7093C76.4845 20.6693 76.498 20.7895 76.4845 20.8296ZM76.0545 25.9334C76.1889 24.3435 76.3636 22.7535 76.5248 21.1636C76.7801 20.9632 76.7264 20.7361 76.5248 20.5089L76.592 19.6271C76.8742 19.3733 76.7801 19.066 76.6995 18.7587V17.7967C76.7406 17.7719 76.7757 17.7382 76.802 17.6982C76.8284 17.6582 76.8454 17.6128 76.8518 17.5654C76.8583 17.5181 76.854 17.4698 76.8392 17.4243C76.8245 17.3788 76.7997 17.3371 76.7667 17.3023L76.8473 16.808H77.0758V16.7144C77.0758 16.7144 76.9683 16.6343 76.8876 16.7144C76.9683 16.5808 77.022 16.5942 77.0758 16.7144V16.808C78.7554 18.8255 80.4485 20.8162 82.1147 22.8471L85.5546 27.0157C85.4203 27.2428 85.2321 27.1626 85.0843 27.1626C82.3969 27.1626 79.7094 27.1626 77.1161 27.1626C76.162 27.2027 75.9605 27.0023 76.0545 25.9334ZM35.2055 8.75137C35.4742 7.04117 35.7698 5.33098 36.0251 3.62079C36.1058 3.073 36.267 2.81914 36.8851 2.8325C38.8066 2.8325 40.7147 2.8325 42.6228 2.8325C43.1334 2.8325 43.2543 2.96611 43.1737 3.46046C42.6631 6.5201 42.1525 9.57974 41.6688 12.6527C41.5747 13.2406 41.3866 13.2673 40.9297 12.92C40.4728 12.5726 39.7338 12.1049 39.1694 11.6774C38.8837 11.4336 38.5229 11.294 38.1466 11.2819C37.7703 11.2697 37.4011 11.3857 37.1001 11.6106C36.3073 12.0782 35.4876 12.5058 34.4799 13.0669L35.2055 8.75137ZM86.0115 38.5728C86.0921 39.0939 85.9309 39.1607 85.4874 39.1607H66.1244C65.6273 39.1607 65.4795 39.0137 65.5332 38.5194C65.9632 34.0568 66.3797 29.6077 66.8769 25.1585C66.9979 23.9694 66.8769 23.6354 65.681 23.1544C64.512 23.3815 64.2567 23.6354 64.1492 24.8378C63.7192 29.2737 63.3026 33.6961 62.8861 38.1987C62.792 39.2008 62.8055 39.2008 61.7842 39.2008H13.0207C12.0935 39.2008 12.0801 39.2008 12.1607 38.3056C12.7385 32.1863 13.3431 26.0804 13.9209 19.9611C14.2569 16.4472 14.6062 12.9467 14.875 9.43277C14.8741 8.23328 15.198 7.05568 15.8128 6.02362C16.4275 4.99156 17.3104 4.1431 18.3687 3.56735C19.1691 3.1348 20.0645 2.90533 20.9755 2.89931C24.8991 2.89931 28.8228 2.89931 32.733 2.89931C33.2839 2.89931 33.3377 3.09972 33.2571 3.56735C32.6658 7.05454 32.1015 10.5551 31.5237 14.0556L31.3624 15.0176C31.2815 15.3234 31.2974 15.6467 31.408 15.9432C31.5186 16.2397 31.7186 16.495 31.9805 16.6744C32.25 16.863 32.5715 16.9642 32.901 16.9642C33.2305 16.9642 33.552 16.863 33.8214 16.6744C35.0173 16.0063 36.2267 15.3383 37.4092 14.6569C37.5731 14.5149 37.7831 14.4368 38.0004 14.4368C38.2177 14.4368 38.4277 14.5149 38.5916 14.6569C39.4247 15.2848 40.2982 15.846 41.1581 16.4472C41.3998 16.6749 41.7027 16.8279 42.0301 16.8877C42.3575 16.9476 42.6953 16.9117 43.0026 16.7844C43.3099 16.6571 43.5734 16.4438 43.7612 16.1705C43.949 15.8973 44.053 15.5756 44.0606 15.2447C44.5712 12.1717 45.0684 9.11211 45.5655 6.03911C45.6999 5.15729 45.8612 4.26212 45.9821 3.36694C45.9788 3.28703 45.9936 3.20742 46.0254 3.13397C46.0572 3.06051 46.1052 2.99509 46.1658 2.94252C46.2264 2.88995 46.2981 2.85157 46.3756 2.83022C46.4531 2.80887 46.5345 2.80508 46.6136 2.81914C51.4242 2.81914 56.2212 2.81914 61.0317 2.81914C61.692 2.81541 62.3455 2.95238 62.9481 3.22084C63.5507 3.4893 64.0884 3.88301 64.5251 4.37547C64.9618 4.86793 65.2874 5.44771 65.4798 6.07577C65.6722 6.70384 65.7271 7.3656 65.6407 8.01652C65.466 10.4749 65.1973 12.92 64.9688 15.365C64.8748 16.4205 64.7404 17.4894 64.6732 18.5449C64.606 19.6004 64.7807 19.9478 65.802 20.4154C66.9844 20.2551 67.3607 19.8542 67.4278 18.6518C67.5622 16.661 67.5622 16.661 69.5509 16.661C70.8946 16.661 72.1712 16.661 73.4746 16.661C73.9852 16.661 74.1464 16.7545 74.0927 17.3157C73.7971 20.2283 73.5283 23.1277 73.2999 26.0403C73.2127 26.5562 73.2448 27.085 73.3936 27.5867C73.5425 28.0884 73.8042 28.5498 74.159 28.9361C74.5138 29.3223 74.9523 29.6232 75.4413 29.8159C75.9304 30.0087 76.4571 30.0882 76.9817 30.0486C80.4619 30.0486 83.9287 30.0486 87.409 30.0486C87.6253 30.0284 87.8431 30.0645 88.041 30.1536C88.239 30.2426 88.4102 30.3814 88.5377 30.5563C89.1961 31.4114 89.8814 32.2398 90.6608 33.2285C89.7868 33.2583 88.9353 33.5114 88.1883 33.9633C87.4051 34.4288 86.7796 35.1162 86.3918 35.9374C86.0039 36.7587 85.8715 37.6763 86.0115 38.5728ZM90.7683 36.8626C90.7683 37.4639 90.607 38.0517 90.5936 38.653C90.5801 39.2542 90.3383 39.174 89.9755 39.134C89.751 39.1245 89.5325 39.0591 89.34 38.944C89.1475 38.8288 88.9871 38.6675 88.8734 38.4748C88.7598 38.2821 88.6966 38.0641 88.6896 37.8408C88.6826 37.6175 88.732 37.396 88.8333 37.1966C88.9654 36.8215 89.215 36.4983 89.5455 36.2747C89.8814 36.0209 90.298 35.7537 90.6876 35.9674C91.0773 36.1812 90.6876 36.5553 90.7683 36.8626ZM77.022 48.8874C77.1429 48.6469 77.3982 48.7538 77.5864 48.7538C77.7745 48.7538 78.2851 48.7538 78.621 48.7538H79.5348C79.7229 48.7538 80.0051 48.6469 80.1126 48.8473C80.2201 49.0477 79.9782 49.3149 79.8169 49.4886C79.664 49.701 79.4623 49.8741 79.2286 49.9935C78.9949 50.1129 78.736 50.1752 78.4732 50.1752C78.2105 50.1752 77.9515 50.1129 77.7179 49.9935C77.4842 49.8741 77.2825 49.701 77.1295 49.4886C77.1026 49.3283 76.9145 49.1145 77.022 48.8874ZM84.5065 51.279C83.9587 52.2502 83.2051 53.0914 82.2979 53.7442C81.3907 54.3971 80.3516 54.8461 79.2526 55.0601C78.8145 55.1761 78.3621 55.2301 77.9089 55.2204C76.7363 55.2288 75.5877 54.8903 74.6091 54.248C73.6305 53.6056 72.8661 52.6884 72.413 51.613C72.2921 51.3592 72.1577 51.0919 72.319 50.8247C72.4802 50.5575 72.7759 50.8247 73.0177 50.7446C73.5156 50.7035 74.0159 50.7886 74.4717 50.9918C74.9276 51.1951 75.3242 51.51 75.6245 51.9069C76.4561 52.6517 77.5483 53.0423 78.6665 52.9948C79.7846 52.9473 80.8394 52.4656 81.6041 51.6531C81.9464 51.2997 82.3695 51.0338 82.8374 50.8779C83.3053 50.7221 83.8042 50.6809 84.2915 50.7579C84.6812 50.7713 84.7081 50.945 84.5065 51.279Z" fill="#050029"/>
<path d="M33.176 25.2656L33.4582 27.056C33.4853 27.2238 33.5117 27.3922 33.5382 27.5612C33.63 28.1457 33.7227 28.7365 33.8478 29.3273C33.9285 29.7415 33.8344 29.9019 33.3775 29.9019H32.0338C31.6527 29.9019 31.4612 29.9019 31.3998 29.813C31.3377 29.7232 31.4083 29.5429 31.5501 29.1804C31.5672 29.1378 31.5884 29.0966 31.6094 29.0559C31.6542 28.9688 31.6979 28.8839 31.6979 28.7929C31.7614 28.4098 31.9081 28.045 32.1279 27.724L32.9879 25.2656H33.176Z" fill="#A682FF"/>
<path fill-rule="evenodd" clip-rule="evenodd" d="M64.8449 16.3979C64.759 17.092 64.6728 17.7878 64.6728 18.4779C64.5922 19.6136 64.7803 19.8808 65.8015 20.3217C65.7929 21.2642 65.73 22.2055 65.6134 23.1409C64.4444 23.368 64.1891 23.6219 64.0816 24.8243C63.6516 29.2601 63.235 33.6826 62.8185 38.1184C62.7714 38.62 62.7512 38.8705 62.6148 38.9956C62.4786 39.1205 62.2267 39.1205 61.7166 39.1205H13.0202C12.0931 39.1205 12.0796 39.1205 12.1603 38.2253C12.4492 35.1656 12.7448 32.1093 13.0404 29.053C13.336 25.9967 13.6316 22.9405 13.9205 19.8808C13.9717 19.3455 14.0232 18.8104 14.0747 18.2756C14.361 15.2999 14.6468 12.331 14.8746 9.35246C14.8789 8.14757 15.211 6.96628 15.8355 5.93371C16.46 4.90115 17.3537 4.05574 18.422 3.48704C19.2224 3.05448 20.1178 2.82502 21.0288 2.81899H32.7864C33.3104 2.81899 33.391 3.01941 33.3104 3.48704C32.9061 5.87177 32.5143 8.26275 32.1223 10.6557C31.941 11.762 31.7597 12.8686 31.577 13.9753L31.4158 14.9373C31.2987 15.2468 31.2852 15.5855 31.3772 15.9032C31.4691 16.221 31.6617 16.5007 31.9264 16.7009C32.1958 16.8895 32.5173 16.9908 32.8468 16.9908C33.1763 16.9908 33.4978 16.8895 33.7673 16.7009C34.2579 16.4214 34.7507 16.1486 35.2431 15.8761C35.9509 15.4843 36.6576 15.0932 37.355 14.6834C37.5189 14.5415 37.7289 14.4633 37.9462 14.4633C38.1636 14.4633 38.3736 14.5415 38.5375 14.6834C39.0847 15.0959 39.6493 15.4796 40.2161 15.8647C40.5122 16.0659 40.8089 16.2675 41.104 16.4738C41.3456 16.7014 41.6485 16.8545 41.9759 16.9143C42.3033 16.9742 42.6411 16.9382 42.9484 16.8109C43.2557 16.6836 43.5192 16.4704 43.707 16.1971C43.8948 15.9238 43.9988 15.6022 44.0064 15.2713C44.517 12.1983 45.0142 9.13868 45.5114 6.06568C45.5624 5.73074 45.6173 5.39387 45.6724 5.0558C45.7624 4.50383 45.8529 3.94867 45.9279 3.39351C45.9247 3.31361 45.9395 3.23399 45.9713 3.16054C46.0031 3.08708 46.051 3.02166 46.1116 2.96909C46.1722 2.91652 46.2439 2.87815 46.3215 2.85679C46.399 2.83544 46.4803 2.83165 46.5595 2.84571H60.9776C61.6334 2.83603 62.2839 2.96524 62.8856 3.22478C63.4874 3.48431 64.0267 3.86821 64.4678 4.35098C64.9088 4.83374 65.2414 5.40431 65.4436 6.02477C65.6458 6.64522 65.7128 7.30136 65.6403 7.94956C65.5175 9.67754 65.3483 11.3989 65.1792 13.1183C65.1077 13.8451 65.0363 14.5716 64.9684 15.298C64.9359 15.6634 64.8904 16.0304 64.8449 16.3979ZM23.7566 29.3937H25.7049C25.8615 29.3869 26.0151 29.3492 26.1568 29.2829C26.2986 29.2165 26.4257 29.1228 26.5307 29.0072C26.6357 28.8916 26.7166 28.7564 26.7686 28.6094C26.8206 28.4625 26.8427 28.3067 26.8337 28.1512C26.8068 27.4831 26.3634 27.2293 25.7318 27.2293H23.8372C23.3669 27.2426 23.3669 27.069 23.3669 26.6949C23.3771 26.6172 23.3875 26.5394 23.3979 26.4614C23.47 25.9217 23.5433 25.373 23.555 24.8243C23.5684 24.1964 23.8506 24.0227 24.4687 24.0227H28.2446C29.0239 24.0093 29.4271 23.1943 29.4002 22.4461C29.3733 21.6979 29.118 21.4841 28.258 21.4841H22.171C22.0248 21.4675 21.8767 21.4806 21.7357 21.5225C21.5948 21.5644 21.4638 21.6343 21.3508 21.728C21.2377 21.8216 21.145 21.9371 21.0781 22.0674C21.0112 22.1978 20.9716 22.3402 20.9616 22.4862L19.712 34.0166C19.6816 34.142 19.6816 34.2728 19.7119 34.3983C19.7423 34.5237 19.8022 34.6402 19.8866 34.7381C20.1471 34.9363 20.4542 35.0649 20.7788 35.1117C21.1034 35.1584 21.4346 35.1218 21.741 35.0053C21.9839 34.9554 22.2015 34.8225 22.3562 34.6297C22.5108 34.4369 22.5927 34.1964 22.5875 33.9498C22.6354 33.4365 22.6917 32.9316 22.7482 32.426C22.8342 31.6549 22.9204 30.8821 22.9772 30.0752C23.0175 29.5407 23.1519 29.3937 23.7566 29.3937ZM35.9124 35.1007C36.2497 35.0632 36.5711 34.9381 36.8444 34.7381L36.7906 34.6178C37.003 34.5282 37.1812 34.3738 37.2996 34.1768C37.4179 33.9799 37.4703 33.7507 37.4491 33.5223C37.0298 31.4059 36.6251 29.2895 36.2204 27.1732C35.9505 25.7623 35.6807 24.3514 35.4066 22.9405C35.1782 21.7781 34.7347 21.444 33.1088 21.444C32.7322 21.4524 32.3675 21.5763 32.0644 21.7987C31.7613 22.0211 31.5348 22.3312 31.4158 22.6866C30.7317 24.371 30.0386 26.0615 29.3436 27.7565C28.5777 29.6245 27.8095 31.4981 27.0487 33.3753C26.6993 34.2304 26.7396 34.5911 27.7743 34.992C28.8089 35.3928 29.3599 35.1256 29.763 34.0567C30.4483 32.2663 30.4483 32.2663 32.3564 32.2663C32.5502 32.2705 32.7626 32.2392 32.9752 32.2079C33.4405 32.1393 33.9071 32.0706 34.1838 32.3732C34.4672 32.6832 34.4983 33.1385 34.5291 33.5905C34.5421 33.7814 34.555 33.9717 34.5869 34.1502C34.5974 34.2077 34.6049 34.2672 34.6123 34.3269C34.643 34.5728 34.6742 34.8229 34.9229 34.9519C35.2339 35.0869 35.5751 35.1383 35.9124 35.1007ZM46.3825 24.5514C46.5594 24.5632 46.7364 24.5282 46.8954 24.4502V24.33C47.1467 24.162 47.3529 23.9353 47.4957 23.6698C47.6386 23.4043 47.7139 23.108 47.7151 22.8068C47.7198 22.5496 47.6396 22.2979 47.4867 22.0904C47.3338 21.8828 47.1166 21.7309 46.8685 21.6578C46.0792 21.3591 45.2407 21.2096 44.3961 21.2169C43.7208 21.2199 43.0484 21.3051 42.3939 21.4708C41.8464 21.5926 41.3291 21.8229 40.873 22.1478C40.4169 22.4727 40.0312 22.8856 39.739 23.3619C39.4468 23.8382 39.2541 24.3682 39.1723 24.9201C39.0906 25.4721 39.1214 26.0348 39.2631 26.5746C39.3998 27.0562 39.6383 27.5031 39.9627 27.8856C40.2871 28.2681 40.69 28.5773 41.1443 28.7925C42.0325 29.197 42.8825 29.6799 43.6839 30.2355C43.8912 30.3595 44.0563 30.5425 44.1579 30.7608C44.2595 30.9791 44.293 31.2226 44.2539 31.46C44.2148 31.6974 44.1051 31.9177 43.9388 32.0924C43.7725 32.2671 43.5573 32.3882 43.3211 32.44C42.8158 32.6297 42.2648 32.6635 41.7399 32.5372C41.215 32.4109 40.7405 32.1303 40.3784 31.7319C39.5587 30.9169 38.7525 31.0772 38.215 32.1194C38.1093 32.3017 38.0427 32.5037 38.0194 32.7129C37.9961 32.9221 38.0167 33.1337 38.0799 33.3346C38.143 33.5355 38.2473 33.7211 38.3862 33.8799C38.5251 34.0387 38.6955 34.1671 38.8868 34.2571C39.6397 34.7511 40.4981 35.0639 41.3937 35.1706C42.2894 35.2773 43.1978 35.1749 44.0467 34.8717C44.8198 34.6729 45.5183 34.2553 46.0574 33.6695C46.5964 33.0837 46.9529 32.3549 47.0835 31.5716C47.3184 30.7655 47.2738 29.9043 46.957 29.1264C46.6401 28.3485 46.0695 27.6992 45.3367 27.2827C44.8599 26.9897 44.3608 26.7411 43.8645 26.4939C43.5915 26.358 43.3194 26.2225 43.0524 26.0803C42.5283 25.813 42.0043 25.5325 42.0849 24.811C42.1655 24.0895 42.8508 23.8891 43.5092 23.7955C44.3453 23.7282 45.1806 23.9346 45.8876 24.3834C46.0348 24.4817 46.2055 24.5397 46.3825 24.5514ZM55.3474 23.9425C55.974 23.9759 56.602 23.9759 57.2286 23.9425V23.8223C57.9408 23.7822 58.3842 22.9672 58.3573 22.2457C58.3305 21.5242 58.0751 21.2971 57.2958 21.2971H50.2278C49.9621 21.1996 49.6722 21.1882 49.3995 21.2643C49.1268 21.3405 48.8853 21.5004 48.7095 21.7211C48.5337 21.9419 48.4325 22.2123 48.4204 22.4936C48.4083 22.775 48.486 23.053 48.6422 23.2878C48.6626 23.4877 48.7616 23.6715 48.9177 23.7991C49.0737 23.9267 49.2742 23.9879 49.4753 23.9692C49.6679 23.9692 49.871 23.9722 50.074 23.9752C50.4801 23.9811 50.8862 23.9871 51.2087 23.9692C51.6925 23.9425 51.7865 24.0628 51.7865 24.5838C51.5027 27.0587 51.2544 29.5248 51.0054 31.9963C50.948 32.567 50.8905 33.1379 50.8325 33.7093C50.8325 34.6846 51.155 35.0454 52.1762 35.0454C53.1974 35.0454 53.6274 34.7114 53.7349 33.7093C54.0843 30.6452 54.4158 27.5856 54.7293 24.5304C54.7696 24.0761 54.904 23.9425 55.3474 23.9425Z" fill="#A682FF"/>
<path d="M10.1589 72.0531C9.78862 71.6509 9.32911 71.342 8.81764 71.1513C8.1452 70.8988 7.42911 70.7844 6.7118 70.8148H4.19016C3.99569 70.8201 3.80147 70.7974 3.6134 70.7475C3.52448 70.7199 3.44226 70.674 3.37196 70.6129C3.33569 70.5744 3.30822 70.5285 3.29149 70.4783C3.27845 70.3845 3.27845 70.2894 3.29149 70.1956C3.27802 70.0253 3.33091 69.8564 3.43903 69.7245C3.61262 69.6078 3.82131 69.5554 4.0292 69.5764H9.55535C9.73322 69.5764 9.9038 69.5055 10.0296 69.3793C10.1553 69.2531 10.226 69.0819 10.226 68.9034V66.9921C10.226 66.8136 10.1553 66.6424 10.0296 66.5162C9.9038 66.39 9.73322 66.3191 9.55535 66.3191H4.0292C3.42688 66.3056 2.82708 66.4013 2.25869 66.6018C1.7568 66.7664 1.29835 67.0424 0.917386 67.4094C0.579073 67.7719 0.322845 68.2035 0.166259 68.6746C0.036199 69.1476 -0.0181306 69.6382 0.00530333 70.1283C-0.000878861 70.583 0.0578397 71.0363 0.179672 71.4743C0.300919 71.9727 0.540176 72.4345 0.877147 72.8203C1.24509 73.2252 1.70532 73.5347 2.21845 73.7221C2.86757 73.9557 3.55452 74.0653 4.24381 74.0452H6.77886C6.98331 74.0343 7.18799 74.0617 7.38245 74.1259C7.48662 74.1524 7.58312 74.2031 7.66412 74.274C7.71461 74.314 7.74815 74.3717 7.75801 74.4355C7.77826 74.5332 7.77826 74.634 7.75801 74.7316C7.7666 74.8244 7.7555 74.918 7.72544 75.0061C7.69539 75.0943 7.64706 75.1751 7.58364 75.2431C7.39295 75.3795 7.15938 75.4417 6.9264 75.4181H0.863734C0.685867 75.4181 0.515285 75.489 0.389514 75.6152C0.263743 75.7414 0.193085 75.9126 0.193085 76.0911V77.8948C0.193085 78.0733 0.263743 78.2444 0.389514 78.3707C0.515285 78.4969 0.685867 78.5678 0.863734 78.5678H6.9264C7.54184 78.5809 8.15478 78.4852 8.73716 78.2851C9.24008 78.1161 9.69855 77.8354 10.0785 77.464C10.4386 77.0822 10.705 76.6213 10.8564 76.118C11.0102 75.6398 11.0872 75.14 11.0844 74.6374C11.0804 74.1834 11.0218 73.7314 10.9101 73.2914C10.7604 72.825 10.503 72.4007 10.1589 72.0531Z" fill="#050029"/>
<path d="M18.2337 68.7013H15.8864C15.3601 68.6694 14.8331 68.7528 14.3421 68.9457C13.851 69.1386 13.4077 69.4364 13.0429 69.8185C12.3455 70.734 12.0024 71.8721 12.0771 73.022V81.3268C12.0806 81.5043 12.1523 81.6734 12.2774 81.7989C12.4024 81.9244 12.571 81.9964 12.7478 81.9998H14.4512C14.6291 81.9998 14.7997 81.9289 14.9254 81.8027C15.0512 81.6765 15.1219 81.5053 15.1219 81.3268V78.6348H18.2203C18.8244 78.6651 19.4278 78.5628 19.9884 78.3349C20.549 78.1071 21.0533 77.7593 21.4662 77.3157C22.2345 76.2456 22.648 74.9601 22.648 73.6411C22.648 72.3222 22.2345 71.0366 21.4662 69.9665C21.05 69.5345 20.5457 69.1977 19.9877 68.9794C19.4298 68.761 18.8315 68.6661 18.2337 68.7013ZM19.1592 75.2025C19.0145 75.3417 18.8407 75.4466 18.6503 75.5095C18.46 75.5723 18.2581 75.5916 18.0593 75.5659H15.1353V73.1027C15.0883 72.7016 15.1832 72.2966 15.4035 71.9586C15.6822 71.7436 16.0338 71.6469 16.3827 71.6894H18.0593C18.2591 71.6654 18.4616 71.6869 18.652 71.7521C18.8424 71.8173 19.0157 71.9247 19.1592 72.0663C19.3888 72.5569 19.5079 73.0923 19.5079 73.6344C19.5079 74.1765 19.3888 74.7119 19.1592 75.2025Z" fill="#050029"/>
<path d="M32.5588 74.2879C32.8553 73.9859 33.0859 73.6254 33.236 73.2291C33.3861 72.8329 33.4524 72.4096 33.4306 71.9862C33.4534 71.5486 33.3879 71.1108 33.2381 70.6991C33.0883 70.2874 32.8572 69.9103 32.5588 69.5903C32.1938 69.2695 31.7682 69.0255 31.3074 68.8729C30.8465 68.7202 30.3598 68.6621 29.8762 68.702H27.1399C26.5966 68.686 26.0551 68.7727 25.5438 68.9577C25.1002 69.1114 24.6999 69.3699 24.3769 69.7115C24.0549 70.033 23.8195 70.4313 23.6928 70.869C23.564 71.3059 23.5007 71.7595 23.505 72.2151V75.1224C23.5007 75.578 23.564 76.0316 23.6928 76.4684C23.8275 76.9027 24.0618 77.2992 24.3769 77.626C24.7034 77.9633 25.1026 78.2212 25.5438 78.3798C26.0577 78.5532 26.5979 78.6352 27.1399 78.6221H32.3308C32.5086 78.6221 32.6792 78.5512 32.805 78.4249C32.9307 78.2987 33.0014 78.1276 33.0014 77.9491V76.2396C33.0014 76.0611 32.9307 75.89 32.805 75.7637C32.6792 75.6375 32.5086 75.5666 32.3308 75.5666H27.1399C26.9629 75.5874 26.7839 75.5496 26.6302 75.4589C26.588 75.4143 26.5554 75.3614 26.5346 75.3034C26.5139 75.2455 26.5053 75.1839 26.5095 75.1224H29.8762C30.8452 75.2116 31.8099 74.9115 32.5588 74.2879ZM26.4961 72.4304V72.2016C26.4881 72.0548 26.536 71.9104 26.6302 71.7978C26.7855 71.7114 26.9631 71.6739 27.1399 71.6901H29.8225C29.9763 71.6742 30.1311 71.7072 30.2652 71.7843C30.3016 71.8237 30.329 71.8706 30.3452 71.9218C30.3615 71.973 30.3662 72.0272 30.359 72.0805C30.359 72.2689 30.359 72.3227 30.2786 72.3497C30.1191 72.4225 29.9429 72.4504 29.7689 72.4304H26.4961Z" fill="#050029"/>
<path d="M43.4498 74.2873C43.7367 73.9808 43.9574 73.6182 44.0982 73.2221C44.239 72.8261 44.2968 72.4051 44.268 71.9856C44.2908 71.5479 44.2253 71.1101 44.0755 70.6985C43.9257 70.2868 43.6946 69.9097 43.3962 69.5897C43.032 69.2675 42.6065 69.0227 42.1455 68.87C41.6844 68.7173 41.1973 68.6599 40.7136 68.7013H38.031C37.4878 68.6875 36.9467 68.7742 36.4348 68.9571C35.9928 69.114 35.5932 69.372 35.2679 69.7108C34.956 70.0379 34.7261 70.4346 34.5973 70.8684C34.4572 71.303 34.3893 71.7577 34.3961 72.2144V75.1218C34.3893 75.5785 34.4572 76.0332 34.5973 76.4678C34.7324 76.8989 34.9615 77.2943 35.2679 77.6254C35.5968 77.9598 35.9953 78.2172 36.4348 78.3792C36.9493 78.5505 37.4891 78.6324 38.031 78.6214H43.2352C43.4131 78.6214 43.5837 78.5505 43.7094 78.4243C43.8352 78.2981 43.9059 78.1269 43.9059 77.9484V76.239C43.9059 76.0605 43.8352 75.8893 43.7094 75.7631C43.5837 75.6369 43.4131 75.566 43.2352 75.566H38.031C37.8539 75.5868 37.675 75.549 37.5213 75.4583C37.4466 75.3617 37.4044 75.244 37.4006 75.1218H40.7672C41.2471 75.1675 41.7313 75.1172 42.1917 74.974C42.6522 74.8307 43.0798 74.5973 43.4498 74.2873ZM37.4006 72.4298V72.201C37.3936 72.128 37.4019 72.0544 37.425 71.9848C37.4481 71.9153 37.4855 71.8513 37.5347 71.7972C37.6849 71.7102 37.8584 71.6726 38.031 71.6895H40.7136C40.8673 71.6736 41.0221 71.7065 41.1562 71.7837C41.1927 71.823 41.22 71.87 41.2363 71.9212C41.2525 71.9724 41.2572 72.0266 41.2501 72.0798C41.2501 72.2683 41.2501 72.3221 41.1696 72.349C41.0148 72.4214 40.843 72.4493 40.6733 72.4298H37.4006Z" fill="#050029"/>
<path d="M54.9045 65H53.1742C52.9963 65 52.8258 65.0709 52.7 65.1971C52.5742 65.3233 52.5036 65.4945 52.5036 65.673V68.7015H49.432C48.8422 68.674 48.2532 68.7712 47.7032 68.9868C47.1533 69.2025 46.6546 69.5318 46.2397 69.9533C45.3945 70.9874 44.9768 72.3074 45.0728 73.6414C44.9776 74.9711 45.3953 76.2867 46.2397 77.316C46.6546 77.7375 47.1533 78.0668 47.7032 78.2825C48.2532 78.4981 48.8422 78.5953 49.432 78.5678H51.7793C52.3033 78.5968 52.8274 78.512 53.3159 78.3192C53.8043 78.1264 54.2455 77.8301 54.6094 77.4506C55.3067 76.5351 55.6498 75.397 55.5751 74.2471V65.673C55.5751 65.4945 55.5045 65.3233 55.3787 65.1971C55.2529 65.0709 55.0824 65 54.9045 65ZM52.5036 74.1663C52.5391 74.5607 52.4499 74.9563 52.2487 75.297C51.9736 75.5086 51.6275 75.605 51.283 75.5662H49.6332C49.4326 75.5884 49.2295 75.5674 49.0375 75.5048C48.8456 75.4421 48.6691 75.3392 48.5199 75.2028C48.2384 74.7338 48.1161 74.186 48.1712 73.6414C48.1087 73.0903 48.2365 72.5344 48.5333 72.0665C48.6768 71.925 48.8501 71.8176 49.0405 71.7524C49.2309 71.6871 49.4334 71.6657 49.6332 71.6897H52.5438L52.5036 74.1663Z" fill="#050029"/>
<path d="M67.1772 68.9976C67.1151 68.9053 67.0311 68.8299 66.9328 68.7782C66.8345 68.7265 66.7249 68.7002 66.6139 68.7014H64.8031C64.6726 68.7027 64.5452 68.7413 64.4359 68.8129C64.3265 68.8844 64.2399 68.9859 64.1861 69.1052L61.6243 75.0411L59.2368 69.1187C59.188 68.9947 59.1029 68.8885 58.9928 68.814C58.8826 68.7395 58.7526 68.7003 58.6198 68.7014H56.809C56.7001 68.7012 56.5928 68.7281 56.4968 68.7798C56.4008 68.8315 56.3191 68.9063 56.2591 68.9976C56.2097 69.0932 56.1839 69.1994 56.1839 69.3071C56.1839 69.4149 56.2097 69.521 56.2591 69.6167L59.0221 76.7775C59.1624 77.2205 59.4337 77.6102 59.8001 77.8947C59.943 78.0074 60.1073 78.0899 60.283 78.137L59.0221 81.0578C58.9693 81.1548 58.9416 81.2636 58.9416 81.3741C58.9416 81.4846 58.9693 81.5934 59.0221 81.6904C59.0827 81.7852 59.1661 81.8632 59.2645 81.9173C59.3629 81.9714 59.4733 81.9998 59.5855 82H61.4231C61.5536 81.9988 61.681 81.9601 61.7904 81.8886C61.8997 81.817 61.9863 81.7156 62.0401 81.5962L67.1504 69.6436C67.2074 69.5464 67.2397 69.4367 67.2444 69.324C67.2491 69.2113 67.226 69.0992 67.1772 68.9976Z" fill="#050029"/>
<path d="M73.3746 66.992C74.0428 66.9462 74.7132 67.0424 75.3419 67.2744C75.9705 67.5063 76.5434 67.8687 77.0229 68.338C77.9593 69.5154 78.4062 71.0104 78.2703 72.5106C78.3702 73.9655 77.9253 75.4055 77.0229 76.5486C76.5438 77.0186 75.9711 77.3815 75.3423 77.6134C74.7135 77.8454 74.0429 77.9413 73.3746 77.8946H69.5519C69.431 77.9123 69.3076 77.9016 69.1915 77.8634C69.0754 77.8252 68.9697 77.7606 68.8826 77.6745C68.7956 77.5885 68.7296 77.4834 68.6898 77.3674C68.65 77.2515 68.6375 77.1279 68.6532 77.0063V67.8803C68.6375 67.7587 68.65 67.6351 68.6898 67.5192C68.7296 67.4033 68.7956 67.2981 68.8826 67.2121C68.9697 67.126 69.0754 67.0614 69.1915 67.0232C69.3076 66.985 69.431 66.9743 69.5519 66.992H73.3746ZM70.5445 75.7949C70.5445 75.9295 70.5445 75.9968 70.7591 75.9968H73.4417C73.8479 76.0332 74.2572 75.9811 74.6415 75.844C75.0258 75.707 75.376 75.4882 75.6682 75.2026C76.1288 74.3807 76.3708 73.4536 76.3708 72.5106C76.3708 71.5676 76.1288 70.6405 75.6682 69.8186C75.3721 69.5166 75.0125 69.285 74.6156 69.1406C74.2188 68.9962 73.7947 68.9427 73.3746 68.9841H70.692C70.5445 68.9841 70.4774 68.9841 70.4774 69.1725L70.5445 75.7949Z" fill="#A682FF"/>
<path d="M86.5861 69.3744V71.0166H83.5951C83.4465 70.9961 83.2951 71.0106 83.1531 71.0591C83.011 71.1075 82.8821 71.1885 82.7767 71.2956C82.6713 71.4027 82.5921 71.533 82.5456 71.6762C82.4991 71.8193 82.4865 71.9714 82.5087 72.1203V77.8947H80.8053V71.8646C80.7497 71.1897 80.9351 70.517 81.3284 69.9667C81.5724 69.7383 81.8636 69.5669 82.1812 69.4645C82.4988 69.3621 82.8351 69.3314 83.1659 69.3744H86.5861Z" fill="#A682FF"/>
<path d="M93.7349 69.3749C94.2302 69.3532 94.7246 69.4354 95.1865 69.6162C95.6483 69.7969 96.0676 70.0723 96.4175 70.4247C97.1438 71.3315 97.4987 72.4818 97.4101 73.6417C97.5007 74.7977 97.1454 75.9446 96.4175 76.8452C96.0676 77.1976 95.6483 77.473 95.1865 77.6538C94.7246 77.8345 94.2302 77.9167 93.7349 77.8951H91.951C91.4554 77.9193 90.9604 77.8382 90.4981 77.6573C90.0359 77.4764 89.6168 77.1997 89.2684 76.8452C88.6213 75.9006 88.2749 74.7813 88.2749 73.635C88.2749 72.4887 88.6213 71.3694 89.2684 70.4247C89.6168 70.0703 90.0359 69.7935 90.4981 69.6126C90.9604 69.4317 91.4554 69.3507 91.951 69.3749H93.7349ZM92.112 71.017C91.8143 70.9891 91.5142 71.0305 91.2351 71.1379C90.9559 71.2452 90.7052 71.4158 90.5024 71.6362C90.1606 72.2538 89.9813 72.9487 89.9813 73.6552C89.9813 74.3617 90.1606 75.0565 90.5024 75.6742C90.7083 75.8897 90.9599 76.0561 91.2385 76.1609C91.5171 76.2658 91.8156 76.3064 92.112 76.2799H93.574C93.8821 76.3088 94.1928 76.2655 94.4814 76.1533C94.77 76.0412 95.0287 75.8634 95.2372 75.6338C95.5789 75.0161 95.7583 74.3213 95.7583 73.6148C95.7583 72.9083 95.5789 72.2134 95.2372 71.5958C95.0323 71.3743 94.7793 71.2032 94.4978 71.0958C94.2163 70.9884 93.914 70.9476 93.6142 70.9766L92.112 71.017Z" fill="#A682FF"/>
<path d="M105.311 69.3749C105.807 69.3499 106.302 69.4305 106.764 69.6114C107.227 69.7924 107.646 70.0696 107.994 70.4248C108.72 71.3315 109.075 72.4818 108.986 73.6417C109.077 74.7978 108.721 75.9446 107.994 76.8452C107.646 77.2004 107.227 77.4776 106.764 77.6585C106.302 77.8395 105.807 77.9201 105.311 77.8951H101.542V81.3274H99.8384V73.0226C99.7562 72.0406 100.027 71.0616 100.603 70.2632C100.904 69.953 101.268 69.7127 101.672 69.5592C102.075 69.4057 102.507 69.3428 102.937 69.3749H105.311ZM101.542 76.2395H105.137C105.433 76.2661 105.731 76.2254 106.01 76.1206C106.289 76.0157 106.54 75.8494 106.746 75.6338C107.088 75.0161 107.267 74.3213 107.267 73.6148C107.267 72.9083 107.088 72.2135 106.746 71.5958C106.543 71.3754 106.293 71.2049 106.013 71.0975C105.734 70.9901 105.434 70.9487 105.137 70.9766H103.46C103.194 70.948 102.925 70.9765 102.67 71.06C102.416 71.1435 102.182 71.2803 101.985 71.4612C101.648 71.9234 101.491 72.4928 101.542 73.0629V76.2395Z" fill="#A682FF"/>
</svg>
