<svg width="88" height="88" viewBox="0 0 88 88" fill="none" xmlns="http://www.w3.org/2000/svg">
<path d="M23.5094 38.9834C23.5094 38.6227 23.3721 38.2784 23.1228 38.0146L23.061 37.9489L22.9725 37.9321C22.9307 37.9242 22.8894 37.9145 22.8492 37.9018L22.4883 37.7891V40.4474L22.9309 40.1221C23.293 39.8555 23.5094 39.4298 23.5094 38.9834Z" fill="#D0C8D0"/>
<path d="M6.95907 40.1617L7.39047 40.4479V37.7947L7.02352 37.9191C6.9668 37.9384 6.9051 37.9533 6.8403 37.9636L6.74079 37.9794L6.67444 38.0554C6.44929 38.3137 6.3252 38.6432 6.3252 38.9835C6.3252 39.4579 6.56204 39.8984 6.95907 40.1617Z" fill="#D0C8D0"/>
<path d="M43.4658 71.7555C43.1994 71.7555 42.9306 71.739 42.6442 71.7051L42.3335 71.6681V73.0392L44.0557 74.7165L45.8578 72.8457V71.668L45.547 71.7047C45.2607 71.7388 44.9919 71.7551 44.7256 71.7551H43.4658V71.7555Z" fill="#D0C8D0"/>
<path d="M14.3099 45.3479H15.5697C18.159 45.3479 20.2655 43.2414 20.2655 40.6521V36.511L20.106 36.4359C19.0851 35.9555 18.2295 35.1344 17.5631 33.9949L17.3973 33.7117L17.1453 33.9217C14.7202 35.9428 11.5408 36.551 9.86161 36.7337L9.61377 36.7607V40.6521C9.61377 43.2414 11.7204 45.3479 14.3099 45.3479Z" fill="#D0C8D0"/>
<path d="M43.4658 23.3864C43.1994 23.3864 42.9306 23.3699 42.6442 23.3359L42.3335 23.2991V24.6701L44.0557 26.3474L45.8578 24.4769V23.2991L45.547 23.3359C45.2607 23.3699 44.9919 23.3864 44.7256 23.3864H43.4658Z" fill="#D0C8D0"/>
<path d="M14.3096 47.571C14.0432 47.571 13.7743 47.5545 13.488 47.5207L13.1772 47.4839V48.8549L14.8994 50.5323L16.7014 48.6614V47.4839L16.3906 47.5207C16.1043 47.5547 15.8355 47.571 15.5691 47.571H14.3096Z" fill="#D0C8D0"/>
<path d="M52.6656 63.1675C52.6656 62.8067 52.5283 62.4625 52.2791 62.1986L52.2172 62.133L52.1287 62.1161C52.0868 62.1082 52.0457 62.0986 52.0055 62.0859L51.6445 61.9731V64.6315L52.0871 64.3062C52.4494 64.0399 52.6656 63.6142 52.6656 63.1675Z" fill="#D0C8D0"/>
<path d="M43.4657 21.1633H44.7255C47.3146 21.1633 49.4213 19.0569 49.4213 16.4676V12.3267L49.2618 12.2516C48.2408 11.7712 47.3853 10.9501 46.7189 9.81059L46.553 9.52734L46.3011 9.73737C43.8778 11.7571 40.6974 12.365 39.0174 12.5475L38.7695 12.5745V16.4678C38.7697 19.0569 40.8764 21.1633 43.4657 21.1633Z" fill="#D0C8D0"/>
<path d="M52.6656 14.7991C52.6656 14.4383 52.5285 14.0942 52.2793 13.8302L52.2174 13.7644L52.1287 13.7477C52.0866 13.7398 52.0455 13.73 52.0055 13.7175L51.6445 13.6047V16.2631L52.0871 15.9378C52.4494 15.6712 52.6656 15.2456 52.6656 14.7991Z" fill="#D0C8D0"/>
<path d="M72.6222 45.3479H73.8821C76.4714 45.3479 78.5779 43.2414 78.5779 40.6521V36.511L78.4184 36.4359C77.3974 35.9555 76.5418 35.1344 75.8755 33.9949L75.7098 33.7117L75.4578 33.9217C73.0325 35.9428 69.8533 36.5509 68.1741 36.7337L67.9263 36.7607V40.6521C67.9261 43.2414 70.0328 45.3479 72.6222 45.3479Z" fill="#D0C8D0"/>
<path d="M72.6216 47.571C72.3552 47.571 72.0864 47.5545 71.8 47.5207L71.4893 47.4839V48.8549L73.2114 50.5323L75.0135 48.6614V47.4839L74.7028 47.5207C74.4165 47.5547 74.1476 47.571 73.8814 47.571H72.6216Z" fill="#D0C8D0"/>
<path d="M65.2716 40.1617L65.703 40.4479V37.7947L65.336 37.9191C65.2793 37.9384 65.2176 37.9533 65.1528 37.9636L65.0533 37.9794L64.9869 38.0554C64.7618 38.3137 64.6377 38.6432 64.6377 38.9835C64.6377 39.4579 64.8747 39.8984 65.2716 40.1617Z" fill="#D0C8D0"/>
<path d="M81.8214 38.9834C81.8214 38.6227 81.6841 38.2784 81.4349 38.0146L81.373 37.9489L81.2845 37.9321C81.2425 37.9242 81.2014 37.9145 81.1612 37.9018L80.8003 37.7891V40.4474L81.2429 40.1221C81.605 39.8555 81.8214 39.4298 81.8214 38.9834Z" fill="#D0C8D0"/>
<path d="M36.115 15.9774L36.5464 16.2636V13.6104L36.1793 13.7348C36.1226 13.754 36.0609 13.769 35.9961 13.7793L35.8966 13.7951L35.8304 13.8711C35.6051 14.1291 35.481 14.4587 35.481 14.7992C35.481 15.2736 35.718 15.7141 36.115 15.9774Z" fill="#D0C8D0"/>
<path d="M43.4657 69.5325H44.7255C47.3146 69.5325 49.4213 67.426 49.4213 64.8367V60.6956L49.2618 60.6205C48.2408 60.1401 47.3853 59.319 46.7189 58.1795L46.553 57.8962L46.3011 58.1063C43.8778 60.1258 40.6974 60.7339 39.0174 60.9164L38.7695 60.9434V64.8367C38.7697 67.426 40.8764 69.5325 43.4657 69.5325Z" fill="#D0C8D0"/>
<path d="M11.4664 40.6522V36.7608L11.7143 36.7338C13.1707 36.5757 15.7555 36.0953 17.9985 34.6519C17.8464 34.4453 17.7 34.2287 17.5631 33.9952L17.3973 33.7119L17.1453 33.9219C14.7202 35.943 11.5408 36.5513 9.86161 36.734L9.61377 36.761V40.6524C9.61377 43.2417 11.7203 45.3482 14.3097 45.3482H15.5696C15.6693 45.3482 15.7677 45.3441 15.8661 45.3379C13.4143 45.184 11.4664 43.1418 11.4664 40.6522Z" fill="#D0C8D0"/>
<path d="M40.6227 16.4676V12.5745L40.8705 12.5475C42.3277 12.3894 44.913 11.9094 47.1548 10.4673C47.0025 10.2607 46.8562 10.0442 46.7194 9.81059L46.5535 9.52734L46.3016 9.73737C43.8783 11.7571 40.6979 12.365 39.0179 12.5475L38.77 12.5745V16.4678C38.77 19.0571 40.8765 21.1634 43.466 21.1634H44.7258C44.8255 21.1634 44.924 21.1591 45.0223 21.1531C42.5703 20.9993 40.6227 18.9572 40.6227 16.4676Z" fill="#D0C8D0"/>
<path d="M69.7787 40.6522V36.7608L70.0266 36.7338C71.4832 36.5753 74.0679 36.0953 76.3108 34.6519C76.1587 34.4453 76.0123 34.2287 75.8755 33.9952L75.7098 33.7119L75.4578 33.9219C73.0325 35.943 69.8533 36.5511 68.1741 36.734L67.9263 36.761V40.6524C67.9263 43.2417 70.0328 45.3482 72.6222 45.3482H73.8821C73.9817 45.3482 74.0802 45.3441 74.1785 45.3379C71.7266 45.184 69.7787 43.1418 69.7787 40.6522Z" fill="#D0C8D0"/>
<path d="M40.6227 64.8365V60.9432L40.8705 60.9163C42.3277 60.758 44.913 60.2779 47.1548 58.8361C47.0025 58.6296 46.8562 58.4129 46.7194 58.1795L46.5535 57.8962L46.3016 58.1063C43.8783 60.1258 40.6979 60.7339 39.0179 60.9164L38.77 60.9434V64.8367C38.77 67.426 40.8765 69.5325 43.466 69.5325H44.7258C44.8255 69.5325 44.924 69.5284 45.0223 69.5222C42.5703 69.3685 40.6227 67.3263 40.6227 64.8365Z" fill="#D0C8D0"/>
<path d="M36.1155 64.3463L36.5469 64.6325V61.9792L36.1798 62.1037C36.1231 62.1229 36.0614 62.1379 35.9966 62.1482L35.897 62.164L35.8307 62.24C35.6055 62.498 35.4814 62.8278 35.4814 63.1681C35.4814 63.6427 35.7185 64.0832 36.1155 64.3463Z" fill="#D0C8D0"/>
<path d="M23.7922 52.4688C23.767 52.4604 23.7536 52.4552 23.7288 52.4452L18.5358 50.3628L15.9254 53.0724C15.6687 53.3388 15.3166 53.4918 14.9469 53.4976C14.9395 53.4978 14.9323 53.4978 14.9249 53.4978C14.5631 53.4978 14.2152 53.3567 13.9557 53.1037L11.1909 50.4113L5.98619 52.4494C5.96505 52.4578 5.94374 52.4655 5.92208 52.4727C5.80538 52.5145 2.7998 53.6289 2.7998 57.4734V62.5167H3.63769H4.77275H7.55162H10.5926H19.1329H22.174H24.9529H25.5442H26.9259V57.4734C26.9259 53.6289 23.9203 52.5143 23.7922 52.4688Z" fill="#D0C8D0"/>
<path d="M82.1047 52.4688C82.0795 52.4604 82.0661 52.4552 82.0413 52.4452L76.8483 50.3628L74.2379 53.0724C73.9812 53.3388 73.6291 53.4918 73.2594 53.4976C73.252 53.4978 73.2448 53.4978 73.2374 53.4978C72.8756 53.4978 72.5277 53.3567 72.2682 53.1037L69.5034 50.4113L64.2985 52.4494C64.2774 52.4578 64.2561 52.4655 64.2344 52.4727C64.1177 52.5145 61.1123 53.6289 61.1123 57.4734V60.6883V62.702H63.0852H65.8641H68.9051H77.4454H80.4865H83.2654H84.7336H85.2385V57.4734C85.2384 53.6289 82.2326 52.5143 82.1047 52.4688Z" fill="#D0C8D0"/>
<path d="M52.8674 76.6531C52.8422 76.6447 52.8288 76.6395 52.804 76.6296L47.611 74.5471L45.0006 77.2567C44.744 77.5231 44.3918 77.6761 44.0221 77.6819C44.0147 77.6821 44.0075 77.6821 44.0001 77.6821C43.6383 77.6821 43.2904 77.541 43.0309 77.288L40.2661 74.5956L35.0614 76.634C35.0402 76.6424 35.0189 76.6502 34.9973 76.6574C34.8806 76.6992 31.875 77.8136 31.875 81.6581V86.7014H32.908H33.848H36.6268H39.6678H48.2081H51.2492H54.0281H54.6293H56.0011V81.6581C56.0011 77.8133 52.9955 76.6986 52.8674 76.6531Z" fill="#D0C8D0"/>
<path d="M15.2553 26.6875H14.5946C10.8368 26.6875 7.7793 29.745 7.7793 33.5032V34.7732L8.14264 34.6561L8.1722 34.6451C8.182 34.642 8.1918 34.64 8.20159 34.6376L8.25178 34.6248C8.2602 34.6224 8.26828 34.62 8.27859 34.618C8.30094 34.6135 8.3238 34.6106 8.35456 34.6065L8.38945 34.6011C8.42658 34.5972 8.46405 34.5955 8.50667 34.5955C8.56425 34.5955 14.2946 34.5542 16.8761 30.9861C17.1281 30.6377 17.576 30.4624 17.9991 30.5488C18.4264 30.6363 18.7642 30.9674 18.8613 31.3965C18.8884 31.5086 19.5534 34.1522 21.6276 34.6243L21.6807 34.6386C21.6903 34.641 21.6998 34.6429 21.7089 34.6458L22.0702 34.7594V33.5034C22.0707 29.7446 19.0132 26.6875 15.2553 26.6875Z" fill="#D0C8D0"/>
<path d="M44.4116 2.50293H43.7509C39.993 2.50293 36.9355 5.56041 36.9355 9.31845V10.5886L37.2989 10.4716L37.3285 10.4606C37.3382 10.4575 37.348 10.4554 37.3578 10.453L37.4082 10.4403C37.4165 10.4379 37.4247 10.4355 37.4348 10.4334C37.4572 10.4289 37.48 10.426 37.5108 10.4221L37.5457 10.4167C37.5828 10.4128 37.6203 10.4111 37.6629 10.4111C37.7203 10.4111 43.4508 10.3698 46.0322 6.80169C46.2843 6.45278 46.7309 6.27609 47.1554 6.36427C47.5827 6.45175 47.9204 6.78278 48.0175 7.21195C48.045 7.32419 48.7097 9.96796 50.784 10.4399L50.8371 10.4542C50.8467 10.4566 50.8562 10.4585 50.8653 10.4614L51.2266 10.575V9.31879C51.2269 5.56041 48.1694 2.50293 44.4116 2.50293Z" fill="#D0C8D0"/>
<path d="M73.5678 26.6875H72.9072C69.1493 26.6875 66.0918 29.745 66.0918 33.5032V34.7732L66.4551 34.6561L66.4847 34.6451C66.4945 34.642 66.5045 34.64 66.5141 34.6376L66.5643 34.6248C66.5727 34.6224 66.5808 34.62 66.5911 34.618C66.6129 34.6135 66.6356 34.6108 66.6671 34.6065L66.7021 34.6011C66.7393 34.5972 66.7767 34.5955 66.8193 34.5955C66.8767 34.5955 72.6072 34.5542 75.1888 30.9861C75.4406 30.6377 75.8894 30.4627 76.312 30.5488C76.7393 30.6363 77.0772 30.9674 77.1741 31.3965C77.2013 31.5086 77.8663 34.1522 79.9406 34.6243L79.9937 34.6386C80.0033 34.641 80.0128 34.6429 80.0219 34.6458L80.3832 34.7594V33.5034C80.3832 29.7446 77.3257 26.6875 73.5678 26.6875Z" fill="#D0C8D0"/>
<path d="M44.4116 50.8716H43.7509C39.993 50.8716 36.9355 53.9291 36.9355 57.6873V58.9573L37.2989 58.8402L37.3285 58.8292C37.3382 58.8261 37.348 58.8241 37.3578 58.8216L37.4082 58.8089C37.4165 58.8065 37.4247 58.8041 37.4348 58.8021C37.4572 58.7976 37.48 58.7947 37.5108 58.7905L37.5457 58.7852C37.5828 58.7813 37.6203 58.7795 37.6629 58.7795C37.7203 58.7795 43.4508 58.7383 46.0324 55.1702C46.2843 54.8218 46.7307 54.6447 47.1556 54.7329C47.5828 54.8204 47.9207 55.1514 48.0177 55.5806C48.0452 55.6927 48.7098 58.3363 50.784 58.8084L50.8371 58.8227C50.8467 58.8251 50.8562 58.827 50.8653 58.8299L51.2266 58.9435V57.6874C51.2269 53.9291 48.1694 50.8716 44.4116 50.8716Z" fill="#D0C8D0"/>
<path d="M52.8843 28.2879C52.8592 28.2793 52.8343 28.2704 52.8101 28.2604L47.6167 26.178L45.0064 28.8876C44.7498 29.154 44.3976 29.3071 44.0279 29.313C44.0205 29.3131 44.0133 29.3131 44.0059 29.3131C43.6441 29.3131 43.2963 29.1719 43.0366 28.919L40.272 26.2263L35.0671 28.2647C35.0461 28.2731 35.0246 28.2809 35.0031 28.2881C34.8864 28.3298 31.8809 29.4445 31.8809 33.2888V38.3323H32.8H33.8538H36.6327H39.6737H48.2139H51.2551H54.034H54.7839H56.0069V33.2888C56.0068 29.3826 52.9158 28.2986 52.8843 28.2879Z" fill="#D0C8D0"/>
<path d="M36.2998 28.288C36.3212 28.2807 36.3426 28.273 36.3637 28.2646L40.6439 26.5885L40.272 26.2263L35.0671 28.2648C35.0461 28.2732 35.0246 28.2809 35.0031 28.2881C34.8864 28.3299 31.8809 29.4445 31.8809 33.2888V36.8504H33.1777V33.2888C33.1775 29.4443 36.1831 28.3297 36.2998 28.288Z" fill="#D0C8D0"/>
<path d="M65.5314 52.4725C65.5529 52.4653 65.5743 52.4576 65.5953 52.4492L69.8752 50.773L69.5032 50.4109L64.2983 52.4493C64.2774 52.4577 64.2559 52.4655 64.2344 52.4727C64.1177 52.5145 61.1123 53.6291 61.1123 57.4734V61.035H62.4091V57.4732C62.4091 53.6289 65.4147 52.5141 65.5314 52.4725Z" fill="#D0C8D0"/>
<path d="M36.2939 76.6571C36.3154 76.6499 36.3367 76.6421 36.3578 76.6337L40.638 74.9576L40.2661 74.5955L35.0612 76.6339C35.0402 76.6423 35.0188 76.65 34.9973 76.6573C34.8806 76.699 31.875 77.8136 31.875 81.658V85.2195H33.1718V81.6578C33.1718 77.8133 36.1774 76.6987 36.2939 76.6571Z" fill="#D0C8D0"/>
<path d="M7.2187 52.4725C7.24019 52.4653 7.2615 52.4576 7.28264 52.4492L11.5628 50.773L11.1909 50.4109L5.98602 52.4493C5.96505 52.4577 5.94356 52.4655 5.92208 52.4727C5.80538 52.5145 2.7998 53.6291 2.7998 57.4734V61.035H4.0966V57.4732C4.0966 53.6289 7.102 52.5141 7.2187 52.4725Z" fill="#D0C8D0"/>
<path d="M9.07577 33.5032C9.07577 29.8517 11.9622 26.8621 15.573 26.6956C15.4676 26.6908 15.3616 26.6875 15.2548 26.6875H14.5942C10.8363 26.6875 7.77881 29.745 7.77881 33.5032V34.7732L8.14215 34.6561L8.17171 34.6451C8.18151 34.642 8.19131 34.64 8.2011 34.6376L8.25129 34.6248C8.25971 34.6224 8.26779 34.62 8.2781 34.618C8.30045 34.6135 8.32331 34.6106 8.35407 34.6065L8.38896 34.6011C8.42609 34.5972 8.46356 34.5955 8.50618 34.5955C8.51701 34.5955 8.72601 34.5939 9.07526 34.5685V33.5034H9.07577V33.5032Z" fill="#D0C8D0"/>
<path d="M38.2315 9.31845C38.2315 5.66714 41.118 2.67755 44.7288 2.51101C44.6234 2.5062 44.5174 2.50293 44.4106 2.50293H43.7499C39.9921 2.50293 36.9346 5.56041 36.9346 9.31845V10.5886L37.2979 10.4716L37.3275 10.4606C37.3373 10.4575 37.3471 10.4554 37.3569 10.453L37.4072 10.4403C37.4155 10.4379 37.4237 10.4355 37.4339 10.4334C37.4562 10.4289 37.4791 10.426 37.5098 10.4221L37.5447 10.4167C37.5819 10.4128 37.6193 10.4111 37.6619 10.4111C37.6728 10.4111 37.8816 10.4095 38.231 10.3841V9.31862H38.2315V9.31845Z" fill="#D0C8D0"/>
<path d="M67.3883 33.5032C67.3883 29.8517 70.2747 26.8621 73.8855 26.6956C73.7801 26.6908 73.6741 26.6875 73.5673 26.6875H72.9067C69.1488 26.6875 66.0913 29.745 66.0913 33.5032V34.7732L66.4546 34.6561L66.4842 34.6451C66.494 34.642 66.504 34.64 66.5136 34.6376L66.5638 34.6248C66.5722 34.6224 66.5803 34.62 66.5906 34.618C66.6124 34.6135 66.6351 34.6108 66.6666 34.6065L66.7016 34.6011C66.7388 34.5972 66.7762 34.5955 66.8189 34.5955C66.8297 34.5955 67.0385 34.5939 67.3879 34.5685L67.3883 33.5032Z" fill="#D0C8D0"/>
<path d="M38.2315 57.6873C38.2315 54.0358 41.118 51.0462 44.7288 50.8797C44.6234 50.8749 44.5174 50.8716 44.4106 50.8716H43.7499C39.9921 50.8716 36.9346 53.9291 36.9346 57.6873V58.9573L37.2979 58.8402L37.3275 58.8292C37.3373 58.8261 37.3471 58.8241 37.3569 58.8216L37.4072 58.8089C37.4155 58.8065 37.4237 58.8041 37.4339 58.8021C37.4562 58.7976 37.4791 58.7947 37.5098 58.7905L37.5447 58.7852C37.5819 58.7813 37.6193 58.7795 37.6619 58.7795C37.6728 58.7795 37.8816 58.778 38.231 58.7526V57.6874H38.2315V57.6873Z" fill="#D0C8D0"/>
<path d="M36.5447 18.6981C37.0952 20.3809 38.2502 21.7918 39.7524 22.6744V23.4416L34.0687 25.6671C33.5446 25.8565 29.0967 27.6314 29.0967 33.2866V38.2364C29.0967 39.0037 29.7185 39.6269 30.4861 39.6269H34.0162C34.7838 39.6269 35.4057 39.0049 35.4057 38.2375C35.4057 37.4702 34.7838 36.848 34.0162 36.848H31.8754V33.2865C31.8754 29.4421 34.881 28.3274 34.9975 28.2856C35.019 28.2784 35.0404 28.2706 35.0614 28.2622L40.2663 26.2238L43.0307 28.9162C43.2904 29.169 43.6383 29.3105 44.0001 29.3105C44.0075 29.3105 44.0147 29.3105 44.0221 29.3103C44.3918 29.3043 44.7442 29.1513 45.0006 28.8851L47.6108 26.1755L52.8042 28.2579C52.8286 28.2677 52.8537 28.2768 52.8785 28.2854C52.9097 28.2959 56.0007 29.3801 56.0007 33.2861V36.8477H48.2078H39.6675H38.4305C37.6629 36.8477 37.0411 37.4697 37.0411 38.2371C37.0411 39.0044 37.6629 39.6266 38.4305 39.6266H39.6675H48.2078H57.3902C58.1578 39.6266 58.7796 38.9949 58.7796 38.2275V33.2865C58.7796 27.6533 54.3659 25.8699 53.8135 25.6691L48.2777 23.4494V22.6739C49.7804 21.7911 50.9358 20.3794 51.4859 18.6953C53.4972 18.5338 55.0855 16.8487 55.0855 14.7967C55.0855 13.5766 54.524 12.4855 53.6464 11.7671V9.31612C53.6466 4.1793 49.4671 0 44.3303 0H43.6696C38.5326 0 34.3533 4.17931 34.3533 9.31647V11.7566C33.4676 12.475 32.8996 13.5704 32.8996 14.7972C32.9001 16.8645 34.5121 18.5585 36.5447 18.6981ZM51.8419 13.981C51.8923 13.9968 51.944 14.009 51.9966 14.019C52.1886 14.2226 52.3073 14.4959 52.3073 14.7972C52.3073 15.1726 52.1236 15.5048 51.8419 15.7118V13.981ZM45.4995 24.3629L43.969 25.9517L42.5311 24.5511V23.6101C42.8116 23.6434 43.096 23.6625 43.3853 23.6625H44.6452C44.9344 23.6625 45.219 23.6434 45.4994 23.6101V24.3629H45.4995ZM49.0632 16.4659C49.0632 18.9019 47.0813 20.8836 44.6453 20.8836H43.3855C40.9493 20.8836 38.9673 18.9017 38.9673 16.4659V12.822C40.7666 12.6266 43.9451 11.9941 46.3988 9.94931C46.949 10.8903 47.7984 11.9063 49.0632 12.5013V16.4659ZM37.1325 9.31647C37.1325 5.71157 40.0652 2.77887 43.6699 2.77887H44.3306C47.9354 2.77887 50.868 5.71157 50.868 9.31647V10.1941C50.8445 10.1867 50.8201 10.1815 50.796 10.1753C50.7842 10.1724 50.7728 10.1681 50.7608 10.1655C48.8404 9.72862 48.2117 7.16322 48.2071 7.14397C48.0866 6.6115 47.6653 6.199 47.1305 6.08969C46.5954 5.97986 46.0461 6.19402 45.7262 6.6366C43.2268 10.092 37.6519 10.131 37.5823 10.131C37.5808 10.131 37.5794 10.131 37.5778 10.131C37.5301 10.131 37.4828 10.1334 37.436 10.1382C37.4226 10.1396 37.4101 10.1425 37.397 10.144C37.3639 10.1483 37.3307 10.1526 37.2985 10.159C37.281 10.1624 37.2643 10.1681 37.2468 10.1722C37.2196 10.1789 37.1921 10.1848 37.1657 10.1932C37.1543 10.1966 37.1439 10.2013 37.1327 10.2052V9.31647H37.1325ZM35.9595 14.0518C36.0382 14.0394 36.1147 14.021 36.1884 13.9961V15.7439C35.8816 15.5402 35.6788 15.1922 35.6788 14.7972C35.6788 14.5119 35.7854 14.2515 35.9595 14.0518Z" fill="#050029"/>
<path d="M56.7853 4.82104C65.767 7.76474 73.5355 13.7859 78.6598 21.7753C78.9253 22.189 79.3732 22.4148 79.8306 22.4148C80.0875 22.4148 80.3472 22.3437 80.5795 22.1948C81.2254 21.7806 81.413 20.9212 80.999 20.2752C75.5303 11.749 67.2384 5.32274 57.6507 2.18053C56.92 1.94093 56.1366 2.33917 55.8976 3.06809C55.6587 3.79735 56.056 4.58196 56.7853 4.82104Z" fill="#050029"/>
<path d="M7.29689 22.1951C7.5291 22.3441 7.7888 22.4151 8.04575 22.4151C8.50311 22.4151 8.95136 22.1892 9.21656 21.7755C14.4001 13.6934 22.2698 7.63968 31.3752 4.72898C32.1061 4.4954 32.5094 3.71337 32.2754 2.98239C32.0417 2.25123 31.2593 1.84819 30.529 2.08211C20.809 5.18909 12.4091 11.6504 6.877 20.2752C6.46313 20.9213 6.65082 21.7808 7.29689 22.1951Z" fill="#050029"/>
<path d="M26.7428 81.4702C19.5571 78.1671 13.4966 72.8938 9.21643 66.2206C8.80204 65.5747 7.94198 65.3868 7.29676 65.801C6.65086 66.2153 6.463 67.0748 6.87721 67.7207C11.4448 74.8423 17.9129 80.4695 25.5822 83.9952C25.7704 84.0816 25.9675 84.1227 26.1617 84.1227C26.6878 84.1227 27.1911 83.8224 27.425 83.3133C27.7455 82.6159 27.4401 81.7909 26.7428 81.4702Z" fill="#050029"/>
<path d="M80.5795 65.8011C79.9341 65.387 79.0742 65.5744 78.6598 66.2206C74.441 72.7984 68.4788 78.0256 61.4179 81.3371C60.7232 81.663 60.4241 82.4904 60.75 83.1851C60.9862 83.6892 61.4868 83.9849 62.0088 83.9849C62.2063 83.9849 62.407 83.9424 62.598 83.853C70.1342 80.3188 76.4971 74.7404 80.9994 67.7209C81.4134 67.0748 81.2257 66.2154 80.5795 65.8011Z" fill="#050029"/>
<path d="M29.6856 62.4125V57.4715C29.6856 51.8385 25.2725 50.0554 24.7194 49.8542L19.1837 47.6342V46.8589C20.6864 45.976 21.8417 44.5642 22.3919 42.8802C24.4032 42.7186 25.9915 41.0336 25.9915 38.9815C25.9915 37.7614 25.43 36.6705 24.5524 35.9521V33.501C24.5524 28.3638 20.3731 24.1843 15.2361 24.1843H14.5754C9.43822 24.1843 5.25908 28.3638 5.25908 33.501V35.9411C4.37341 36.6593 3.80537 37.7549 3.80537 38.9815C3.80537 41.0488 5.41738 42.7428 7.4498 42.8824C8.00031 44.5654 9.15531 45.9763 10.6575 46.8587V47.6256L4.97394 49.8521C4.44869 50.0417 0.00195312 51.817 0.00195312 57.4717V62.4211C0.00195312 63.1887 0.623796 63.8118 1.39139 63.8118H4.92152C5.68911 63.8118 6.31096 63.1899 6.31096 62.4223C6.31096 61.6547 5.68911 61.0329 4.92152 61.0329H2.78065V57.4715C2.78065 53.6268 5.78622 52.5124 5.90275 52.4708C5.92424 52.4636 5.94572 52.4558 5.96686 52.4474L11.1716 50.409L13.9362 53.1014C14.1957 53.3542 14.5436 53.4955 14.9054 53.4955C14.9128 53.4955 14.92 53.4955 14.9274 53.4953C15.2971 53.4895 15.6493 53.3363 15.9059 53.0701L18.5163 50.3605L23.7093 52.4429C23.7339 52.4529 23.7475 52.4581 23.7727 52.4665C23.9006 52.512 26.9064 53.6268 26.9064 57.4713V61.0327H19.1134H10.5733H9.33629C8.5687 61.0327 7.94686 61.6546 7.94686 62.4222C7.94686 63.1897 8.5687 63.8116 9.33629 63.8116H10.5733H19.1136H28.296C29.0634 63.8116 29.6856 63.1798 29.6856 62.4125ZM22.7472 38.1655C22.7973 38.1813 22.8493 38.1935 22.9017 38.2035C23.0938 38.4071 23.2124 38.6804 23.2124 38.9817C23.2124 39.3571 23.0287 39.6893 22.747 39.8963V38.1655H22.7472ZM7.09367 39.9284C6.78688 39.7247 6.58406 39.3767 6.58406 38.9817C6.58406 38.6964 6.69063 38.436 6.86491 38.2363C6.94346 38.2239 7.01994 38.2055 7.09367 38.1806V39.9284ZM8.48758 34.3151C8.48603 34.3151 8.48466 34.3151 8.48311 34.3151C8.43533 34.3151 8.38806 34.3175 8.34131 34.3224C8.3298 34.3234 8.31897 34.3261 8.30762 34.3275C8.27256 34.332 8.23784 34.3365 8.20364 34.3435C8.1868 34.3469 8.17064 34.3523 8.15397 34.3562C8.12595 34.3631 8.09794 34.3691 8.07078 34.3777C8.05944 34.3811 8.04895 34.3858 8.03778 34.3897V33.5015C8.03778 29.8966 10.9705 26.9637 14.5752 26.9637H15.2359C18.8406 26.9637 21.7733 29.8966 21.7733 33.5015V34.3789C21.7498 34.3715 21.7254 34.3664 21.7013 34.3602C21.6894 34.3572 21.6781 34.353 21.6661 34.3502C19.7457 33.9133 19.117 31.3481 19.1124 31.3288C18.9919 30.7962 18.5706 30.3838 18.0359 30.2745C17.5009 30.1649 16.9514 30.3789 16.6319 30.8214C14.1321 34.2761 8.55719 34.3151 8.48758 34.3151ZM16.4048 48.5472L14.8743 50.136L13.4364 48.7358V47.7948C13.7167 47.8281 14.0013 47.8472 14.2906 47.8472H15.5504C15.8397 47.8472 16.1243 47.8281 16.4046 47.7948V48.5474H16.4048V48.5472ZM15.5506 45.0681H14.2908C11.8546 45.0681 9.87254 43.0863 9.87254 40.6503V37.0064C11.6719 36.8109 14.8504 36.1784 17.3041 34.1336C17.8542 35.0747 18.7036 36.0906 19.9685 36.6856V40.6503C19.9685 43.0864 17.9866 45.0681 15.5506 45.0681Z" fill="#050029"/>
<path d="M83.0321 49.8542L77.4964 47.6342V46.8589C78.9991 45.9762 80.1544 44.5642 80.7046 42.8802C82.7158 42.7186 84.3041 41.0336 84.3041 38.9815C84.3041 37.7614 83.7426 36.6705 82.8649 35.9521V33.501C82.8649 28.3638 78.6856 24.1843 73.5486 24.1843H72.8877C67.7507 24.1843 63.5714 28.3638 63.5714 33.501V35.9411C62.6857 36.6595 62.1177 37.7549 62.1177 38.9815C62.1177 41.0488 63.7297 42.7428 65.7621 42.8824C66.3126 44.5654 67.4676 45.9763 68.9698 46.8587V47.6256L63.2864 49.8521C62.7612 50.0417 58.3145 51.817 58.3145 57.4717V62.4211C58.3145 63.1887 58.9363 63.8118 59.7039 63.8118H63.234C64.0016 63.8118 64.6235 63.1899 64.6235 62.4223C64.6235 61.6547 64.0016 61.0329 63.234 61.0329H61.0931V57.4715C61.0931 53.6268 64.0987 52.5124 64.2154 52.4708C64.2369 52.4636 64.2582 52.4558 64.2795 52.4474L69.4842 50.409L72.2488 53.1014C72.5084 53.3542 72.8563 53.4955 73.2181 53.4955C73.2254 53.4955 73.2327 53.4955 73.24 53.4953C73.6098 53.4895 73.9619 53.3363 74.2185 53.0701L76.829 50.3605L82.022 52.4429C82.0466 52.4529 82.0601 52.4581 82.0854 52.4665C82.2133 52.512 85.219 53.6268 85.219 57.4713V61.0327H77.4261H68.8858H67.6488C66.8812 61.0327 66.2594 61.6546 66.2594 62.4222C66.2594 63.1897 66.8812 63.8116 67.6488 63.8116H68.8858H77.4261H86.6085C87.3761 63.8116 87.9979 63.18 87.9979 62.4125V57.4715C87.9981 51.8383 83.5848 50.0553 83.0321 49.8542ZM81.0598 38.1655C81.11 38.1813 81.1618 38.1935 81.2143 38.2035C81.4065 38.4071 81.5253 38.6804 81.5253 38.9817C81.5253 39.3571 81.3415 39.6893 81.0598 39.8963V38.1655ZM65.4063 39.9284C65.0995 39.7247 64.8967 39.3767 64.8967 38.9817C64.8967 38.6964 65.0033 38.436 65.1776 38.2363C65.2561 38.2239 65.3326 38.2055 65.4063 38.1806V39.9284ZM66.8001 34.3151C66.7985 34.3151 66.7972 34.3151 66.7956 34.3151C66.7478 34.3151 66.7006 34.3175 66.6538 34.3224C66.6414 34.3237 66.6294 34.3265 66.617 34.3279C66.5832 34.3322 66.5491 34.3366 66.5163 34.3432C66.4988 34.3466 66.4821 34.3523 66.4646 34.3564C66.4374 34.3631 66.4099 34.3689 66.3835 34.3774C66.3721 34.3808 66.3616 34.3854 66.3505 34.3894V33.5011C66.3505 29.8962 69.2831 26.9634 72.8879 26.9634H73.5487C77.1535 26.9634 80.0862 29.8962 80.0862 33.5011V34.3786C80.0626 34.3712 80.0382 34.366 80.0141 34.3598C80.0023 34.3569 79.9909 34.3526 79.9789 34.35C78.0586 33.9131 77.4298 31.3479 77.4252 31.3286C77.3047 30.796 76.8834 30.3837 76.3486 30.2744C75.8137 30.1647 75.2644 30.3787 74.9445 30.8213C72.4446 34.2761 66.8697 34.3151 66.8001 34.3151ZM74.7175 48.5472L73.1869 50.136L71.749 48.7358V47.7944C72.0294 47.8278 72.314 47.8468 72.6033 47.8468H73.8631C74.1524 47.8468 74.437 47.8278 74.7173 47.7944V48.5472H74.7175ZM73.8631 45.0681H72.6033C70.1671 45.0681 68.185 43.0863 68.185 40.6503V37.0069C69.9849 36.8109 73.1649 36.1767 75.6166 34.1336C76.1667 35.0747 77.0161 36.0906 78.281 36.6856V40.6503C78.281 43.0864 76.2992 45.0681 73.8631 45.0681Z" fill="#050029"/>
<path d="M53.8138 74.0426L48.2781 71.8227V71.0474C49.7808 70.1646 50.9361 68.7527 51.4863 67.0686C53.4976 66.9071 55.0859 65.222 55.0859 63.17C55.0859 61.9499 54.5244 60.859 53.6468 60.1405V57.6894C53.6468 52.5521 49.4675 48.3728 44.3305 48.3728H43.6698C38.5328 48.3728 34.3535 52.5521 34.3535 57.6894V60.1295C33.4678 60.8478 32.8998 61.9433 32.8998 63.17C32.8998 65.2373 34.5118 66.9313 36.5442 67.0709C37.0947 68.7539 38.2497 70.1648 39.7519 71.0472V71.8141L34.0682 74.0402C33.5429 74.2298 29.0962 76.0051 29.0962 81.6598V86.6092C29.0962 87.3768 29.718 87.9999 30.4856 87.9999H34.0158C34.7834 87.9999 35.4052 87.378 35.4052 86.6105C35.4052 85.8432 34.7834 85.221 34.0158 85.221H31.8749V81.6596C31.8749 77.8149 34.8805 76.7003 34.997 76.6589C35.0185 76.6517 35.04 76.644 35.0611 76.6355L40.2658 74.5971L43.0304 77.2895C43.2899 77.5423 43.6378 77.6836 43.9996 77.6836C44.007 77.6836 44.0142 77.6836 44.0216 77.6835C44.3913 77.6776 44.7437 77.5246 45.0001 77.2582L47.6105 74.5486L52.8036 76.6311C52.8281 76.641 52.8417 76.6462 52.867 76.6546C52.9949 76.7002 56.0006 77.8149 56.0006 81.6594V85.2208H48.2076H39.6673H38.4304C37.6628 85.2208 37.0409 85.8429 37.0409 86.6103C37.0409 87.3779 37.6628 87.9997 38.4304 87.9997H39.6673H48.2076H57.39C58.1576 87.9997 58.7795 87.3681 58.7795 86.6007V81.6596C58.7798 76.0269 54.3666 74.2437 53.8138 74.0426ZM51.8416 64.0846V62.3536C51.8918 62.3694 51.9435 62.3816 51.9961 62.3916C52.1882 62.5953 52.307 62.8685 52.307 63.1698C52.307 63.5454 52.1233 63.8776 51.8416 64.0846ZM43.6696 51.1517H44.3303C47.935 51.1517 50.8677 54.0844 50.8677 57.6894V58.5669C50.8449 58.5596 50.8212 58.5547 50.798 58.5486C50.7854 58.5454 50.7734 58.5411 50.7603 58.5382C48.84 58.1013 48.2112 55.5364 48.2066 55.5168C48.0861 54.9843 47.6648 54.5718 47.13 54.4625C46.5949 54.3528 46.0456 54.5668 45.7259 55.0092C43.2264 58.4644 37.6514 58.5034 37.5818 58.5034C37.5803 58.5034 37.5789 58.5034 37.5773 58.5034C37.5296 58.5034 37.4823 58.5058 37.4356 58.5107C37.4199 58.5122 37.4051 58.5155 37.3898 58.5177C37.3591 58.522 37.3281 58.5256 37.2979 58.5318C37.2761 58.5363 37.2549 58.543 37.2334 58.5483C37.2106 58.554 37.1874 58.5588 37.165 58.5658C37.1537 58.5694 37.1432 58.5739 37.1319 58.5779V57.6896C37.1322 54.0844 40.0651 51.1517 43.6696 51.1517ZM35.6785 63.17C35.6785 62.8847 35.785 62.6243 35.9593 62.4246C36.038 62.4122 36.1144 62.3938 36.1881 62.3689V64.1167C35.8813 63.9132 35.6785 63.565 35.6785 63.17ZM38.967 61.1948C40.7663 60.9994 43.9448 60.3669 46.3985 58.3221C46.9486 59.2631 47.7981 60.2791 49.0629 60.8745V64.8391C49.0629 67.2751 47.081 69.257 44.645 69.257H43.3852C40.949 69.257 38.967 67.2751 38.967 64.8391V61.195V61.1948ZM43.9687 74.3245L42.5308 72.9242V71.9832C42.8113 72.0166 43.0957 72.0357 43.385 72.0357H44.6448C44.9341 72.0357 45.2187 72.0166 45.4991 71.9832V72.7359L43.9687 74.3245Z" fill="#050029"/>
</svg>
