<svg width="88" height="88" viewBox="0 0 88 88" fill="none" xmlns="http://www.w3.org/2000/svg">
<path fill-rule="evenodd" clip-rule="evenodd" d="M43.9997 8.77808C35.3522 8.77808 28.2783 15.8521 28.2783 24.4998V25.1722V27.5107C35.9077 28.0466 39.1718 26.283 47.0593 23.3208C52.0479 21.8933 54.5814 24.6021 59.7211 27.613V27.5107V25.1722V24.4998C59.7211 15.8521 52.6471 8.77808 43.9997 8.77808Z" fill="#D0C8D0"/>
<path fill-rule="evenodd" clip-rule="evenodd" d="M28.2783 27.5107V34.1609C28.2783 34.7844 28.3173 35.4032 28.3904 36.0073C28.9993 41.152 32.1173 45.5612 36.4824 47.9533C38.7185 49.181 41.2812 49.8826 43.9996 49.8826C46.7179 49.8826 49.2806 49.181 51.5167 47.9533C53.7432 46.7354 55.6431 44.9912 57.0511 42.8962C58.4103 40.8793 59.3164 38.5309 59.6135 36.0073C59.6866 35.4032 59.7208 34.7844 59.7208 34.1609V27.6129C54.5811 24.602 52.0478 21.8933 47.0589 23.3207C39.1718 26.283 35.9077 28.0467 28.2783 27.5107Z" fill="#D0C8D0"/>
<path fill-rule="evenodd" clip-rule="evenodd" d="M20.9995 29.6787V31.4959C20.9995 33.9757 23.0263 36.0073 25.5059 36.0073H28.39C28.3169 35.4031 28.2779 34.7844 28.2779 34.1608V27.5107V25.1721H25.5059C23.0263 25.1721 20.9995 27.1989 20.9995 29.6787Z" fill="#D0C8D0"/>
<path fill-rule="evenodd" clip-rule="evenodd" d="M59.7215 27.6131V34.161C59.7215 34.7846 59.6875 35.4033 59.6143 36.0075H62.4935C64.2279 36.0075 65.743 35.0135 66.4982 33.5617C66.8198 32.9429 67.0001 32.2413 67.0001 31.4959V29.6787C67.0001 27.1989 64.9733 25.1721 62.4937 25.1721H59.7217V27.5107V27.6131H59.7215Z" fill="#D0C8D0"/>
<path fill-rule="evenodd" clip-rule="evenodd" d="M36.4824 47.9536V55.1397L43.9995 60.2114L51.5167 55.1397V47.9536C49.2806 49.1813 46.7179 49.8829 43.9995 49.8829C41.2812 49.8829 38.7187 49.1815 36.4824 47.9536Z" fill="#D0C8D0"/>
<path fill-rule="evenodd" clip-rule="evenodd" d="M40.8962 72.5862L37.7734 86.2812H50.2306L47.103 72.5862H40.8962Z" fill="#D0C8D0"/>
<path fill-rule="evenodd" clip-rule="evenodd" d="M38.5776 63.8703L40.8966 72.5863H47.1033L49.4222 63.8703L43.9999 60.2114L38.5776 63.8703Z" fill="#D0C8D0"/>
<path fill-rule="evenodd" clip-rule="evenodd" d="M29.9155 57.0982L34.7241 66.4669L38.5777 63.8702L44 60.2113L36.4829 55.1396C34.5292 55.7828 32.2639 56.3967 29.9155 57.0982Z" fill="#D0C8D0"/>
<path fill-rule="evenodd" clip-rule="evenodd" d="M51.5171 55.1396L44 60.2113L49.4223 63.8702L53.2807 66.4669L58.0843 57.0982C55.7361 56.3967 53.4707 55.7828 51.5171 55.1396Z" fill="#D0C8D0"/>
<path fill-rule="evenodd" clip-rule="evenodd" d="M58.084 57.0981L53.2804 66.4669L49.422 63.8702L47.103 72.5861L50.2308 86.2811H75.8515V72.8639C75.6907 63.1053 66.3709 59.5633 58.084 57.0981Z" fill="#D0C8D0"/>
<path fill-rule="evenodd" clip-rule="evenodd" d="M29.9154 57.0981C21.6284 59.5633 12.3087 63.1052 12.1479 72.8637V86.281H37.7737L40.8964 72.586L38.5775 63.87L34.7239 66.4667L29.9154 57.0981Z" fill="#D0C8D0"/>
<path d="M77.5702 72.8358C77.3746 60.8761 65.1467 57.3427 56.2181 54.7627C55.1763 54.4617 54.1745 54.1721 53.2357 53.883V48.9493C55.061 47.8052 56.6605 46.3327 57.9508 44.6151H63.3896C66.0511 44.6151 68.2165 42.4497 68.2165 39.7882V33.9451C68.5392 33.193 68.7184 32.3652 68.7184 31.496V29.6788C68.7184 28.8105 68.5392 27.9832 68.2165 27.2316V24.2173C68.2165 10.8639 57.353 0 43.9998 0C30.6492 0 19.7878 10.8639 19.7878 24.2175V27.1455C19.7878 27.1686 19.7904 27.1907 19.7913 27.2136C19.4637 27.9702 19.2811 28.8034 19.2811 29.679V31.4962C19.2811 34.9315 22.0738 37.7264 25.5063 37.7264H26.9267C27.9105 42.444 30.8068 46.4676 34.7639 48.9485V53.883C33.8249 54.1721 32.8232 54.4616 31.7815 54.7627C22.8529 57.3427 10.625 60.8763 10.4294 72.8358C10.4292 72.8452 10.4292 72.8545 10.4292 72.8639V86.2812C10.4292 87.2305 11.1989 88 12.148 88H17.2437C18.1928 88 18.9625 87.2305 18.9625 86.2812C18.9625 85.332 18.1928 84.5625 17.2437 84.5625H13.8665V72.8782C13.9389 68.7056 15.8557 65.5776 19.8983 63.0347C22.566 61.3567 25.8274 60.1611 29.0421 59.161L33.1948 67.2519C33.6577 68.1537 34.8428 68.4601 35.685 67.8919L37.5366 66.6429L39.1262 72.6178L36.4025 84.5623H32.6776C31.7285 84.5623 30.9589 85.3318 30.9589 86.2811C30.9589 87.2303 31.7285 87.9998 32.6776 87.9998H75.8516C76.8007 87.9998 77.5704 87.2303 77.5704 86.2811V72.8638C77.5704 72.8545 77.5704 72.8452 77.5702 72.8358ZM55.2638 58.0649C55.3771 58.0976 55.4923 58.1311 55.6064 58.1641L52.6352 63.9587L47.0748 60.2093L51.7861 57.0314C52.8806 57.3759 54.0445 57.7126 55.2638 58.0649ZM44.001 62.2826L47.4474 64.6067L45.7818 70.8674H42.2178L40.5526 64.6086L44.001 62.2826ZM44.0006 58.1364L38.2012 54.2257V50.6074C40.0164 51.2494 41.9674 51.6015 43.9996 51.6015C46.0317 51.6015 47.983 51.2506 49.798 50.6086V54.2257L44.0006 58.1364ZM58.0023 24.5318C57.9788 24.5169 57.9554 24.5019 57.9319 24.487C54.4051 22.2419 51.3592 20.303 46.5865 21.6685C46.5422 21.6813 46.4982 21.6957 46.455 21.7118C45.4432 22.0919 44.5231 22.4461 43.6332 22.7887C38.1979 24.8809 35.2303 26.0235 29.9971 25.8764V24.5C29.9971 16.7787 36.2786 10.497 43.9996 10.497C51.7206 10.497 58.0022 16.7787 58.0022 24.5V24.5318H58.0023ZM64.779 39.7882C64.779 40.5544 64.1558 41.1776 63.3896 41.1776H59.9645C60.4481 40.0812 60.8228 38.9264 61.0731 37.7262H62.4934C63.3004 37.7262 64.0709 37.5701 64.7792 37.2891V39.7882H64.779ZM65.2809 31.496C65.2809 33.0359 64.0305 34.2887 62.4933 34.2887H61.4383C61.4386 34.2461 61.44 26.891 61.44 26.891H62.4934C64.0305 26.891 65.2811 28.1415 65.2811 29.6788V31.496H65.2809ZM25.5063 34.2889C23.9692 34.2889 22.7187 33.036 22.7187 31.4962V29.679C22.7187 28.1417 23.969 26.8912 25.5063 26.8912H26.5597C26.5597 26.8912 26.5611 34.2462 26.5614 34.2889H25.5063ZM26.5919 23.4535H25.5061C24.7026 23.4535 23.9352 23.6082 23.2295 23.8866C23.407 12.5806 32.6553 3.43751 43.9998 3.43751C55.3475 3.43751 64.5984 12.5816 64.7747 23.8885C64.0678 23.6088 63.2985 23.4535 62.4933 23.4535H61.4075C60.8644 14.3221 53.2647 7.05945 43.9998 7.05945C34.7347 7.05945 27.135 14.3222 26.5919 23.4535ZM30.1005 35.8332C30.1004 35.8314 30.1 35.8297 30.0999 35.828C30.0347 35.2809 29.9972 34.7254 29.9972 34.1611V29.3137C35.8776 29.4571 39.3854 28.1075 44.8681 25.9969C45.7316 25.6645 46.6242 25.3209 47.5965 24.9553C50.8432 24.049 52.7113 25.2386 56.0859 27.3868C56.6715 27.7596 57.3138 28.1682 58.0023 28.5877V34.1611C58.0023 36.7171 57.3107 39.1131 56.1098 41.1778H43.9998C43.0507 41.1778 42.281 41.9473 42.281 42.8966C42.281 43.8458 43.0507 44.6153 43.9998 44.6153H53.3024C50.827 46.8207 47.5679 48.1642 43.9998 48.1642C36.8448 48.164 30.9298 42.7685 30.1005 35.8332ZM35.3685 63.9589L32.3941 58.1638C32.5078 58.1309 32.6226 58.0976 32.7357 58.0649C33.955 57.7126 35.119 57.3757 36.2138 57.0313L40.927 60.2096L35.3685 63.9589ZM39.9284 84.5625L42.2674 74.3049H45.7326L48.0753 84.5625H39.9284ZM74.1329 84.5625H51.6013L48.8733 72.6176L50.4637 66.6405L52.3198 67.8921C53.1623 68.4601 54.3474 68.1537 54.8101 67.2513L58.9581 59.1613C62.1727 60.1615 65.4339 61.3569 68.1014 63.0347C72.1439 65.5774 74.0608 68.7056 74.1332 72.8782V84.5625H74.1329Z" fill="#050029"/>
<path d="M67.3456 75.9683H58.6836C57.7345 75.9683 56.9648 76.7377 56.9648 77.687C56.9648 78.6363 57.7345 79.4058 58.6836 79.4058H67.3456C68.2947 79.4058 69.0643 78.6363 69.0643 77.687C69.0643 76.7377 68.2948 75.9683 67.3456 75.9683Z" fill="#050029"/>
<path d="M24.9609 84.5625C24.0118 84.5625 23.2422 85.332 23.2422 86.2812C23.2422 87.2305 24.0118 88 24.9609 88H24.9658C25.9148 88 26.6819 87.2305 26.6819 86.2812C26.6819 85.332 25.91 84.5625 24.9609 84.5625Z" fill="#050029"/>
</svg>
