<svg width="88" height="88" viewBox="0 0 88 88" fill="none" xmlns="http://www.w3.org/2000/svg">
<path d="M67.375 9.625H28.875C26.5968 9.625 24.75 11.4718 24.75 13.75V70.125C24.75 72.4032 26.5968 74.25 28.875 74.25H67.375C69.6532 74.25 71.5 72.4032 71.5 70.125V13.75C71.5 11.4718 69.6532 9.625 67.375 9.625Z" fill="#D0C8D0"/>
<path opacity="0.5" d="M30.25 15.125H66V68.75H30.25V15.125Z" fill="#D0C8D0"/>
<path d="M57.75 15.125H38.5V9.625H44L42.625 4.125H53.625L52.25 9.625H57.75V15.125Z" fill="#D0C8D0"/>
<path d="M55 83.875H5.5V39.875H30.25V61.875H55V83.875Z" fill="#D0C8D0"/>
<path d="M38.5 61.875H46.75V70.125H38.5V61.875Z" fill="#D0C8D0"/>
<path d="M55 63.25H52.9375C52.3905 63.25 51.8659 63.4673 51.4791 63.8541C51.0923 64.2409 50.875 64.7655 50.875 65.3125V68.8024C50.8748 71.7058 49.7213 74.4903 47.6683 76.5433C45.6153 78.5963 42.8308 79.7498 39.9274 79.75H33.6875C33.1405 79.75 32.6159 79.9673 32.2291 80.3541C31.8423 80.7409 31.625 81.2655 31.625 81.8125V83.875H55V63.25Z" fill="#D0C8D0"/>
<path d="M13.75 61.875H22V70.125H13.75V61.875Z" fill="#D0C8D0"/>
<path d="M30.25 63.25H28.1875C27.6405 63.25 27.1159 63.4673 26.7291 63.8541C26.3423 64.2409 26.125 64.7655 26.125 65.3125V68.8024C26.1248 71.7058 24.9713 74.4903 22.9183 76.5433C20.8653 78.5963 18.0808 79.7498 15.1774 79.75H8.9375C8.39049 79.75 7.86589 79.9673 7.47909 80.3541C7.0923 80.7409 6.875 81.2655 6.875 81.8125V83.875H30.25V63.25Z" fill="#D0C8D0"/>
<path d="M13.75 39.875H22V48.125H13.75V39.875Z" fill="#D0C8D0"/>
<path d="M30.25 41.25H28.1875C27.6405 41.25 27.1159 41.4673 26.7291 41.8541C26.3423 42.2409 26.125 42.7655 26.125 43.3125V46.8024C26.1248 49.7058 24.9713 52.4903 22.9183 54.5433C20.8653 56.5963 18.0808 57.7498 15.1774 57.75H8.9375C8.39049 57.75 7.86589 57.9673 7.47909 58.3541C7.0923 58.7409 6.875 59.2655 6.875 59.8125V61.875H30.25V41.25Z" fill="#D0C8D0"/>
<path d="M80.0669 45.0221L43.1826 56.0579L37.125 54.9998L41.606 50.7889L78.4903 39.7531C79.1891 39.544 79.9422 39.6211 80.5842 39.9673C81.2261 40.3136 81.7041 40.9007 81.9132 41.5994C82.1222 42.2981 82.0451 43.0512 81.6989 43.6931C81.3527 44.335 80.7656 44.813 80.0669 45.0221Z" fill="#D0C8D0"/>
<path d="M83.2305 41.2053C82.9169 40.1572 82.1998 39.2767 81.237 38.7573C80.2742 38.2379 79.1445 38.1222 78.0964 38.4357L41.212 49.4713C41.0076 49.5326 40.8202 49.6406 40.6646 49.7867L36.1835 53.9976C35.9974 54.1725 35.8636 54.3957 35.7972 54.6423C35.7308 54.8889 35.7344 55.149 35.8076 55.3937C35.8807 55.6383 36.0206 55.8578 36.2114 56.0274C36.4023 56.1971 36.6366 56.3102 36.8881 56.3542L42.9455 57.4123C43.1558 57.4489 43.3718 57.4362 43.5763 57.3752L73.5046 48.4205L73.6342 51.2521L64.1243 54.0973L64.9125 56.7322L75.4509 53.579C75.7447 53.4911 76.0007 53.3076 76.1782 53.0575C76.3557 52.8075 76.4445 52.5053 76.4306 52.199L76.2204 47.6092L80.461 46.3404C81.5091 46.0268 82.3897 45.3097 82.9091 44.3469C83.4284 43.384 83.544 42.2543 83.2305 41.2062V41.2053ZM43.0994 54.6477L40.0706 54.1186L42.3111 52.013L48.5866 50.1358L49.3749 52.7703L43.0994 54.6477ZM52.0094 51.9817L51.2212 49.3472L73.2456 42.7574L73.3751 45.5892L52.0094 51.9817ZM80.4891 43.0403C80.4037 43.1995 80.2876 43.3402 80.1476 43.4543C80.0075 43.5684 79.8462 43.6535 79.673 43.7049L76.0909 44.7765L75.9613 41.9449L78.8848 41.0702C79.1453 40.9923 79.4231 40.9934 79.683 41.0733C79.9429 41.1532 80.1733 41.3084 80.345 41.5193C80.5168 41.7302 80.6221 41.9872 80.6477 42.2579C80.6734 42.5287 80.6181 42.8009 80.4891 43.0403Z" fill="#050029"/>
<path d="M55 60.5H31.625V39.875C31.625 39.5103 31.4801 39.1606 31.2223 38.9027C30.9644 38.6449 30.6147 38.5 30.25 38.5H5.5C5.13533 38.5 4.78559 38.6449 4.52773 38.9027C4.26987 39.1606 4.125 39.5103 4.125 39.875V83.875C4.125 84.2397 4.26987 84.5894 4.52773 84.8473C4.78559 85.1051 5.13533 85.25 5.5 85.25H55C55.3647 85.25 55.7144 85.1051 55.9723 84.8473C56.2301 84.5894 56.375 84.2397 56.375 83.875V61.875C56.375 61.5103 56.2301 61.1606 55.9723 60.9027C55.7144 60.6449 55.3647 60.5 55 60.5ZM39.875 63.25H45.375V68.75H39.875V63.25ZM15.125 41.25H20.625V46.75H15.125V41.25ZM6.875 41.25H12.375V48.125C12.375 48.4897 12.5199 48.8394 12.7777 49.0973C13.0356 49.3551 13.3853 49.5 13.75 49.5H22C22.3647 49.5 22.7144 49.3551 22.9723 49.0973C23.2301 48.8394 23.375 48.4897 23.375 48.125V41.25H28.875V60.5H6.875V41.25ZM15.125 63.25H20.625V68.75H15.125V63.25ZM6.875 63.25H12.375V70.125C12.375 70.4897 12.5199 70.8394 12.7777 71.0973C13.0356 71.3551 13.3853 71.5 13.75 71.5H22C22.3647 71.5 22.7144 71.3551 22.9723 71.0973C23.2301 70.8394 23.375 70.4897 23.375 70.125V63.25H28.875V82.5H6.875V63.25ZM53.625 82.5H31.625V63.25H37.125V70.125C37.125 70.4897 37.2699 70.8394 37.5277 71.0973C37.7856 71.3551 38.1353 71.5 38.5 71.5H46.75C47.1147 71.5 47.4644 71.3551 47.7223 71.0973C47.9801 70.8394 48.125 70.4897 48.125 70.125V63.25H53.625V82.5Z" fill="#050029"/>
<path d="M48.125 77H50.875V79.75H48.125V77Z" fill="#050029"/>
<path d="M23.375 77H26.125V79.75H23.375V77Z" fill="#050029"/>
<path d="M23.375 55H26.125V57.75H23.375V55Z" fill="#050029"/>
<path d="M26.125 13.75C26.1259 13.0209 26.4159 12.3219 26.9314 11.8064C27.4469 11.2909 28.1459 11.0009 28.875 11H37.125V13.75H30.25C29.8853 13.75 29.5356 13.8949 29.2777 14.1527C29.0199 14.4106 28.875 14.7603 28.875 15.125V35.75H31.625V16.5H64.625V38.5H67.375V15.125C67.375 14.7603 67.2301 14.4106 66.9723 14.1527C66.7144 13.8949 66.3647 13.75 66 13.75H59.125V11H67.375C68.1041 11.0009 68.8031 11.2909 69.3186 11.8064C69.8341 12.3219 70.1241 13.0209 70.125 13.75V37.125H72.875V13.75C72.8734 12.2918 72.2934 10.8938 71.2623 9.86272C70.2312 8.83163 68.8332 8.25164 67.375 8.25H54.011L54.9589 4.45844C55.0096 4.25573 55.0134 4.04413 54.97 3.83973C54.9267 3.63533 54.8373 3.4435 54.7087 3.2788C54.5802 3.11411 54.4157 2.98089 54.2279 2.88926C54.0401 2.79763 53.8339 2.75001 53.625 2.75H42.625C42.4161 2.75001 42.2099 2.79763 42.0221 2.88926C41.8343 2.98089 41.6698 3.11411 41.5413 3.2788C41.4127 3.4435 41.3233 3.63533 41.28 3.83973C41.2366 4.04413 41.2404 4.25573 41.2911 4.45844L42.239 8.25H28.875C27.4168 8.25164 26.0188 8.83163 24.9877 9.86272C23.9566 10.8938 23.3766 12.2918 23.375 13.75V35.75H26.125V13.75ZM39.875 11H44C44.2089 11 44.4151 10.9524 44.6029 10.8607C44.7907 10.7691 44.9552 10.6359 45.0837 10.4712C45.2123 10.3065 45.3017 10.1147 45.345 9.91027C45.3884 9.70587 45.3846 9.49427 45.3339 9.29156L44.386 5.5H51.864L50.9161 9.29156C50.8654 9.49427 50.8616 9.70587 50.905 9.91027C50.9483 10.1147 51.0377 10.3065 51.1663 10.4712C51.2948 10.6359 51.4593 10.7691 51.6471 10.8607C51.8349 10.9524 52.0411 11 52.25 11H56.375V13.75H39.875V11Z" fill="#050029"/>
<path d="M70.125 70.125C70.1241 70.8541 69.8341 71.5531 69.3186 72.0686C68.8031 72.5841 68.1041 72.8741 67.375 72.875H59.125V75.625H67.375C68.8332 75.6234 70.2312 75.0434 71.2623 74.0123C72.2934 72.9812 72.8734 71.5832 72.875 70.125V57.75H70.125V70.125Z" fill="#050029"/>
<path d="M67.375 68.75V59.125H64.625V67.375H59.125V70.125H66C66.3647 70.125 66.7144 69.9801 66.9723 69.7223C67.2301 69.4644 67.375 69.1147 67.375 68.75Z" fill="#050029"/>
<path d="M42.625 20.625C42.625 20.2603 42.4801 19.9106 42.2223 19.6527C41.9644 19.3949 41.6147 19.25 41.25 19.25H35.75C35.3853 19.25 35.0356 19.3949 34.7777 19.6527C34.5199 19.9106 34.375 20.2603 34.375 20.625V26.125C34.375 26.4897 34.5199 26.8394 34.7777 27.0973C35.0356 27.3551 35.3853 27.5 35.75 27.5H41.25C41.6147 27.5 41.9644 27.3551 42.2223 27.0973C42.4801 26.8394 42.625 26.4897 42.625 26.125V20.625ZM39.875 24.75H37.125V22H39.875V24.75Z" fill="#050029"/>
<path d="M41.25 31.625H35.75C35.3853 31.625 35.0356 31.7699 34.7777 32.0277C34.5199 32.2856 34.375 32.6353 34.375 33V38.5C34.375 38.8647 34.5199 39.2144 34.7777 39.4723C35.0356 39.7301 35.3853 39.875 35.75 39.875H41.25C41.6147 39.875 41.9644 39.7301 42.2223 39.4723C42.4801 39.2144 42.625 38.8647 42.625 38.5V33C42.625 32.6353 42.4801 32.2856 42.2223 32.0277C41.9644 31.7699 41.6147 31.625 41.25 31.625ZM39.875 37.125H37.125V34.375H39.875V37.125Z" fill="#050029"/>
<path d="M45.375 19.25H48.125V22H45.375V19.25Z" fill="#050029"/>
<path d="M45.375 24.75H61.875V27.5H45.375V24.75Z" fill="#050029"/>
<path d="M50.875 19.25H61.875V22H50.875V19.25Z" fill="#050029"/>
<path d="M45.375 31.625H48.125V34.375H45.375V31.625Z" fill="#050029"/>
<path d="M45.375 37.125H61.875V39.875H45.375V37.125Z" fill="#050029"/>
<path d="M50.875 31.625H61.875V34.375H50.875V31.625Z" fill="#050029"/>
</svg>
