<svg width="88" height="88" viewBox="0 0 88 88" fill="none" xmlns="http://www.w3.org/2000/svg">
<path d="M75.625 49.5V33H59.125V24.75H42.625V33H26.125V49.5H75.625Z" fill="#D0C8D0"/>
<path d="M26.125 49.5V35.75L30.25 33V30.25H5.5V33L9.625 35.75V49.5H26.125Z" fill="#D0C8D0"/>
<path d="M72.875 19.25L74.25 13.75H81.125L82.5 19.25H72.875Z" fill="#D0C8D0"/>
<path d="M83.875 45.375V49.2095C83.8751 52.2596 83.1221 55.2626 81.6829 57.9517C80.2438 60.6409 78.1629 62.9332 75.625 64.625V72.875H22C19.6523 72.8762 17.3273 72.4147 15.1581 71.5168C12.9889 70.619 11.0178 69.3023 9.35776 67.6423C7.69767 65.9822 6.38105 64.0112 5.48318 61.8419C4.58531 59.6727 4.12379 57.3477 4.125 55V45.375H11L15.125 49.5H61.875L67.375 45.375H83.875Z" fill="#D0C8D0"/>
<path d="M75.625 64.625V72.875H22C18.9977 72.8767 16.0434 72.1217 13.41 70.6797C10.7767 69.2378 8.5492 67.1554 6.93341 64.625H75.625Z" fill="#D0C8D0"/>
<path d="M75.625 45.375V19.25H79.75L83.875 45.375H75.625Z" fill="#D0C8D0"/>
<path d="M9.625 24.75H26.125V30.25H9.625V24.75Z" fill="#D0C8D0"/>
<path d="M82.459 13.4165C82.3846 13.119 82.2129 12.8549 81.9712 12.6662C81.7295 12.4775 81.4316 12.375 81.125 12.375H74.25C73.9434 12.375 73.6455 12.4775 73.4038 12.6662C73.1621 12.8549 72.9904 13.119 72.916 13.4165L71.8014 17.875H70.125V20.625H74.25V31.625H60.5V24.75C60.5 24.3853 60.3551 24.0356 60.0973 23.7777C59.8394 23.5199 59.4897 23.375 59.125 23.375H42.625C42.2603 23.375 41.9106 23.5199 41.6527 23.7777C41.3949 24.0356 41.25 24.3853 41.25 24.75V31.625H31.625V30.25C31.625 29.8853 31.4801 29.5356 31.2223 29.2777C30.9644 29.0199 30.6147 28.875 30.25 28.875H27.4999L27.5 24.75C27.5 24.5694 27.4645 24.3906 27.3954 24.2238C27.3263 24.057 27.225 23.9054 27.0973 23.7777C26.9696 23.65 26.818 23.5487 26.6512 23.4796C26.4844 23.4105 26.3056 23.375 26.125 23.375H24.75V20.625H22V23.375H19.25V17.875H23.375V15.125H12.375V17.875H16.5V23.375H13.75V20.625H11V23.375H9.625C9.26033 23.375 8.91059 23.5199 8.65273 23.7777C8.39487 24.0356 8.25 24.3853 8.25 24.75V28.875H5.5C5.13533 28.875 4.78559 29.0199 4.52773 29.2777C4.26987 29.5356 4.125 29.8853 4.125 30.25V33C4.125 33.2264 4.18088 33.4492 4.2877 33.6488C4.39451 33.8484 4.54895 34.0185 4.7373 34.144L8.25 36.4858V44H4.125C3.76033 44 3.41059 44.1449 3.15273 44.4027C2.89487 44.6606 2.75 45.0103 2.75 45.375V55C2.75179 58.3228 3.6133 61.5886 5.25078 64.4799C6.88826 67.3712 9.24599 69.7896 12.0947 71.5H8.25V74.25H79.75V71.5H77V65.3442C79.5565 63.5022 81.638 61.0783 83.0725 58.2728C84.5071 55.4673 85.2534 52.3608 85.25 49.2098V45.375C85.2495 45.3032 85.2433 45.2316 85.2317 45.1607L85.2332 45.1605L81.3592 20.625H85.25V17.875H83.5736L82.459 13.4165ZM75.3235 15.125H80.0515L80.7389 17.875H74.6361L75.3235 15.125ZM67.375 44C67.0775 44 66.7881 44.0965 66.55 44.2749L61.4167 48.125H60.5V42.625H74.25V44H67.375ZM41.25 34.375V39.875H27.5V36.4858L30.6663 34.375H41.25ZM57.75 39.875H44V34.375H57.75V39.875ZM27.5 42.625H41.25V48.125H27.5V42.625ZM44 42.625H57.75V48.125H44V42.625ZM74.25 39.875H60.5V34.375H74.25V39.875ZM57.75 26.125V31.625H44V26.125H57.75ZM11 26.125H24.75L24.7499 28.875H11V26.125ZM10.3877 34.606L6.875 32.2642V31.625H28.875V32.2642L25.3623 34.606C25.174 34.7315 25.0195 34.9016 24.9127 35.1012C24.8059 35.3008 24.75 35.5236 24.75 35.75V48.125H15.6945L11.9723 44.4027C11.7144 44.1448 11.3647 44 11 44V35.75C11 35.5236 10.9441 35.3008 10.8373 35.1012C10.7305 34.9016 10.576 34.7315 10.3877 34.606ZM22 71.5C19.68 71.5008 17.3861 71.0112 15.2686 70.0633C13.1511 69.1155 11.2579 67.7308 9.713 66H74.25V71.5H22ZM82.5 49.2098C82.5028 51.9651 81.8403 54.6803 80.569 57.1246C79.2976 59.569 77.4548 61.6704 75.1974 63.25H7.71495C6.26077 60.744 5.49653 57.8974 5.5 55V46.75H10.4305L14.1527 50.4723C14.4106 50.7302 14.7603 50.875 15.125 50.875H61.875C62.1725 50.875 62.4619 50.7785 62.7 50.6001L67.8333 46.75H82.5V49.2098ZM82.2658 44H77V20.625H78.5751L82.2658 44Z" fill="#050029"/>
<path d="M13.75 34.375H16.5V37.125H13.75V34.375Z" fill="#050029"/>
<path d="M19.25 34.375H22V37.125H19.25V34.375Z" fill="#050029"/>
<path d="M13.75 39.875H16.5V42.625H13.75V39.875Z" fill="#050029"/>
<path d="M19.25 39.875H22V42.625H19.25V39.875Z" fill="#050029"/>
<path d="M2.75 71.5H5.5V74.25H2.75V71.5Z" fill="#050029"/>
<path d="M82.5 71.5H85.25V74.25H82.5V71.5Z" fill="#050029"/>
</svg>
