<svg width="86" height="86" viewBox="0 0 86 86" fill="none" xmlns="http://www.w3.org/2000/svg">
<path d="M22.375 84.25H10V71.875V70.5L11.2788 69.8675C12.1038 69.455 12.64 68.6575 12.7362 67.75H12.75H34.75V84.25H22.375Z" fill="#D0C8D0"/>
<path d="M32 15.5H27.1462C23.1037 15.5 19.1163 14.565 15.5 12.75C13.8088 13.5887 12.75 15.3212 12.75 17.205V18.25H11.375C10.0963 18.25 8.955 18.8275 8.19875 19.735L7.62125 17.975C7.37375 17.2463 7.25 16.4762 7.25 15.72C7.25 13.8225 8.00625 11.9937 9.34 10.66L10 10C10 7.7175 10.9213 5.655 12.42 4.17C13.905 2.67125 15.9675 1.75 18.25 1.75H27.2013C29.855 1.75 32 3.895 32 6.54875C32 6.7825 31.9862 7.0025 31.9587 7.2225L33.045 7.7725C35.7812 9.13375 37.5 11.925 37.5 14.9775C37.5 16.2288 37.2112 17.4525 36.6475 18.58L36.235 19.405C35.4925 18.69 34.4888 18.25 33.375 18.25H32V15.5Z" fill="#D0C8D0"/>
<path d="M24.2313 44.5263L26.5 58.125L22.375 62.25L18.25 58.125L20.5187 44.485L22.375 43L24.245 44.4988L24.2313 44.5263Z" fill="#D0C8D0"/>
<path d="M30.0062 39.1637C31.395 39.3562 33.0725 39.6863 34.75 40.25C38.875 41.625 43 45.75 43 45.75L54 34.75L59.5 40.25L48.1562 51.5938C46.6162 53.1338 44.5262 54 42.34 54C40.965 54 39.6175 53.6562 38.4075 52.9963L34.75 51.0025V67.75H12.75H12.7362C12.75 67.6675 12.75 67.5712 12.75 67.475C12.75 66.7738 12.475 66.1 11.9663 65.5913L10 63.625H1.75V49.9988C1.75 47.2762 2.83625 44.6637 4.76125 42.7387C6.37 41.13 8.47375 40.0988 10.7425 39.81L14.6337 39.3287C15.3763 39.2462 16.05 38.9575 16.6138 38.5312L15.5 48.5L20.5187 44.485L18.25 58.125L22.375 62.25L26.5 58.125L24.2313 44.5263L24.245 44.4988L29.25 48.5L28.1225 38.38V38.3662C28.6588 38.7787 29.305 39.0537 30.0062 39.1637Z" fill="#D0C8D0"/>
<path d="M28.1225 38.3798L29.25 48.4998L24.245 44.4986L22.375 42.9998L26.7338 36.4548C26.995 37.2111 27.4763 37.8848 28.1225 38.3661V38.3798Z" fill="#D0C8D0"/>
<path d="M18.0438 36.51L22.375 43L20.5187 44.485L15.5 48.5L16.6138 38.5313C17.2738 38.0088 17.7825 37.3213 18.0438 36.51Z" fill="#D0C8D0"/>
<path d="M65 73.25V78.75C65 80.2625 63.7625 81.5 62.25 81.5H45.75C44.2375 81.5 43 80.2625 43 78.75V73.25C43 71.7375 44.2375 70.5 45.75 70.5H52.625L57.5613 65.5637C57.9187 65.2062 58.4138 65 58.9363 65C60.0088 65 60.875 65.8662 60.875 66.9387V70.5H62.25C63.7625 70.5 65 71.7375 65 73.25Z" fill="#D0C8D0"/>
<path d="M84.25 48.5V54C84.25 55.5125 83.0125 56.75 81.5 56.75H74.625L69.6887 61.6863C69.3312 62.0438 68.8362 62.25 68.3137 62.25C67.2413 62.25 66.375 61.3837 66.375 60.3113V56.75H65C63.4875 56.75 62.25 55.5125 62.25 54V48.5C62.25 46.9875 63.4875 45.75 65 45.75H81.5C83.0125 45.75 84.25 46.9875 84.25 48.5Z" fill="#D0C8D0"/>
<path d="M69.125 27.875C69.125 30.1575 67.2825 32 65 32L64.725 31.4638C64.0512 30.1025 62.6625 29.25 61.15 29.25L60.875 29.2638V29.25V26.5H69.125V27.875Z" fill="#D0C8D0"/>
<path d="M69.1253 26.4999H60.8753V25.4687C60.8753 24.0937 60.2428 22.7599 59.0878 22.0174C55.6503 19.8312 53.5191 15.7887 54.0966 11.3062C54.7153 6.36992 58.7716 2.38242 63.7216 1.81867C70.3628 1.07617 76.0003 6.24617 76.0003 12.7499C76.0003 16.6412 73.9791 20.0512 70.9403 22.0037C69.7853 22.7462 69.1253 24.0387 69.1253 25.4137V26.4999Z" fill="#D0C8D0"/>
<path d="M12.75 67.475C12.75 67.5712 12.75 67.6675 12.7362 67.75C12.64 68.6575 12.1038 69.455 11.2788 69.8675L10 70.5V71.875C10 73.3875 8.7625 74.625 7.25 74.625H4.5C2.9875 74.625 1.75 73.3875 1.75 71.875V63.625H10L11.9663 65.5913C12.475 66.1 12.75 66.7737 12.75 67.475Z" fill="#D0C8D0"/>
<path d="M64.725 31.4638L65 32H66.375C67.8875 32 69.125 33.2375 69.125 34.75V37.5C69.125 39.0125 67.8875 40.25 66.375 40.25H59.5L54 34.75L58.3313 30.4188C59.005 29.745 59.9125 29.3325 60.875 29.2638L61.15 29.25C62.6625 29.25 64.0512 30.1025 64.725 31.4638Z" fill="#D0C8D0"/>
<path d="M18.2502 35.2312V32.4537V32.4399C19.5014 33.0449 20.9039 33.3749 22.3752 33.3749C23.8602 33.3749 25.2489 33.0449 26.5002 32.4399V35.0937C26.5002 35.5612 26.5827 36.0287 26.7339 36.4549L22.3752 42.9999L18.0439 36.5099C18.1814 36.1112 18.2502 35.6712 18.2502 35.2312Z" fill="#D0C8D0"/>
<path d="M36.2348 19.405C37.0186 20.1475 37.4998 21.2062 37.4998 22.375C37.4998 23.5163 37.0323 24.5475 36.2898 25.29C35.5473 26.0325 34.5161 26.5 33.3748 26.5H31.6011C31.8623 25.6337 31.9998 24.7125 31.9998 23.75V18.25H33.3748C34.4886 18.25 35.4923 18.69 36.2348 19.405Z" fill="#D0C8D0"/>
<path d="M13.1488 26.5H11.375C10.2338 26.5 9.2025 26.0325 8.46 25.29C7.7175 24.5475 7.25 23.5163 7.25 22.375C7.25 21.3712 7.6075 20.45 8.19875 19.735C8.955 18.8275 10.0963 18.25 11.375 18.25H12.75V23.75C12.75 24.7125 12.8875 25.6337 13.1488 26.5Z" fill="#D0C8D0"/>
<path d="M32 18.25V23.75C32 24.7125 31.8625 25.6337 31.6012 26.5C31.1475 28.0538 30.295 29.4425 29.1813 30.5563C28.4113 31.3263 27.5037 31.9725 26.5 32.44C25.2487 33.045 23.86 33.375 22.375 33.375C20.9037 33.375 19.5013 33.045 18.25 32.44C15.8025 31.285 13.9325 29.1262 13.1487 26.5C12.8875 25.6337 12.75 24.7125 12.75 23.75V18.25V17.205C12.75 15.3212 13.8087 13.5888 15.5 12.75C19.1163 14.565 23.1037 15.5 27.1462 15.5H32V18.25Z" fill="#D0C8D0"/>
<path d="M42.3455 55.375C44.9085 55.375 47.3175 54.3768 49.1297 52.5645L60.0693 41.625H66.375C68.6493 41.625 70.5 39.7743 70.5 37.5V34.75C70.5 33.485 69.9156 32.3644 69.015 31.6068C69.9294 30.625 70.5 29.3188 70.5 27.875V25.4124C70.5 24.4774 70.9427 23.6345 71.6852 23.1574C75.2479 20.8666 77.375 16.9754 77.375 12.75C77.375 9.22863 75.868 5.864 73.2418 3.51825C70.6169 1.1725 67.0859 0.05875 63.5631 0.45475C57.993 1.0845 53.4363 5.57388 52.7281 11.1289C52.1135 15.9551 54.2654 20.571 58.3436 23.1766C59.0559 23.6318 59.4986 24.5104 59.4986 25.4688V28.1596C58.7025 28.4181 57.9655 28.8389 57.3564 29.4494L54 32.8058L42.9643 43.8401C41.4284 42.4775 38.3511 40.0011 35.1845 38.9465C33.6624 38.4378 31.9821 38.0541 30.1933 37.8025C28.8719 37.6155 27.875 36.4481 27.875 35.0869V33.2609C29.9774 32.0399 31.6411 30.1479 32.5651 27.8736H33.375C36.4082 27.8736 38.875 25.4069 38.875 22.3736C38.875 21.198 38.4969 20.1117 37.8657 19.2166L37.8795 19.1877C38.5312 17.887 38.875 16.4309 38.875 14.9748C38.875 11.3833 36.8785 8.15338 33.6651 6.54462L33.3599 6.392C33.276 3.06175 30.5549 0.375 27.2054 0.375H18.25C13.1405 0.375 8.94675 4.37762 8.64287 9.41288L8.37337 9.68237C6.76325 11.2939 5.875 13.4361 5.875 15.7131C5.875 16.6316 6.02212 17.5391 6.31225 18.4109L6.68762 19.537C6.183 20.3675 5.875 21.3328 5.875 22.375C5.875 25.4083 8.34175 27.875 11.375 27.875H12.1849C13.1089 30.1493 14.7726 32.0412 16.875 33.2622V35.234C16.875 36.6186 15.8396 37.7901 14.466 37.962L10.5761 38.4487C8.02 38.7677 5.60825 39.9489 3.78638 41.7708C1.58637 43.9694 0.375 46.8926 0.375 50.0043V71.875C0.375 74.1493 2.22575 76 4.5 76H7.25C7.734 76 8.19325 75.901 8.625 75.747V85.625H36.125V53.3166L37.753 54.2049C39.1582 54.9707 40.745 55.375 42.3455 55.375ZM67.75 27.875C67.75 29.1235 66.9071 30.1699 65.7645 30.504C64.9876 29.195 63.7158 28.2999 62.25 27.9988V27.875H67.75ZM55.4575 11.4768C56.0075 7.16338 59.5467 3.67775 63.8725 3.18962C66.6582 2.86512 69.3381 3.719 71.4089 5.56838C73.4521 7.39437 74.625 10.0124 74.625 12.75C74.625 16.0363 72.9695 19.0626 70.1975 20.846C68.7441 21.7796 67.8559 23.3664 67.7665 25.125H62.228C62.1263 23.3499 61.2504 21.7714 59.8231 20.8584C56.651 18.8316 54.9776 15.2374 55.4575 11.4768ZM59.302 31.3936C59.7901 30.9055 60.4652 30.625 61.1555 30.625C62.1551 30.625 63.053 31.1791 63.4999 32.0743L64.1502 33.375H66.375C67.1326 33.375 67.75 33.991 67.75 34.75V37.5C67.75 38.259 67.1326 38.875 66.375 38.875H60.0693L55.9443 34.75L59.302 31.3936ZM27.5161 45.3526L24.2189 42.714L26.731 38.9437C26.7585 38.9712 26.786 38.9974 26.8135 39.0235L27.5161 45.3526ZM25.0274 57.6534L22.375 60.3057L19.7226 57.6534L21.7934 45.2261L22.375 44.7614L22.9566 45.2261L25.0274 57.6534ZM17.9186 39.1816C17.9709 39.1307 18.0259 39.084 18.0767 39.0317L20.5311 42.714L17.2339 45.3526L17.9186 39.1816ZM33.375 25.125H33.2801C33.3365 24.674 33.375 24.2161 33.375 23.75V19.625C34.8916 19.625 36.125 20.8584 36.125 22.375C36.125 23.8916 34.8916 25.125 33.375 25.125ZM11.375 25.125C9.85837 25.125 8.625 23.8916 8.625 22.375C8.625 20.8584 9.85837 19.625 11.375 19.625V23.75C11.375 24.2161 11.4135 24.674 11.4699 25.125H11.375ZM11.397 16.875H11.375C10.484 16.875 9.6535 17.1088 8.90825 17.4855C8.72262 16.9121 8.625 16.3167 8.625 15.7131C8.625 14.1704 9.22725 12.7184 10.3176 11.6252L11.375 10.5692V10C11.375 6.20913 14.4591 3.125 18.25 3.125H27.2054C29.0905 3.125 30.625 4.6595 30.625 6.54462C30.625 8.01863 29.6845 9.32212 28.2875 9.78687L27.4405 10.0688L28.3095 12.6785L29.1565 12.3952C30.7845 11.8521 32.0591 10.6765 32.7659 9.19837C34.8407 10.3891 36.125 12.5603 36.125 14.9748C36.125 15.7998 35.9627 16.6206 35.6644 17.3892C34.9659 17.0675 34.1945 16.875 33.375 16.875V14.125H27.149C23.3375 14.125 19.5219 13.2244 16.1146 11.5194L15.5 11.2127L14.8854 11.5208C12.8188 12.5547 11.5125 14.5884 11.397 16.875ZM14.125 23.75V17.1995C14.125 16.0417 14.6681 14.9844 15.5743 14.3106C19.1836 15.9909 23.1684 16.875 27.149 16.875H30.625V23.75C30.625 28.2999 26.9249 32 22.375 32C17.8251 32 14.125 28.2999 14.125 23.75ZM22.375 34.75C23.3265 34.75 24.2436 34.6166 25.125 34.3884V35.0869C25.125 35.4705 25.1745 35.8431 25.2501 36.2075L22.375 40.5209L19.5301 36.2529C19.592 35.9215 19.625 35.5805 19.625 35.234V34.3884C20.5064 34.6166 21.4235 34.75 22.375 34.75ZM5.73063 43.715C7.12213 42.3221 8.96462 41.4215 10.9171 41.1768L14.807 40.69C14.8703 40.6818 14.9266 40.6598 14.9885 40.6501L13.7661 51.6474L18.5772 47.7988L16.7774 58.5966L22.375 64.1943L27.9726 58.5966L26.1727 47.7988L30.9839 51.6474L29.7464 40.5099C29.7684 40.514 29.789 40.5223 29.8124 40.525C31.4363 40.7533 32.9515 41.0984 34.3155 41.5535C37.1205 42.4885 40.0066 44.8796 41.3115 46.0525L40.3958 47.8854L42.8556 49.116L44.1302 46.5654L54 36.6942L57.5557 40.25L47.1855 50.6203C45.893 51.9128 44.1743 52.625 42.3455 52.625C41.2043 52.625 40.0713 52.3363 39.0689 51.7904L36.1484 50.1981C36.2075 49.4061 36.5293 48.6664 37.0971 48.0985L35.1515 46.1542C34.0061 47.2996 33.375 48.8231 33.375 50.4443V66.375H13.9504C13.762 65.7205 13.4279 65.1086 12.9425 64.6233L11.375 63.0557V50.4443C11.375 48.8231 10.7439 47.2996 9.5985 46.1529L7.65288 48.0971C8.27988 48.7241 8.625 49.5588 8.625 50.4443V62.25H3.125V50.0043C3.125 47.6626 4.07512 45.3705 5.73063 43.715ZM7.25 73.25H4.5C3.74237 73.25 3.125 72.634 3.125 71.875V65H9.43075L10.9983 66.5675C11.2375 66.8067 11.375 67.1395 11.375 67.4791C11.375 67.97 11.1014 68.4128 10.6628 68.6314L8.625 69.6503V70.5V71.875C8.625 72.634 8.00763 73.25 7.25 73.25ZM23.75 82.875V78.9727C23.75 76.9652 25.0301 75.1901 26.9345 74.5535L26.0641 71.9465C24.5351 72.4566 23.2633 73.4287 22.3736 74.6759C21.4854 73.4287 20.2121 72.4552 18.6831 71.9465L17.8127 74.5535C19.7199 75.1901 21 76.9652 21 78.9727V82.875H11.375V71.875V71.3497L11.892 71.0912C12.75 70.6622 13.4045 69.9638 13.7771 69.125H33.375V82.875H23.75Z" fill="#050029"/>
<path d="M71.4726 9.59708L69.5283 7.65283L62.2504 14.9307L60.4726 13.1528L58.5283 15.0971L62.2504 18.8192L71.4726 9.59708Z" fill="#050029"/>
<path d="M62.25 69.125V66.9443C62.25 65.1141 60.7609 63.625 58.9307 63.625C58.0576 63.625 57.2024 63.9798 56.5836 64.5971L52.0557 69.125H45.75C43.4757 69.125 41.625 70.9757 41.625 73.25V78.75C41.625 81.0243 43.4757 82.875 45.75 82.875H62.25C64.5243 82.875 66.375 81.0243 66.375 78.75V73.25C66.375 70.9757 64.5243 69.125 62.25 69.125ZM63.625 78.75C63.625 79.509 63.0076 80.125 62.25 80.125H45.75C44.9924 80.125 44.375 79.509 44.375 78.75V73.25C44.375 72.491 44.9924 71.875 45.75 71.875H53.1943L58.5265 66.5428C58.8579 66.2114 59.5 66.4809 59.5 66.9443V71.875H62.25C63.0076 71.875 63.625 72.491 63.625 73.25V78.75Z" fill="#050029"/>
<path d="M47.125 74.625H60.875V77.375H47.125V74.625Z" fill="#050029"/>
<path d="M81.5 44.375H65C62.7257 44.375 60.875 46.2257 60.875 48.5V54C60.875 56.2743 62.7257 58.125 65 58.125V60.3057C65 62.1359 66.4891 63.625 68.3193 63.625C69.1924 63.625 70.0476 63.2702 70.6664 62.6529L75.1943 58.125H81.5C83.7743 58.125 85.625 56.2743 85.625 54V48.5C85.625 46.2257 83.7743 44.375 81.5 44.375ZM82.875 54C82.875 54.759 82.2576 55.375 81.5 55.375H74.0557L68.7235 60.7072C68.3921 61.0386 67.75 60.7691 67.75 60.3057V55.375H65C64.2424 55.375 63.625 54.759 63.625 54V48.5C63.625 47.741 64.2424 47.125 65 47.125H81.5C82.2576 47.125 82.875 47.741 82.875 48.5V54Z" fill="#050029"/>
<path d="M66.375 49.875H80.125V52.625H66.375V49.875Z" fill="#050029"/>
</svg>
