<svg width="68" height="88" viewBox="0 0 68 88" fill="none" xmlns="http://www.w3.org/2000/svg">
<path d="M67.5702 72.8358C67.3746 60.8761 55.1467 57.3427 46.2181 54.7627C45.1763 54.4617 44.1745 54.1721 43.2357 53.883V48.9493C45.061 47.8052 46.6605 46.3327 47.9508 44.6151H53.3896C56.0511 44.6151 58.2165 42.4497 58.2165 39.7882V33.9451C58.5392 33.193 58.7184 32.3652 58.7184 31.496V29.6788C58.7184 28.8105 58.5392 27.9832 58.2165 27.2316V24.2173C58.2165 10.8639 47.353 0 33.9998 0C20.6492 0 9.78783 10.8639 9.78783 24.2175V27.1455C9.78783 27.1686 9.79041 27.1907 9.79127 27.2136C9.46367 27.9702 9.28114 28.8034 9.28114 29.679V31.4962C9.28114 34.9315 12.0738 37.7264 15.5063 37.7264H16.9267C17.9105 42.444 20.8068 46.4676 24.7639 48.9485V53.883C23.8249 54.1721 22.8232 54.4616 21.7815 54.7627C12.8529 57.3427 0.624966 60.8763 0.429371 72.8358C0.429199 72.8452 0.429199 72.8545 0.429199 72.8639V86.2812C0.429199 87.2305 1.19886 88 2.14796 88H7.24373C8.19282 88 8.96248 87.2305 8.96248 86.2812C8.96248 85.332 8.19282 84.5625 7.24373 84.5625H3.86654V72.8782C3.9389 68.7056 5.85566 65.5776 9.89835 63.0347C12.566 61.3567 15.8274 60.1611 19.0421 59.161L23.1948 67.2519C23.6577 68.1537 24.8428 68.4601 25.685 67.8919L27.5366 66.6429L29.1262 72.6178L26.4025 84.5623H22.6776C21.7285 84.5623 20.9589 85.3318 20.9589 86.2811C20.9589 87.2303 21.7285 87.9998 22.6776 87.9998H65.8516C66.8007 87.9998 67.5704 87.2303 67.5704 86.2811V72.8638C67.5704 72.8545 67.5704 72.8452 67.5702 72.8358ZM45.2638 58.0649C45.3771 58.0976 45.4923 58.1311 45.6064 58.1641L42.6352 63.9587L37.0748 60.2093L41.7861 57.0314C42.8806 57.3759 44.0445 57.7126 45.2638 58.0649ZM34.001 62.2826L37.4474 64.6067L35.7818 70.8674H32.2178L30.5526 64.6086L34.001 62.2826ZM34.0006 58.1364L28.2012 54.2257V50.6074C30.0164 51.2494 31.9674 51.6015 33.9996 51.6015C36.0317 51.6015 37.983 51.2506 39.798 50.6086V54.2257L34.0006 58.1364ZM48.0023 24.5318C47.9788 24.5169 47.9554 24.5019 47.9319 24.487C44.4051 22.2419 41.3592 20.303 36.5865 21.6685C36.5422 21.6813 36.4982 21.6957 36.455 21.7118C35.4432 22.0919 34.5231 22.4461 33.6332 22.7887C28.1979 24.8809 25.2303 26.0235 19.9971 25.8764V24.5C19.9971 16.7787 26.2786 10.497 33.9996 10.497C41.7206 10.497 48.0022 16.7787 48.0022 24.5V24.5318H48.0023ZM54.779 39.7882C54.779 40.5544 54.1558 41.1776 53.3896 41.1776H49.9645C50.4481 40.0812 50.8228 38.9264 51.0731 37.7262H52.4934C53.3004 37.7262 54.0709 37.5701 54.7792 37.2891V39.7882H54.779ZM55.2809 31.496C55.2809 33.0359 54.0305 34.2887 52.4933 34.2887H51.4383C51.4386 34.2461 51.44 26.891 51.44 26.891H52.4934C54.0305 26.891 55.2811 28.1415 55.2811 29.6788V31.496H55.2809ZM15.5063 34.2889C13.9692 34.2889 12.7187 33.036 12.7187 31.4962V29.679C12.7187 28.1417 13.969 26.8912 15.5063 26.8912H16.5597C16.5597 26.8912 16.5611 34.2462 16.5614 34.2889H15.5063ZM16.5919 23.4535H15.5061C14.7026 23.4535 13.9352 23.6082 13.2295 23.8866C13.407 12.5806 22.6553 3.43751 33.9998 3.43751C45.3475 3.43751 54.5984 12.5816 54.7747 23.8885C54.0678 23.6088 53.2985 23.4535 52.4933 23.4535H51.4075C50.8644 14.3221 43.2647 7.05945 33.9998 7.05945C24.7347 7.05945 17.135 14.3222 16.5919 23.4535ZM20.1005 35.8332C20.1004 35.8314 20.1 35.8297 20.0999 35.828C20.0347 35.2809 19.9972 34.7254 19.9972 34.1611V29.3137C25.8776 29.4571 29.3854 28.1075 34.8681 25.9969C35.7316 25.6645 36.6242 25.3209 37.5965 24.9553C40.8432 24.049 42.7113 25.2386 46.0859 27.3868C46.6715 27.7596 47.3138 28.1682 48.0023 28.5877V34.1611C48.0023 36.7171 47.3107 39.1131 46.1098 41.1778H33.9998C33.0507 41.1778 32.281 41.9473 32.281 42.8966C32.281 43.8458 33.0507 44.6153 33.9998 44.6153H43.3024C40.827 46.8207 37.5679 48.1642 33.9998 48.1642C26.8448 48.164 20.9298 42.7685 20.1005 35.8332ZM25.3685 63.9589L22.3941 58.1638C22.5078 58.1309 22.6226 58.0976 22.7357 58.0649C23.955 57.7126 25.119 57.3757 26.2138 57.0313L30.927 60.2096L25.3685 63.9589ZM29.9284 84.5625L32.2674 74.3049H35.7326L38.0753 84.5625H29.9284ZM64.1329 84.5625H41.6013L38.8733 72.6176L40.4637 66.6405L42.3198 67.8921C43.1623 68.4601 44.3474 68.1537 44.8101 67.2513L48.9581 59.1613C52.1727 60.1615 55.4339 61.3569 58.1014 63.0347C62.1439 65.5774 64.0608 68.7056 64.1332 72.8782V84.5625H64.1329Z" fill="#050029"/>
<path d="M57.3456 75.9683H48.6836C47.7345 75.9683 46.9648 76.7377 46.9648 77.687C46.9648 78.6363 47.7345 79.4058 48.6836 79.4058H57.3456C58.2947 79.4058 59.0643 78.6363 59.0643 77.687C59.0643 76.7377 58.2948 75.9683 57.3456 75.9683Z" fill="#050029"/>
<path d="M14.9609 84.5625C14.0118 84.5625 13.2422 85.332 13.2422 86.2812C13.2422 87.2305 14.0118 88 14.9609 88H14.9658C15.9148 88 16.6819 87.2305 16.6819 86.2812C16.6819 85.332 15.91 84.5625 14.9609 84.5625Z" fill="#050029"/>
</svg>
