<svg width="16" height="17" viewBox="0 0 16 17" fill="none" xmlns="http://www.w3.org/2000/svg">
<path fill-rule="evenodd" clip-rule="evenodd" d="M4.08289 7.16667H5.33333C6.06971 7.16667 6.66667 6.56971 6.66667 5.83333V3.16667C6.66667 1.69391 5.47276 0.5 4 0.5H1.33333C0.596954 0.5 0 1.09695 0 1.83333C0 9.52441 6.97559 16.5 14.6667 16.5C15.403 16.5 16 15.903 16 15.1667V12.5C16 11.0272 14.8061 9.83333 13.3333 9.83333H10.6667C9.93029 9.83333 9.33333 10.4303 9.33333 11.1667V12.4171C7.27942 11.2965 5.51253 9.58792 4.31477 7.57354L4.08289 7.16667Z" fill="#A682FF"/>
</svg>
