<svg width="88" height="88" viewBox="0 0 88 88" fill="none" xmlns="http://www.w3.org/2000/svg">
<path d="M39.875 85.25H9.625C5.82863 85.25 2.75 82.1714 2.75 78.375V9.625C2.75 5.82863 5.82863 2.75 9.625 2.75H39.875C43.6714 2.75 46.75 5.82863 46.75 9.625V78.375C46.75 82.1714 43.6714 85.25 39.875 85.25Z" fill="#D0C8D0"/>
<path d="M24.75 79.75C26.2688 79.75 27.5 78.5188 27.5 77C27.5 75.4812 26.2688 74.25 24.75 74.25C23.2312 74.25 22 75.4812 22 77C22 78.5188 23.2312 79.75 24.75 79.75Z" fill="#D0C8D0"/>
<path d="M2.75 13.75H46.75V68.75H2.75V13.75Z" fill="#D0C8D0"/>
<path d="M2.75 61.3924C4.31888 61.7086 5.92488 61.875 7.5625 61.875C24.6482 61.875 38.5 44.022 38.5 22C38.5 19.1716 38.2676 16.412 37.8331 13.75H2.75V61.3924Z" fill="#D0C8D0"/>
<path d="M30.25 22H63.25V52.25H30.25V22Z" fill="#D0C8D0"/>
<path d="M30.25 22V43.8089C31.1534 43.9244 32.0677 44 33 44C44.836 44 54.5916 34.419 56.1371 22H30.25Z" fill="#D0C8D0"/>
<path d="M42.625 22V35.75L46.75 31.625L50.875 35.75V22H42.625Z" fill="#D0C8D0"/>
<path d="M68.75 35.75C75.5845 35.75 81.125 30.2095 81.125 23.375C81.125 16.5405 75.5845 11 68.75 11C61.9155 11 56.375 16.5405 56.375 23.375C56.375 30.2095 61.9155 35.75 68.75 35.75Z" fill="#D0C8D0"/>
<path d="M56.375 23.375C56.375 25.9188 57.145 28.2824 58.4609 30.2486C67.9429 30.2363 75.625 22.8553 75.625 13.75C75.625 13.519 75.5989 13.2935 75.5892 13.0652C73.6299 11.7617 71.28 11 68.75 11C61.9149 11 56.375 16.5399 56.375 23.375Z" fill="#D0C8D0"/>
<path d="M15.125 44L9.84775 36.6121C8.80825 35.1574 8.25 33.4139 8.25 31.625C8.25 29.8636 8.94988 28.1751 10.1943 26.9308L10.4307 26.6942C11.6751 25.4499 13.3636 24.75 15.125 24.75C16.8864 24.75 18.5749 25.4499 19.8192 26.6942L20.0558 26.9308C21.3001 28.1751 22 29.8636 22 31.625C22 33.4139 21.4418 35.1574 20.4023 36.6121L15.125 44Z" fill="#D0C8D0"/>
<path d="M15.125 24.75C13.3636 24.75 11.6751 25.4499 10.4308 26.6942L10.1943 26.9308C8.94988 28.1751 8.25 29.8636 8.25 31.625C8.25 33.4139 8.80825 35.1574 9.84775 36.6121L11.077 38.3322C15.4743 37.4124 18.8898 32.4019 19.2143 26.1979C18.0496 25.2807 16.6224 24.75 15.125 24.75Z" fill="#D0C8D0"/>
<path d="M78.375 82.5L73.0977 75.1121C72.0582 73.6574 71.5 71.9139 71.5 70.125C71.5 68.3636 72.1999 66.6751 73.4443 65.4307L73.6807 65.1943C74.9251 63.9499 76.6136 63.25 78.375 63.25C80.1364 63.25 81.8249 63.9499 83.0693 65.1943L83.3057 65.4307C84.5501 66.6751 85.25 68.3636 85.25 70.125C85.25 71.9139 84.6918 73.6574 83.6523 75.1121L78.375 82.5Z" fill="#D0C8D0"/>
<path d="M78.375 63.25C76.6136 63.25 74.9251 63.9499 73.6807 65.1943L73.4443 65.4307C72.1999 66.6751 71.5 68.3636 71.5 70.125C71.5 71.9139 72.0582 73.6574 73.0977 75.1121L74.327 76.8322C78.7242 75.9124 82.1397 70.9019 82.4642 64.6979C81.2996 63.7808 79.8724 63.25 78.375 63.25Z" fill="#D0C8D0"/>
<path d="M39.875 86.625H9.625C5.07512 86.625 1.375 82.9249 1.375 78.375V9.625C1.375 5.07512 5.07512 1.375 9.625 1.375H39.875C44.4249 1.375 48.125 5.07512 48.125 9.625V22H45.375V9.625C45.375 6.59175 42.9082 4.125 39.875 4.125H9.625C6.59175 4.125 4.125 6.59175 4.125 9.625V78.375C4.125 81.4082 6.59175 83.875 9.625 83.875H39.875C42.9082 83.875 45.375 81.4082 45.375 78.375V52.25H48.125V78.375C48.125 82.9249 44.4249 86.625 39.875 86.625Z" fill="#050029"/>
<path d="M2.75 12.375H46.75V15.125H2.75V12.375Z" fill="#050029"/>
<path d="M20.625 6.875H28.875V9.625H20.625V6.875Z" fill="#050029"/>
<path d="M2.75 67.375H46.75V70.125H2.75V67.375Z" fill="#050029"/>
<path d="M24.75 81.125C22.4757 81.125 20.625 79.2743 20.625 77C20.625 74.7257 22.4757 72.875 24.75 72.875C27.0243 72.875 28.875 74.7257 28.875 77C28.875 79.2743 27.0243 81.125 24.75 81.125ZM24.75 75.625C23.9924 75.625 23.375 76.241 23.375 77C23.375 77.759 23.9924 78.375 24.75 78.375C25.5076 78.375 26.125 77.759 26.125 77C26.125 76.241 25.5076 75.625 24.75 75.625Z" fill="#050029"/>
<path d="M63.25 53.625H30.25C29.491 53.625 28.875 53.0104 28.875 52.25V22C28.875 21.2396 29.491 20.625 30.25 20.625H56.375V23.375H31.625V50.875H61.875V34.375H64.625V52.25C64.625 53.0104 64.009 53.625 63.25 53.625Z" fill="#050029"/>
<path d="M50.875 37.125C50.5175 37.125 50.1655 36.9848 49.9029 36.7221L46.75 33.5693L43.5971 36.7221C43.2025 37.1154 42.6126 37.235 42.0984 37.0205C41.5855 36.8088 41.25 36.3055 41.25 35.75V22H44V32.4308L45.7779 30.6529C46.3155 30.1153 47.1845 30.1153 47.7221 30.6529L49.5 32.4308V22H52.25V35.75C52.25 36.3055 51.9145 36.8088 51.4016 37.0205C51.2311 37.092 51.0524 37.125 50.875 37.125Z" fill="#050029"/>
<path d="M30.25 45.375H63.25V48.125H30.25V45.375Z" fill="#050029"/>
<path d="M15.125 45.375C14.6809 45.375 14.2643 45.1605 14.0071 44.7989L8.73125 37.4124C7.51575 35.7156 6.875 33.7136 6.875 31.625C6.875 29.5157 7.73025 27.4505 9.22212 25.9586L9.45863 25.7221C10.9711 24.2083 12.9841 23.375 15.125 23.375C17.2659 23.375 19.2789 24.2083 20.7914 25.7221L21.0279 25.9586C22.5198 27.4505 23.375 29.5157 23.375 31.625C23.375 33.7136 22.7343 35.7156 21.5201 37.4124L16.2443 44.7989C15.9858 45.1605 15.5691 45.375 15.125 45.375ZM15.125 26.125C13.7197 26.125 12.397 26.6723 11.4029 27.6664L11.1664 27.9029C10.1874 28.8832 9.625 30.239 9.625 31.625C9.625 33.1375 10.0884 34.584 10.967 35.8146L15.125 41.6336L19.2816 35.8146C20.1616 34.584 20.625 33.1375 20.625 31.625C20.625 30.239 20.0626 28.8832 19.0836 27.9029L18.8471 27.6664C17.853 26.6723 16.5302 26.125 15.125 26.125Z" fill="#050029"/>
<path d="M78.375 83.875C77.9309 83.875 77.5143 83.6605 77.2571 83.2989L71.9812 75.9124C70.7657 74.2156 70.125 72.2136 70.125 70.125C70.125 68.0157 70.9803 65.9505 72.4721 64.4586L72.7086 64.2221C74.2211 62.7083 76.2341 61.875 78.375 61.875C80.5159 61.875 82.5289 62.7083 84.0414 64.2221L84.2779 64.4586C85.7697 65.9505 86.625 68.0157 86.625 70.125C86.625 72.2136 85.9843 74.2156 84.7701 75.9124L79.4942 83.2989C79.2357 83.6605 78.8191 83.875 78.375 83.875ZM78.375 64.625C76.9697 64.625 75.647 65.1722 74.6529 66.1664L74.4164 66.4029C73.4374 67.3832 72.875 68.739 72.875 70.125C72.875 71.6375 73.3384 73.084 74.217 74.3146L78.375 80.1336L82.5316 74.3146C83.4116 73.084 83.875 71.6375 83.875 70.125C83.875 68.739 83.3126 67.3832 82.3336 66.4029L82.0971 66.1664C81.103 65.1722 79.7802 64.625 78.375 64.625Z" fill="#050029"/>
<path d="M13.75 48.125H16.5V50.875H13.75V48.125Z" fill="#050029"/>
<path d="M13.75 53.625H16.5V56.375H13.75V53.625Z" fill="#050029"/>
<path d="M13.75 59.125H16.5V61.875H13.75V59.125Z" fill="#050029"/>
<path d="M19.25 59.125H22V61.875H19.25V59.125Z" fill="#050029"/>
<path d="M24.75 59.125H27.5V61.875H24.75V59.125Z" fill="#050029"/>
<path d="M30.25 59.125H33V61.875H30.25V59.125Z" fill="#050029"/>
<path d="M35.75 59.125H38.5V61.875H35.75V59.125Z" fill="#050029"/>
<path d="M41.25 59.125H44V61.875H41.25V59.125Z" fill="#050029"/>
<path d="M49.5 59.125H52.25V61.875H49.5V59.125Z" fill="#050029"/>
<path d="M55 59.125H57.75V61.875H55V59.125Z" fill="#050029"/>
<path d="M55 64.625H57.75V67.375H55V64.625Z" fill="#050029"/>
<path d="M55 70.125H57.75V72.875H55V70.125Z" fill="#050029"/>
<path d="M55 75.625H57.75V78.375H55V75.625Z" fill="#050029"/>
<path d="M55 81.125H57.75V83.875H55V81.125Z" fill="#050029"/>
<path d="M60.5 81.125H63.25V83.875H60.5V81.125Z" fill="#050029"/>
<path d="M66 81.125H68.75V83.875H66V81.125Z" fill="#050029"/>
<path d="M71.5 81.125H74.25V83.875H71.5V81.125Z" fill="#050029"/>
<path d="M68.75 37.125C61.1683 37.125 55 30.9567 55 23.375C55 15.7933 61.1683 9.625 68.75 9.625C76.3317 9.625 82.5 15.7933 82.5 23.375C82.5 30.9567 76.3317 37.125 68.75 37.125ZM68.75 12.375C62.6849 12.375 57.75 17.3099 57.75 23.375C57.75 29.4401 62.6849 34.375 68.75 34.375C74.8151 34.375 79.75 29.4401 79.75 23.375C79.75 17.3099 74.8151 12.375 68.75 12.375Z" fill="#050029"/>
<path d="M66.0004 28.875C65.6484 28.875 65.2964 28.7402 65.0283 28.4721L62.2783 25.7221L64.2226 23.7778L66.0004 25.5557L73.2783 18.2778L75.2226 20.2221L66.9726 28.4721C66.7044 28.7402 66.3524 28.875 66.0004 28.875Z" fill="#050029"/>
</svg>
