<svg width="88" height="88" viewBox="0 0 88 88" fill="none" xmlns="http://www.w3.org/2000/svg">
<path fill-rule="evenodd" clip-rule="evenodd" d="M47.8252 10.8367C53.7059 10.8367 58.8996 16.5259 62.0081 25.2009C65.8329 24.2658 69.258 22.9652 72.113 21.3822C66.047 14.8941 57.4088 10.8367 47.8252 10.8367Z" fill="#D0C8D0"/>
<path fill-rule="evenodd" clip-rule="evenodd" d="M14.3874 9.76514C11.6931 9.76514 9.51025 11.9473 9.51025 14.6409C9.51025 17.3345 11.6931 19.5214 14.3874 19.5214C17.0817 19.5214 19.2693 17.3345 19.2693 14.6409C19.2693 11.9473 17.0817 9.76514 14.3874 9.76514Z" fill="#D0C8D0"/>
<path fill-rule="evenodd" clip-rule="evenodd" d="M1.71976 14.6408C1.64672 21.5574 5.5347 25.9315 9.4519 31.1482L12.2339 34.3678C12.8916 35.1276 13.6371 35.5125 14.3873 35.5125C14.8794 35.5125 15.3715 35.3468 15.8343 35.0206C16.0779 34.8452 16.3166 34.6309 16.5457 34.3678L19.3277 31.1482C21.5883 28.1332 23.8394 25.4005 25.3252 22.2979C25.91 21.0801 26.3776 19.804 26.6748 18.4303C26.933 17.2466 27.0742 15.9949 27.0596 14.6408C27.0596 7.6462 21.3836 1.97656 14.3871 1.97656C7.39061 1.97656 1.71976 7.6462 1.71976 14.6408ZM14.3875 19.5214C11.6932 19.5214 9.51034 17.3345 9.51034 14.6408C9.51034 11.9472 11.6932 9.76508 14.3875 9.76508C17.0818 9.76508 19.2694 11.9472 19.2694 14.6408C19.2694 17.3345 17.0818 19.5214 14.3875 19.5214Z" fill="#D0C8D0"/>
<path fill-rule="evenodd" clip-rule="evenodd" d="M47.8253 10.8367C39.791 10.8367 32.4243 13.6862 26.6752 18.4303C26.3781 19.8039 25.9102 21.0801 25.3257 22.2978C27.7861 23.4717 30.5876 24.4555 33.6425 25.2008C36.7507 16.5257 41.9446 10.8367 47.8253 10.8367Z" fill="#D0C8D0"/>
<path fill-rule="evenodd" clip-rule="evenodd" d="M47.8255 10.8367C41.9448 10.8367 36.7511 16.5259 33.6426 25.2009C37.9448 26.258 42.7535 26.8473 47.8255 26.8473V10.8367Z" fill="#D0C8D0"/>
<path fill-rule="evenodd" clip-rule="evenodd" d="M47.8252 10.8367V26.8472C52.8971 26.8472 57.7059 26.2578 62.0081 25.2008C58.8996 16.5257 53.7059 10.8367 47.8252 10.8367Z" fill="#D0C8D0"/>
<path fill-rule="evenodd" clip-rule="evenodd" d="M62.0083 25.2007C63.928 30.5588 65.0486 37.0613 65.0486 44.0656H81.0634C81.0634 35.2931 77.6627 27.3194 72.1132 21.3818C69.2582 22.965 65.833 24.2656 62.0083 25.2007Z" fill="#D0C8D0"/>
<path fill-rule="evenodd" clip-rule="evenodd" d="M47.8252 26.8471V44.0658H65.0483C65.0483 37.0615 63.9276 30.5588 62.008 25.2009C57.7059 26.2578 52.8971 26.8471 47.8252 26.8471Z" fill="#D0C8D0"/>
<path fill-rule="evenodd" clip-rule="evenodd" d="M33.6423 25.2008C31.7227 30.5588 30.6021 37.0614 30.6021 44.0656H47.8251V26.8472C42.7533 26.8472 37.9446 26.2578 33.6423 25.2008Z" fill="#D0C8D0"/>
<path fill-rule="evenodd" clip-rule="evenodd" d="M15.8342 35.0206C15.0254 37.8944 14.5869 40.929 14.5869 44.0659H30.6017C30.6017 37.0617 31.7223 30.5589 33.642 25.2011C30.5871 24.4558 27.7857 23.4718 25.3251 22.2981C23.8391 25.4008 21.5882 28.1334 19.3276 31.1485L16.5456 34.368C16.3165 34.631 16.0778 34.8453 15.8342 35.0206Z" fill="#D0C8D0"/>
<path fill-rule="evenodd" clip-rule="evenodd" d="M14.5869 44.0658C14.5869 52.8333 17.9876 60.8119 23.5371 66.7495C26.3921 65.1665 29.8174 63.866 33.642 62.9258C31.7223 57.5678 30.6017 51.07 30.6017 44.0658H14.5869Z" fill="#D0C8D0"/>
<path fill-rule="evenodd" clip-rule="evenodd" d="M30.6021 44.0658C30.6021 51.07 31.7227 57.5678 33.6423 62.9258C37.9446 61.8738 42.7533 61.2844 47.8253 61.2844V44.0658H30.6021Z" fill="#D0C8D0"/>
<path fill-rule="evenodd" clip-rule="evenodd" d="M47.8252 44.0658V61.2844C50.7388 61.2844 53.5646 61.4793 56.2589 61.8445V56.0044H63.9034C64.644 52.2977 65.0484 48.2743 65.0484 44.066H47.8252V44.0658Z" fill="#D0C8D0"/>
<path fill-rule="evenodd" clip-rule="evenodd" d="M65.0484 44.0658C65.0484 48.2742 64.6439 52.2976 63.9033 56.0042H65.8474H76.6929H78.8513C80.2789 52.2976 81.0633 48.2742 81.0633 44.0658H65.0484Z" fill="#D0C8D0"/>
<path fill-rule="evenodd" clip-rule="evenodd" d="M47.8252 61.2843V77.2948C50.7388 77.2948 53.5646 76.9198 56.2589 76.2135V61.8444C53.5646 61.4792 50.7386 61.2843 47.8252 61.2843Z" fill="#D0C8D0"/>
<path fill-rule="evenodd" clip-rule="evenodd" d="M33.6426 62.9258C36.7511 71.6057 41.9448 77.2949 47.8255 77.2949V61.2844C42.7535 61.2843 37.9448 61.8736 33.6426 62.9258Z" fill="#D0C8D0"/>
<path fill-rule="evenodd" clip-rule="evenodd" d="M23.5376 66.7494C29.6034 73.2373 38.2418 77.2948 47.8254 77.2948C41.9447 77.2948 36.751 71.6055 33.6425 62.9257C29.8177 63.8658 26.3926 65.1664 23.5376 66.7494Z" fill="#D0C8D0"/>
<path fill-rule="evenodd" clip-rule="evenodd" d="M56.2588 61.8444V76.2135V85.0883V86.0234H86.2811V85.0883V56.0043H78.8511H76.6927V68.4104L71.2698 65.069L65.8472 68.4104V56.0043H63.9031H56.2588V61.8444Z" fill="#D0C8D0"/>
<path fill-rule="evenodd" clip-rule="evenodd" d="M65.8477 56.0043V68.4104L71.2703 65.069L76.6931 68.4104V56.0043H65.8477Z" fill="#D0C8D0"/>
<path d="M14.3874 21.2402C10.7505 21.2402 7.7915 18.2797 7.7915 14.6409C7.7915 11.0047 10.7505 8.04639 14.3874 8.04639C18.027 8.04639 20.9879 11.0047 20.9879 14.6409C20.9879 18.2798 18.027 21.2402 14.3874 21.2402ZM14.3874 11.4839C12.6458 11.4839 11.229 12.9001 11.229 14.6409C11.229 16.3844 12.6458 17.8027 14.3874 17.8027C16.1314 17.8027 17.5504 16.3844 17.5504 14.6409C17.5504 12.9001 16.1316 11.4839 14.3874 11.4839Z" fill="#050029"/>
<path d="M86.2812 54.2855H81.2608C82.2707 50.9841 82.782 47.557 82.782 44.0658C82.782 24.7955 67.1005 9.11797 47.8253 9.11797C41.0503 9.11797 34.4181 11.1021 28.7779 14.7625C28.7777 14.7187 28.7791 14.6757 28.7786 14.6315C28.7739 6.70467 22.3199 0.257812 14.3875 0.257812C6.45769 0.257812 0.00567369 6.70467 0.00103307 14.6315C-0.0682326 21.4825 3.35655 25.9774 6.9826 30.7362C7.34508 31.212 10.9343 35.4927 10.9343 35.4927C11.8331 36.531 12.7712 36.975 13.5582 37.1422C13.1008 39.4176 12.8685 41.7366 12.8685 44.0657C12.8685 63.3359 28.55 79.0135 47.8253 79.0135C50.0878 79.0135 52.3377 78.7964 54.5401 78.3673V86.0234C54.5401 86.9727 55.3097 87.7422 56.2588 87.7422H63.5527C64.5018 87.7422 65.2714 86.9727 65.2714 86.0234C65.2714 85.0742 64.5018 84.3047 63.5527 84.3047H57.9776V57.723H64.1286V68.4104C64.1286 69.0332 64.4657 69.6073 65.0095 69.911C65.553 70.2145 66.2186 70.2005 66.749 69.8737L71.27 67.088L75.7912 69.8737C76.0672 70.0437 76.3799 70.1291 76.6929 70.1291C76.9813 70.1291 77.27 70.0566 77.5309 69.911C78.0746 69.6073 78.4116 69.0332 78.4116 68.4104V57.723C78.4116 57.723 78.8471 57.7235 78.8509 57.7235C78.8554 57.7235 84.5625 57.723 84.5625 57.723V84.3047H78.9876C78.0385 84.3047 77.2688 85.0742 77.2688 86.0234C77.2688 86.9727 78.0385 87.7422 78.9876 87.7422H86.2812C87.2303 87.7422 88 86.9727 88 86.0234V56.0043C88 55.055 87.2305 54.2855 86.2812 54.2855ZM28.221 19.3911C31.1279 17.082 34.4138 15.3178 37.9058 14.1606C36.531 15.7034 35.2593 17.5821 34.1211 19.7778C33.5668 20.8472 33.0541 21.9747 32.5832 23.1509C30.8211 22.6603 29.1442 22.0823 27.5748 21.422C27.8236 20.7656 28.0435 20.0917 28.221 19.3911ZM31.4303 26.3945C29.9217 31.2067 29.0512 36.6542 28.9053 42.3471H16.3567C16.4742 40.2004 16.8078 38.072 17.3554 35.9944C17.5249 35.8399 17.6894 35.673 17.8465 35.4917C17.8465 35.4917 21.4349 31.2122 21.7972 30.7364C23.3575 28.6889 24.8786 26.6891 26.1018 24.5305C27.7748 25.2414 29.5587 25.8643 31.4303 26.3945ZM14.3875 33.7937C14.1475 33.7937 13.8363 33.593 13.5343 33.2441C13.5343 33.2441 10.0724 29.1196 9.71696 28.6529C6.31572 24.1892 3.37855 20.3344 3.43836 14.659C3.43853 14.653 3.43853 14.647 3.43853 14.641C3.43853 8.60561 8.3502 3.69548 14.3875 3.69548C20.4275 3.69548 25.3411 8.60561 25.3411 14.641C25.3411 14.647 25.3411 14.653 25.3413 14.6592C25.4012 20.3345 22.4639 24.1893 19.0628 28.6531C18.7074 29.1199 15.2463 33.2432 15.2463 33.2432C14.9435 33.593 14.6302 33.7937 14.3875 33.7937ZM16.3537 45.7846H28.9053C29.051 51.4731 29.9203 56.9168 31.4268 61.7262C28.7284 62.4922 26.2111 63.4526 23.936 64.5965C19.5338 59.4841 16.741 52.949 16.3537 45.7846ZM26.4528 67.2031C28.3274 66.34 30.3885 65.5978 32.5861 64.988C33.0564 66.1616 33.5681 67.2867 34.1213 68.354C35.2612 70.553 36.535 72.4341 37.9124 73.9783C33.6077 72.5486 29.7125 70.2147 26.4528 67.2031ZM46.1065 75.3735C42.806 74.6004 39.6839 71.6152 37.173 66.7719C36.7438 65.9438 36.3418 65.0767 35.9662 64.1761C39.1805 63.5181 42.6056 63.1245 46.1063 63.0273V75.3735H46.1065ZM46.1065 59.5877C42.1546 59.6879 38.3357 60.1336 34.7667 60.8972C33.325 56.3741 32.49 51.2093 32.3443 45.7846H46.1065V59.5877ZM46.1065 42.3471H32.3443C32.4902 36.9179 33.3264 31.7491 34.7701 27.2233C38.3544 27.9914 42.1817 28.4414 46.1063 28.5433V42.3471H46.1065ZM46.1065 25.1042C42.5935 25.0085 39.1731 24.6206 35.963 23.9637C36.3394 23.0601 36.7426 22.1903 37.1731 21.3598C39.6839 16.5163 42.806 13.5312 46.1067 12.7581V25.1042H46.1065ZM49.544 12.7578C52.8461 13.5307 55.9687 16.516 58.4789 21.3596C58.9081 22.1875 59.3099 23.0548 59.6853 23.9553C56.4707 24.6134 53.0451 25.007 49.544 25.1042V12.7578ZM54.5401 74.8555C52.9011 75.2108 51.2299 75.4354 49.544 75.5263V63.0283C51.2279 63.0742 52.8987 63.1878 54.5401 63.3676V74.8555ZM62.4752 54.2855H56.2588C55.3097 54.2855 54.5401 55.055 54.5401 56.0043V59.91C52.8956 59.74 51.2251 59.6336 49.544 59.5901V45.7848H63.3036C63.2251 48.6958 62.9494 51.5441 62.4752 54.2855ZM49.544 42.3471V28.5438C53.4963 28.4436 57.3155 27.9978 60.8847 27.2341C62.3258 31.757 63.1603 36.9217 63.306 42.3471H49.544ZM63.0656 23.1433C62.5955 21.9699 62.084 20.845 61.5309 19.7778C60.3915 17.5792 59.118 15.6982 57.7409 14.1542C62.0443 15.5837 65.9386 17.9173 69.1977 20.9284C67.3234 21.7915 65.2627 22.5337 63.0656 23.1433ZM64.2245 26.4052C66.9226 25.6391 69.4397 24.6787 71.7145 23.535C76.1169 28.6473 78.9095 35.1825 79.2968 42.3469H66.7451C66.5993 36.658 65.7303 31.2144 64.2245 26.4052ZM74.9741 65.3324L72.1717 63.6056C71.6189 63.2651 70.9215 63.265 70.3684 63.6056L67.5661 65.3323V57.7228H74.9741V65.3324ZM77.6459 54.2855H65.9562C66.4037 51.5328 66.6667 48.6869 66.742 45.7846H79.2968C79.1402 48.6925 78.5874 51.541 77.6459 54.2855Z" fill="#050029"/>
<path d="M71.27 84.3047C70.3209 84.3047 69.5513 85.0742 69.5513 86.0234C69.5513 86.9727 70.3209 87.7422 71.27 87.7422H71.2798C72.2289 87.7422 72.9938 86.9727 72.9938 86.0234C72.9938 85.0742 72.2193 84.3047 71.27 84.3047Z" fill="#050029"/>
</svg>
