<svg width="88" height="88" viewBox="0 0 88 88" fill="none" xmlns="http://www.w3.org/2000/svg">
<path d="M48.125 13.75H37.125V72.875H48.125V13.75Z" fill="#D0C8D0"/>
<path d="M59.125 26.125H48.125V72.875H59.125V26.125Z" fill="#D0C8D0"/>
<path d="M70.125 38.5H59.125V72.875H70.125V38.5Z" fill="#D0C8D0"/>
<path d="M81.125 50.875H70.125V72.875H81.125V50.875Z" fill="#D0C8D0"/>
<path d="M30.25 35.7499L32.7247 28.1135C32.9011 27.5691 32.8566 26.9771 32.6006 26.4653C32.4725 26.209 32.2952 25.9805 32.0788 25.7928C31.8623 25.6051 31.611 25.4619 31.3392 25.3713C31.0674 25.2807 30.7805 25.2445 30.4947 25.2648C30.2089 25.2851 29.93 25.3615 29.6737 25.4896L28.875 25.889L28.0695 25.0835C27.8142 24.8282 27.511 24.6256 27.1774 24.4874C26.8437 24.3492 26.4861 24.2781 26.125 24.2781C25.7639 24.2781 25.4063 24.3492 25.0726 24.4874C24.739 24.6256 24.4358 24.8282 24.1805 25.0835L23.375 25.889L22.5763 25.4896C22.0588 25.2309 21.4597 25.1883 20.9108 25.3713C20.3619 25.5542 19.9081 25.9478 19.6494 26.4653C19.3934 26.9771 19.3489 27.5691 19.5253 28.1135L22 35.7499L18.1311 37.6843C15.9883 38.7557 14.1862 40.4027 12.9267 42.4406C11.6671 44.4786 11 46.827 11 49.2227V49.2228C11 50.5964 10.691 51.9524 10.096 53.1904C9.50098 54.4285 8.63511 55.5168 7.5625 56.3749C6.48989 57.233 5.62402 58.3213 5.02899 59.5594C4.43395 60.7974 4.125 62.1534 4.125 63.527V65.7351C4.125 66.8183 4.3317 67.8916 4.73401 68.8974C5.36602 70.4774 6.45699 71.8319 7.86615 72.7859C9.27532 73.74 10.938 74.2499 12.6398 74.2499H39.6102C41.312 74.2499 42.9747 73.74 44.3838 72.7859C45.793 71.8319 46.884 70.4775 47.516 68.8974C47.9183 67.8916 48.125 66.8183 48.125 65.7351V63.527C48.125 62.1534 47.816 60.7974 47.221 59.5594C46.626 58.3213 45.7601 57.233 44.6875 56.3749C43.6149 55.5168 42.749 54.4285 42.154 53.1904C41.559 51.9524 41.25 50.5964 41.25 49.2228V49.2227C41.25 46.827 40.5829 44.4786 39.3233 42.4406C38.0638 40.4027 36.2617 38.7557 34.1189 37.6843L30.25 35.7499Z" fill="#D0C8D0"/>
<path d="M27.5 48.125H24.75V51.1115C23.8326 51.4358 23.0594 52.074 22.567 52.9133C22.0747 53.7526 21.8949 54.7389 22.0594 55.6979C22.224 56.6569 22.7223 57.5269 23.4663 58.154C24.2102 58.7812 25.152 59.1251 26.125 59.125C26.4897 59.125 26.8394 59.2699 27.0973 59.5277C27.3551 59.7856 27.5 60.1353 27.5 60.5C27.5 60.8647 27.3551 61.2144 27.0973 61.4723C26.8394 61.7301 26.4897 61.875 26.125 61.875H22V64.625H24.75V67.375H27.5V64.3885C28.4174 64.0642 29.1906 63.426 29.683 62.5867C30.1754 61.7474 30.3552 60.7611 30.1906 59.8021C30.026 58.8431 29.5277 57.9731 28.7838 57.346C28.0398 56.7188 27.098 56.3749 26.125 56.375C25.7603 56.375 25.4106 56.2301 25.1527 55.9723C24.8949 55.7144 24.75 55.3647 24.75 55C24.75 54.6353 24.8949 54.2856 25.1527 54.0277C25.4106 53.7699 25.7603 53.625 26.125 53.625H30.25V50.875H27.5V48.125Z" fill="#050029"/>
<path d="M49.5 50.875H46.75V53.625H49.5V50.875Z" fill="#050029"/>
<path d="M82.5 50.875C82.5 50.5103 82.3552 50.1606 82.0973 49.9027C81.8394 49.6449 81.4897 49.5 81.125 49.5H71.5V38.5C71.5 38.1353 71.3552 37.7856 71.0973 37.5277C70.8394 37.2699 70.4897 37.125 70.125 37.125H60.5V26.125C60.5 25.7603 60.3552 25.4106 60.0973 25.1527C59.8394 24.8949 59.4897 24.75 59.125 24.75H49.5V13.75C49.5 13.3853 49.3552 13.0356 49.0973 12.7777C48.8394 12.5199 48.4897 12.375 48.125 12.375H37.125C36.7604 12.375 36.4106 12.5199 36.1528 12.7777C35.8949 13.0356 35.75 13.3853 35.75 13.75V34.375H38.5V15.125H46.75V48.125H49.5V27.5H57.75V71.5H47.6497C48.1128 70.8509 48.4965 70.1487 48.7926 69.4083C49.261 68.2404 49.5011 66.9935 49.5 65.7351V63.5271C49.5038 61.9467 49.1501 60.3858 48.4654 58.9614C47.7808 57.5369 46.7829 56.2857 45.5465 55.3013C44.6328 54.5739 43.8954 53.6493 43.3895 52.5967C42.8836 51.5441 42.6223 50.3907 42.625 49.2229C42.634 46.5699 41.8995 43.9674 40.5047 41.7106C39.11 39.4539 37.1107 37.633 34.7338 36.4546L31.9226 35.0491L34.0328 28.5375C34.2463 27.8787 34.2628 27.1719 34.0803 26.5038C33.8979 25.8358 33.5243 25.2355 33.0055 24.7768C32.4868 24.318 31.8454 24.0206 31.16 23.9212C30.4747 23.8218 29.7752 23.9246 29.1475 24.2171L29.0419 24.1115C28.6589 23.7284 28.2042 23.4246 27.7037 23.2172C27.2032 23.0099 26.6669 22.9032 26.1252 22.9032C25.5835 22.9032 25.0471 23.0099 24.5466 23.2171C24.0461 23.4244 23.5914 23.7283 23.2084 24.1113L23.1026 24.2171C22.4749 23.9247 21.7754 23.8218 21.0901 23.9213C20.4047 24.0207 19.7633 24.3181 19.2446 24.7768C18.7258 25.2356 18.3523 25.8358 18.1698 26.5038C17.9873 27.1719 18.0038 27.8787 18.2173 28.5375L20.3274 35.0491L17.5163 36.4546C15.1393 37.633 13.1401 39.4539 11.7453 41.7106C10.3506 43.9674 9.61603 46.5699 9.62503 49.2229C9.62779 50.3907 9.36644 51.5441 8.86053 52.5967C8.35462 53.6493 7.61725 54.5739 6.70357 55.3013C5.46712 56.2857 4.46926 57.5369 3.78463 58.9614C3.09999 60.3858 2.74631 61.9467 2.75003 63.5271V65.7351C2.75006 68.3581 3.79203 70.8736 5.64671 72.7283C7.50139 74.583 10.0169 75.6249 12.6398 75.625H39.6103C41.3854 75.6282 43.1287 75.1532 44.6569 74.25H85.25V71.5H82.5V50.875ZM20.8793 27.0802C20.9265 26.9854 20.992 26.9008 21.072 26.8313C21.152 26.7618 21.245 26.7087 21.3455 26.6752C21.446 26.6417 21.5522 26.6284 21.6579 26.636C21.7636 26.6436 21.8667 26.672 21.9614 26.7195L22.7602 27.1188C23.0183 27.2479 23.3104 27.2925 23.5953 27.2463C23.8801 27.2 24.1432 27.0654 24.3472 26.8613L25.1529 26.0558C25.2805 25.9282 25.4321 25.8269 25.599 25.7578C25.7658 25.6887 25.9446 25.6532 26.1251 25.6532C26.3057 25.6532 26.4845 25.6888 26.6513 25.7579C26.8181 25.827 26.9697 25.9283 27.0974 26.056L27.9029 26.8613C28.1069 27.0654 28.37 27.2 28.6548 27.2462C28.9396 27.2924 29.2318 27.2478 29.4899 27.1188L30.2886 26.7195C30.4308 26.6485 30.5909 26.621 30.7486 26.6406C30.9064 26.6602 31.0548 26.7259 31.1753 26.8296C31.2958 26.9332 31.3831 27.0702 31.426 27.2232C31.469 27.3763 31.4657 27.5386 31.4167 27.6898L29.2502 34.375H22.9998L20.8333 27.6898C20.7676 27.4885 20.7841 27.2694 20.8793 27.0802ZM12.6398 72.875C10.7462 72.875 8.9302 72.1227 7.59124 70.7837C6.25227 69.4448 5.50005 67.6287 5.50003 65.7351V63.5271C5.49727 62.3593 5.75862 61.2059 6.26453 60.1533C6.77044 59.1007 7.50781 58.1761 8.42148 57.4487C9.65793 56.4643 10.6558 55.2131 11.3404 53.7886C12.0251 52.3642 12.3788 50.8033 12.375 49.2229C12.3678 47.081 12.9608 44.9798 14.0869 43.1578C15.213 41.3357 16.827 39.8657 18.7461 38.9142L22.3246 37.125H22.5252L19.3952 43.385L21.8548 44.615L25.5998 37.125H26.6502L30.3952 44.615L32.8548 43.385L29.7248 37.125H29.9255L33.504 38.9142C35.423 39.8657 37.0371 41.3357 38.1632 43.1578C39.2893 44.9798 39.8823 47.081 39.875 49.2229C39.8713 50.8033 40.225 52.3642 40.9096 53.7886C41.5943 55.2131 42.5921 56.4643 43.8286 57.4487C44.7422 58.1761 45.4796 59.1007 45.9855 60.1533C46.4914 61.2059 46.7528 62.3593 46.75 63.5271V65.7351C46.75 66.6728 46.5654 67.6012 46.2066 68.4675C45.8478 69.3337 45.3219 70.1208 44.6589 70.7838C43.9959 71.4468 43.2088 71.9727 42.3426 72.3315C41.4763 72.6903 40.5479 72.875 39.6103 72.875H12.6398ZM60.5 39.875H68.75V71.5H60.5V39.875ZM71.5 71.5V52.25H79.75V71.5H71.5Z" fill="#050029"/>
</svg>
