<svg width="88" height="88" viewBox="0 0 88 88" fill="none" xmlns="http://www.w3.org/2000/svg">
<g clip-path="url(#clip0)">
<path d="M80.3755 55.8822L63.1645 67.4005L58.0351 67.1125L57.8344 65.0936C57.5356 62.0885 55.222 59.6769 52.2316 59.2532L34.035 57.6587C32.2518 57.4063 28.5008 55.4236 25.5601 53.7365C22.7725 52.1379 19.6224 51.2765 16.4084 51.2496L7.15674 51.1731V73.7901L33.3442 83.7072C34.3338 83.9865 35.3731 84.0704 36.3889 83.9092C36.395 83.9086 36.401 83.9079 36.407 83.9066L62.7717 80.1065C64.8027 79.7822 66.7121 78.9262 68.306 77.6264L85.3465 62.3013C86.8752 60.9431 87.1592 58.6611 86.0084 56.9705C84.7496 55.1202 82.2326 54.6341 80.3755 55.8822Z" fill="#D0C8D0"/>
<path d="M86.0084 56.9706C85.8943 56.8027 85.7701 56.647 85.6365 56.502L68.306 69.2288C66.7121 70.5286 64.8034 71.3839 62.7717 71.7082L36.4071 75.5089C36.401 75.5096 36.395 75.5103 36.3889 75.5116C35.3731 75.6721 34.3338 75.5881 33.3442 75.3088L7.15674 65.3925V73.7902L33.3442 83.7072C34.3338 83.9865 35.3731 84.0704 36.3889 83.9093C36.3956 83.9086 36.401 83.908 36.4071 83.9066L62.7717 80.1066C64.8027 79.7823 66.7121 78.9263 68.306 77.6265L85.3465 62.3014C86.8752 60.9432 87.1585 58.6611 86.0084 56.9706Z" fill="#D0C8D0"/>
<path d="M13.9454 81.5964H3.06696C2.08405 81.5964 1.28711 80.7994 1.28711 79.8165V46.6024C1.28711 45.6194 2.08405 44.8225 3.06696 44.8225H13.9454C14.9283 44.8225 15.7253 45.6194 15.7253 46.6024V79.8165C15.7253 80.7994 14.9283 81.5964 13.9454 81.5964Z" fill="#D0C8D0"/>
<path d="M13.9454 44.8225H7.34229V81.5964H13.9454C14.9283 81.5964 15.7252 80.7994 15.7252 79.8165V46.6024C15.7252 45.6194 14.9283 44.8225 13.9454 44.8225Z" fill="#D0C8D0"/>
<path d="M66.0726 15.8556C61.7737 14.071 58.7706 10.0299 58.3597 5.32284C58.3033 4.67898 57.7561 4.18887 57.1103 4.1929L44.0384 4.26943L43.7732 4.27078L30.7013 4.34731C30.0473 4.35134 29.5136 4.85958 29.4632 5.51083C29.1007 10.2193 26.1425 14.2899 21.8645 16.1201C21.1394 16.4296 20.7043 17.1775 20.7862 17.9617C21.3864 23.6994 24.881 43.2381 43.9323 52.0259C44.0115 52.0628 44.0988 52.0816 44.1861 52.0809C44.2733 52.0802 44.36 52.0608 44.4392 52.0232C63.385 43.0132 66.6507 23.4362 67.1837 17.6905C67.2576 16.9002 66.8051 16.1597 66.0726 15.8556Z" fill="#D0C8D0"/>
<path d="M66.0725 15.8556C61.7736 14.071 58.7705 10.0299 58.3596 5.32284C58.3032 4.67898 57.756 4.18887 57.1102 4.1929L49.9142 4.23519C49.923 9.39682 53.0436 13.9293 57.6654 15.8515C58.3999 16.1577 58.8591 16.8976 58.786 17.6905C58.2918 23.0172 55.4465 40.2329 39.9341 49.8942C41.1849 50.6576 42.5142 51.3719 43.9322 52.0265C44.0121 52.0628 44.0987 52.0816 44.186 52.0809C44.2733 52.0809 44.3599 52.0608 44.4391 52.0232C63.385 43.0132 66.6513 23.4362 67.1843 17.6905C67.2575 16.9002 66.805 16.1597 66.0725 15.8556Z" fill="#D0C8D0"/>
<path d="M43.8184 46.5863C30.7821 39.5112 27.0015 26.3876 25.9179 19.9483C25.8716 19.6724 25.9938 19.3951 26.2314 19.2474C29.773 17.0513 32.3592 13.642 33.5267 9.66603C33.6127 9.37263 33.8826 9.17256 34.188 9.17055L53.6777 9.05641C53.9832 9.0544 54.2551 9.25179 54.3444 9.54384C55.5583 13.505 58.1841 16.8841 61.7518 19.0393C61.9915 19.1836 62.117 19.4595 62.0741 19.7362C61.0663 26.1882 57.4415 39.3554 44.4878 46.5822C44.281 46.6977 44.0265 46.699 43.8184 46.5863Z" fill="#D0C8D0"/>
<path d="M61.7523 19.0393C58.1852 16.8841 55.5588 13.505 54.3449 9.54384C54.2556 9.25179 53.9837 9.0544 53.6782 9.05641L45.8196 9.10207C46.9691 13.2539 49.6559 16.8056 53.3553 19.0399C53.5943 19.1836 53.7198 19.4589 53.6769 19.7348C52.7759 25.5014 49.7835 36.6343 39.9067 44.0947C41.1085 44.985 42.409 45.8215 43.8189 46.5863C44.027 46.699 44.2808 46.6977 44.4883 46.5822C57.4413 39.3554 61.0668 26.1882 62.0746 19.7355C62.1176 19.4595 61.992 19.1836 61.7523 19.0393Z" fill="#D0C8D0"/>
<path d="M11.5411 73.4255C11.5411 75.2328 10.0761 76.6971 8.26941 76.6971C6.46204 76.6971 4.99707 75.2328 4.99707 73.4255C4.99707 71.6188 6.46204 70.1538 8.26941 70.1538C10.0761 70.1538 11.5411 71.6188 11.5411 73.4255Z" fill="#D0C8D0"/>
<path d="M42.5148 33.5539C43.0882 34.0984 44.0416 33.9883 44.4773 33.331L53.0569 20.3826C53.4504 19.7891 53.2879 18.9888 52.6944 18.5954C52.1016 18.2026 51.3013 18.3651 50.9078 18.9579L43.1762 30.6266L38.88 26.5473C38.3637 26.0572 37.5479 26.0786 37.0571 26.5949C36.567 27.1112 36.5885 27.927 37.1048 28.4171C37.1041 28.4171 42.5101 33.5498 42.5148 33.5539Z" fill="#050029"/>
<path d="M43.3945 53.2155C43.6409 53.3283 43.9135 53.388 44.1847 53.388H44.1955C44.4714 53.3867 44.748 53.3236 44.9951 53.2054C64.5969 43.8832 67.9189 23.7698 68.4695 17.8273C68.5957 16.4705 67.8317 15.2069 66.5688 14.6832C62.6667 13.0632 60.014 9.44037 59.6461 5.22876C59.5327 3.93231 58.4249 2.92188 57.1197 2.92188H57.1042L30.6959 3.07697C29.3646 3.08435 28.2829 4.09613 28.1809 5.43018C27.8559 9.64313 25.2422 13.2921 21.3596 14.9531C20.1095 15.4876 19.3642 16.7578 19.5066 18.114C20.1269 24.0497 23.6846 44.1235 43.3945 53.2155ZM22.3734 17.3231C27.1342 15.2875 30.3414 10.8181 30.749 5.65442L57.0814 5.5C57.5494 10.6522 60.8022 15.0807 65.5805 17.064C65.794 17.1533 65.9236 17.3641 65.9028 17.5897C65.3858 23.1588 62.2927 41.9368 44.18 50.7367C25.9633 42.151 22.6527 23.4092 22.0699 17.8461C22.0464 17.6212 22.1686 17.4111 22.3734 17.3231Z" fill="#050029"/>
<path d="M25.5917 24.4694C25.7475 25.0427 26.4746 25.5678 27.1742 25.3751C27.8603 25.1857 28.2665 24.4801 28.0799 23.7933C27.7516 22.5834 27.4756 21.3568 27.2588 20.1416C30.7607 17.8596 33.3597 14.4536 34.6346 10.4756L53.2508 10.3662C54.5721 14.3281 57.2107 17.7045 60.7395 19.9449C60.5374 21.1635 60.2756 22.3941 59.9607 23.6087C59.7821 24.2982 60.1963 25.0018 60.8852 25.1804C61.5754 25.359 62.2783 24.9447 62.4569 24.2552C62.8262 22.8292 63.1269 21.3817 63.3498 19.9529C63.4747 19.1547 63.1095 18.3698 62.4206 17.9536C59.1335 15.9683 56.7038 12.8537 55.5792 9.1839C55.3261 8.35876 54.548 7.7854 53.6846 7.7854H53.6725L34.1821 7.89954C33.3133 7.90491 32.5359 8.48969 32.2922 9.32086C31.2112 13.0034 28.8177 16.1462 25.5541 18.1704C24.87 18.5941 24.5148 19.3829 24.6484 20.1805C24.8888 21.6059 25.2057 23.0487 25.5917 24.4694Z" fill="#050029"/>
<path d="M59.8518 28.2916C59.1939 28.019 58.4406 28.3332 58.1687 28.9912C55.1897 36.2113 50.4739 41.7005 44.1481 45.3133C37.7733 41.7704 32.989 36.3274 29.9261 29.1302C29.6468 28.4756 28.8895 28.1708 28.2349 28.4494C27.5796 28.728 27.2748 29.4853 27.5534 30.1399C30.8962 37.9938 36.1626 43.9148 43.2061 47.737C43.5029 47.8988 43.8278 47.9787 44.1521 47.9787C44.4844 47.9787 44.8161 47.8948 45.1182 47.7262C52.1087 43.8262 57.3012 37.8535 60.5521 29.9741C60.824 29.3162 60.5104 28.5629 59.8518 28.2916Z" fill="#050029"/>
<path d="M8.27069 68.8828C5.75635 68.8828 3.70996 70.9285 3.70996 73.4435C3.70996 75.9586 5.75635 78.0043 8.27069 78.0043C10.7857 78.0043 12.8321 75.9586 12.8321 73.4435C12.8321 70.9285 10.7864 68.8828 8.27069 68.8828ZM8.27069 75.4261C7.17767 75.4261 6.28809 74.5372 6.28809 73.4435C6.28809 72.3505 7.17767 71.4609 8.27069 71.4609C9.36438 71.4609 10.254 72.3505 10.254 73.4435C10.254 74.5372 9.36438 75.4261 8.27069 75.4261Z" fill="#050029"/>
<path d="M87.0755 56.2629C85.4232 53.8351 82.0965 53.192 79.66 54.8288L62.8082 66.1074L59.2109 65.9053L59.119 64.9842C58.7604 61.3768 56.003 58.5026 52.4138 57.9951C52.391 57.9917 52.3688 57.989 52.346 57.987L34.1877 56.3958C33.5734 56.2998 31.6069 55.7352 26.2036 52.636C23.3951 51.0254 20.2309 50.1163 17.0163 49.9928V46.6204C17.0163 44.9279 15.64 43.5515 13.9474 43.5515H3.06891C1.37701 43.5515 0 44.9285 0 46.6204V79.8346C0 81.5265 1.37701 82.9035 3.06891 82.9035H13.9474C15.6393 82.9035 17.0163 81.5265 17.0163 79.8346V78.9195L32.8892 84.9304C32.9241 84.9439 34.2132 85.4259 36.5832 85.2023C36.5899 85.2017 62.9573 81.4003 62.9573 81.4003C62.964 81.3996 62.97 81.3983 62.9767 81.3969C65.2299 81.0377 67.3549 80.085 69.1226 78.6436C69.1387 78.6301 69.1542 78.6167 69.1696 78.6033L86.2034 63.2829C88.2108 61.5004 88.5861 58.4825 87.0755 56.2629ZM84.4853 61.3607L67.4697 76.665C66.0611 77.807 64.3705 78.5623 62.5793 78.8497L36.2247 82.6491C36.2186 82.6497 36.2099 82.6511 36.2018 82.6524C36.1978 82.6531 36.1931 82.6538 36.1891 82.6544C35.4009 82.7786 34.5798 82.7263 33.7479 82.4987L17.0163 76.1628V61.4413C17.0163 60.7289 16.4389 60.1522 15.7272 60.1522C15.0149 60.1522 14.4382 60.7289 14.4382 61.4413V79.8346C14.4382 80.1052 14.218 80.3254 13.9474 80.3254H3.06891C2.79834 80.3254 2.57812 80.1052 2.57812 79.8346V46.6204C2.57812 46.3499 2.79834 46.1296 3.06891 46.1296H13.9474C14.218 46.1296 14.4382 46.3499 14.4382 46.6204V55.6184C14.4382 56.3307 15.0156 56.9074 15.7272 56.9074C16.4396 56.9074 17.0163 56.33 17.0163 55.6184V52.5736C19.7817 52.6958 22.5022 53.4854 24.9205 54.8731C31.4377 58.6107 33.2578 58.8685 33.856 58.9531C33.8788 58.9565 33.901 58.9585 33.9238 58.9612L52.0842 60.5524C54.4783 60.9062 56.3139 62.829 56.5536 65.2393L56.6221 65.9262L32.3091 67.4274C32.2924 67.426 32.2756 67.4247 32.2608 67.4233C31.4726 67.3522 30.7609 66.9796 30.2554 66.374C29.7995 65.8268 28.9864 65.7529 28.4399 66.2095C27.8928 66.6653 27.8189 67.4784 28.2754 68.0249C29.2214 69.1596 30.5562 69.8383 32.0312 69.9914C32.8274 70.0747 58.04 68.4217 58.04 68.4217L63.0942 68.7057C63.3735 68.7218 63.6508 68.6453 63.8831 68.4895L81.0961 56.9699C82.3603 56.1205 84.0865 56.4536 84.9438 57.7131C85.7273 58.8652 85.5326 60.4309 84.4853 61.3607Z" fill="#050029"/>
</g>
<defs>
<clipPath id="clip0">
<rect width="88" height="88" fill="white"/>
</clipPath>
</defs>
</svg>
