<svg width="88" height="88" viewBox="0 0 88 88" fill="none" xmlns="http://www.w3.org/2000/svg">
<path d="M77 31.2125V85.25H68.75V82.5V71.5V46.75V38.5H19.25V46.75V60.5H16.5H11V31.2125L41.4425 13.0763C42.2125 12.6225 43.1063 12.375 44 12.375C44.9075 12.375 45.7875 12.6225 46.5575 13.0763L77 31.2125Z" fill="#D0C8D0"/>
<path d="M35.75 22H52.25V33H35.75V22Z" fill="#D0C8D0"/>
<path d="M19.25 38.5H68.75V46.75H19.25V38.5Z" fill="#D0C8D0"/>
<path d="M19.25 46.75H68.75V85.25H19.25V46.75Z" fill="#D0C8D0"/>
<path d="M46.75 71.5V82.5C46.75 84.0125 45.5125 85.25 44 85.25H35.75H33C34.5125 85.25 35.75 84.0125 35.75 82.5V68.75H44C45.5125 68.75 46.75 69.9875 46.75 71.5Z" fill="#D0C8D0"/>
<path d="M66 68.75C67.5125 68.75 68.75 69.9875 68.75 71.5V82.5C68.75 84.0125 67.5125 85.25 66 85.25H49.5C47.9875 85.25 46.75 84.0125 46.75 82.5V71.5C46.75 69.9875 47.9875 68.75 49.5 68.75H66Z" fill="#D0C8D0"/>
<path d="M55 55V66C55 67.5125 53.7625 68.75 52.25 68.75H49.5H44H35.75V63.25C35.75 61.7375 34.5125 60.5 33 60.5V55C33 53.4875 34.2375 52.25 35.75 52.25H52.25C53.7625 52.25 55 53.4875 55 55Z" fill="#D0C8D0"/>
<path d="M33 60.5H8.25C6.7375 60.5 5.5 61.7375 5.5 63.25V82.5C5.5 84.0125 6.7375 85.25 8.25 85.25H33C34.5125 85.25 35.75 84.0125 35.75 82.5V68.75V63.25C35.75 61.7375 34.5125 60.5 33 60.5Z" fill="#D0C8D0"/>
<path d="M55 68.75H60.5V74.25H55V68.75Z" fill="#D0C8D0"/>
<path d="M41.25 52.25H46.75V57.75H41.25V52.25Z" fill="#D0C8D0"/>
<path d="M19.25 60.5H24.75V68.75H16.5V60.5H19.25Z" fill="#D0C8D0"/>
<path d="M27.5 33C29.0188 33 30.25 31.7688 30.25 30.25C30.25 28.7312 29.0188 27.5 27.5 27.5C25.9812 27.5 24.75 28.7312 24.75 30.25C24.75 31.7688 25.9812 33 27.5 33Z" fill="#D0C8D0"/>
<path d="M60.5 33C62.0188 33 63.25 31.7688 63.25 30.25C63.25 28.7312 62.0188 27.5 60.5 27.5C58.9812 27.5 57.75 28.7312 57.75 30.25C57.75 31.7688 58.9812 33 60.5 33Z" fill="#D0C8D0"/>
<path d="M83.2288 25.3275C85.1813 26.4825 85.8275 29.0263 84.6725 30.9788C83.93 32.23 82.5688 33 81.125 33C80.3825 33 79.6538 32.7938 79.0213 32.4225L77 31.2125L46.5575 13.0763C45.7875 12.6225 44.9075 12.375 44 12.375C43.1063 12.375 42.2125 12.6225 41.4425 13.0763L11 31.2125L8.97878 32.4225C8.34628 32.7938 7.61753 33 6.87503 33C5.43128 33 4.07003 32.23 3.32753 30.9788C2.17253 29.0263 2.81878 26.4825 4.77128 25.3275L41.4425 3.45125C42.2125 2.9975 43.1063 2.75 44 2.75C44.9075 2.75 45.7875 2.9975 46.5575 3.45125L83.2288 25.3275Z" fill="#D0C8D0"/>
<path d="M78.375 83.875V33.6325C79.211 34.1165 80.1598 34.375 81.125 34.375C83.0583 34.375 84.8733 33.341 85.8564 31.68C86.6044 30.4178 86.8161 28.9383 86.4531 27.5138C86.0901 26.0893 85.1923 24.8917 83.9341 24.1464L47.2615 2.2743C45.2898 1.09867 42.7103 1.09867 40.7399 2.2743L4.07139 24.1437C2.80914 24.8917 1.91264 26.0893 1.54827 27.5138C1.18252 28.9383 1.39564 30.4178 2.14364 31.6787C3.12952 33.3424 4.94314 34.375 6.87639 34.375C7.84027 34.375 8.78764 34.1165 9.62502 33.6339V59.125H8.25002C5.97577 59.125 4.12502 60.9758 4.12502 63.25V82.5C4.12502 82.984 4.22402 83.4433 4.37802 83.875H1.37502V86.625H8.25002H33H35.75H44H49.5H66H86.625V83.875H78.375ZM4.50864 30.2762C4.13464 29.6478 4.02877 28.908 4.21164 28.1944C4.39452 27.4808 4.84139 26.8827 5.47664 26.5059L42.1493 4.63517C43.2658 3.96692 44.7329 3.96692 45.8508 4.63517L82.5275 26.5087C83.1586 26.8813 83.6055 27.4808 83.7884 28.1944C83.9699 28.908 83.8654 29.6464 83.49 30.2775C82.7461 31.5302 80.9793 31.9853 79.7253 31.2414L47.2601 11.8965C46.2743 11.3108 45.1481 11 44.0014 11C42.8546 11 41.7271 11.3108 40.7413 11.8965L8.27889 31.24C7.01802 31.9908 5.25252 31.5329 4.50864 30.2762ZM12.375 32.0004L42.1479 14.2602C43.2658 13.5933 44.7315 13.5905 45.8521 14.2602L75.625 31.999V83.875H70.125V82.5V71.5V37.125H17.875V59.125H12.375V32.0004ZM44 67.375H37.125V63.25C37.125 61.4598 35.9714 59.9473 34.375 59.378V55C34.375 54.241 34.991 53.625 35.75 53.625H39.875V59.125H48.125V53.625H52.25C53.009 53.625 53.625 54.241 53.625 55V66C53.625 66.759 53.009 67.375 52.25 67.375H49.5H44ZM42.625 53.625H45.375V56.375H42.625V53.625ZM56.375 70.125H59.125V72.875H56.375V70.125ZM56.122 67.375C56.276 66.9433 56.375 66.484 56.375 66V55C56.375 52.7258 54.5243 50.875 52.25 50.875H35.75C33.4758 50.875 31.625 52.7258 31.625 55V59.125H20.625V48.125H67.375V67.628C66.9433 67.474 66.484 67.375 66 67.375H56.122ZM67.375 45.375H20.625V39.875H67.375V45.375ZM17.875 61.875H23.375V67.375H17.875V61.875ZM8.25002 83.875C7.49102 83.875 6.87502 83.259 6.87502 82.5V63.25C6.87502 62.491 7.49102 61.875 8.25002 61.875H15.125V70.125H26.125V61.875H33C33.759 61.875 34.375 62.491 34.375 63.25V82.5C34.375 83.259 33.759 83.875 33 83.875H8.25002ZM36.872 83.875C37.026 83.4433 37.125 82.984 37.125 82.5V70.125H44C44.759 70.125 45.375 70.7411 45.375 71.5V82.5C45.375 83.259 44.759 83.875 44 83.875H36.872ZM49.5 83.875C48.741 83.875 48.125 83.259 48.125 82.5V71.5C48.125 70.7411 48.741 70.125 49.5 70.125H52.25H53.625V75.625H61.875V70.125H66C66.759 70.125 67.375 70.7411 67.375 71.5V82.5C67.375 83.259 66.759 83.875 66 83.875H49.5Z" fill="#050029"/>
<path d="M53.625 20.625H34.375V34.375H53.625V20.625ZM50.875 26.125H45.375V23.375H50.875V26.125ZM42.625 23.375V26.125H37.125V23.375H42.625ZM37.125 28.875H42.625V31.625H37.125V28.875ZM45.375 31.625V28.875H50.875V31.625H45.375Z" fill="#050029"/>
<path d="M17.875 78.375H20.625V81.125H17.875V78.375Z" fill="#050029"/>
<path d="M28.875 78.375H31.625V81.125H28.875V78.375Z" fill="#050029"/>
<path d="M23.375 78.375H26.125V81.125H23.375V78.375Z" fill="#050029"/>
<path d="M27.5 34.375C29.7743 34.375 31.625 32.5243 31.625 30.25C31.625 27.9757 29.7743 26.125 27.5 26.125C25.2257 26.125 23.375 27.9757 23.375 30.25C23.375 32.5243 25.2257 34.375 27.5 34.375ZM27.5 28.875C28.259 28.875 28.875 29.491 28.875 30.25C28.875 31.009 28.259 31.625 27.5 31.625C26.741 31.625 26.125 31.009 26.125 30.25C26.125 29.491 26.741 28.875 27.5 28.875Z" fill="#050029"/>
<path d="M60.5 34.375C62.7743 34.375 64.625 32.5243 64.625 30.25C64.625 27.9757 62.7743 26.125 60.5 26.125C58.2257 26.125 56.375 27.9757 56.375 30.25C56.375 32.5243 58.2257 34.375 60.5 34.375ZM60.5 28.875C61.259 28.875 61.875 29.491 61.875 30.25C61.875 31.009 61.259 31.625 60.5 31.625C59.741 31.625 59.125 31.009 59.125 30.25C59.125 29.491 59.741 28.875 60.5 28.875Z" fill="#050029"/>
</svg>
