<svg width="88" height="88" viewBox="0 0 88 88" fill="none" xmlns="http://www.w3.org/2000/svg">
<path d="M13.2002 48.3999H39.6002V68.9332H13.2002V48.3999Z" fill="#D0C8D0"/>
<path d="M48.4004 48.3999H74.8004V68.9332H48.4004V48.3999Z" fill="#D0C8D0"/>
<path d="M8.80013 68.9333H79.2001C83.2501 68.9333 86.5335 72.2167 86.5335 76.2667C86.5335 80.3167 83.2501 83.6 79.2001 83.6H8.80013C4.75011 83.6 1.4668 80.3167 1.4668 76.2667C1.4668 72.2167 4.75011 68.9333 8.80013 68.9333Z" fill="#D0C8D0"/>
<path d="M8.80003 79.1999C10.4201 79.1999 11.7334 77.8866 11.7334 76.2666C11.7334 74.6466 10.4201 73.3333 8.80003 73.3333C7.18 73.3333 5.8667 74.6466 5.8667 76.2666C5.8667 77.8866 7.18 79.1999 8.80003 79.1999Z" fill="#D0C8D0"/>
<path d="M20.5334 79.1999C22.1535 79.1999 23.4668 77.8866 23.4668 76.2666C23.4668 74.6466 22.1535 73.3333 20.5334 73.3333C18.9134 73.3333 17.6001 74.6466 17.6001 76.2666C17.6001 77.8866 18.9134 79.1999 20.5334 79.1999Z" fill="#D0C8D0"/>
<path d="M32.2668 79.1999C33.8869 79.1999 35.2002 77.8866 35.2002 76.2666C35.2002 74.6466 33.8869 73.3333 32.2668 73.3333C30.6468 73.3333 29.3335 74.6466 29.3335 76.2666C29.3335 77.8866 30.6468 79.1999 32.2668 79.1999Z" fill="#D0C8D0"/>
<path d="M44.0002 79.1999C45.6203 79.1999 46.9336 77.8866 46.9336 76.2666C46.9336 74.6466 45.6203 73.3333 44.0002 73.3333C42.3802 73.3333 41.0669 74.6466 41.0669 76.2666C41.0669 77.8866 42.3802 79.1999 44.0002 79.1999Z" fill="#D0C8D0"/>
<path d="M55.7331 79.1999C57.3532 79.1999 58.6665 77.8866 58.6665 76.2666C58.6665 74.6466 57.3532 73.3333 55.7331 73.3333C54.1131 73.3333 52.7998 74.6466 52.7998 76.2666C52.7998 77.8866 54.1131 79.1999 55.7331 79.1999Z" fill="#D0C8D0"/>
<path d="M67.4665 79.1999C69.0866 79.1999 70.3999 77.8866 70.3999 76.2666C70.3999 74.6466 69.0866 73.3333 67.4665 73.3333C65.8465 73.3333 64.5332 74.6466 64.5332 76.2666C64.5332 77.8866 65.8465 79.1999 67.4665 79.1999Z" fill="#D0C8D0"/>
<path d="M79.1999 79.1999C80.82 79.1999 82.1333 77.8866 82.1333 76.2666C82.1333 74.6466 80.82 73.3333 79.1999 73.3333C77.5799 73.3333 76.2666 74.6466 76.2666 76.2666C76.2666 77.8866 77.5799 79.1999 79.1999 79.1999Z" fill="#D0C8D0"/>
<path d="M22 48.3999H30.8V57.1999H22V48.3999Z" fill="#D0C8D0"/>
<path d="M57.2002 48.3999H66.0002V57.1999H57.2002V48.3999Z" fill="#D0C8D0"/>
<path d="M35.1998 64.5332H32.2665C31.4565 64.5332 30.7998 63.8765 30.7998 63.0665C30.7998 62.2566 31.4565 61.5999 32.2665 61.5999H35.1998C36.0098 61.5999 36.6665 62.2566 36.6665 63.0665C36.6665 63.8765 36.0098 64.5332 35.1998 64.5332Z" fill="#D0C8D0"/>
<path d="M70.4 64.5332H67.4667C66.6567 64.5332 66 63.8765 66 63.0665C66 62.2566 66.6567 61.5999 67.4667 61.5999H70.4C71.21 61.5999 71.8667 62.2566 71.8667 63.0665C71.8667 63.8765 71.21 64.5332 70.4 64.5332Z" fill="#D0C8D0"/>
<path d="M61.6001 13.2H70.4001V48.4H61.6001V13.2Z" fill="#D0C8D0"/>
<path d="M23.4668 4.3999H70.4001V13.1999H23.4668V4.3999Z" fill="#D0C8D0"/>
<path d="M20.5336 41.0666C19.7236 41.0666 19.0669 40.4099 19.0669 39.5999V33.7332C19.0667 33.2877 19.2691 32.8662 19.6169 32.5877L26.9502 26.7211C27.5829 26.2149 28.5062 26.3172 29.0124 26.9499C29.5185 27.5826 29.4162 28.5058 28.7836 29.012L22.0002 34.4372V39.5999C22.0002 40.4099 21.3435 41.0666 20.5336 41.0666Z" fill="#D0C8D0"/>
<path d="M44.0002 41.0666C43.1902 41.0666 42.5335 40.4099 42.5335 39.5999V34.4372L35.7502 29.0106C35.1175 28.5044 35.0152 27.5811 35.5214 26.9484C36.0276 26.3157 36.9508 26.2134 37.5835 26.7196L44.9168 32.5863C45.265 32.8651 45.4674 33.2872 45.4668 33.7332V39.5999C45.4668 40.4099 44.8101 41.0666 44.0002 41.0666Z" fill="#D0C8D0"/>
<path d="M32.267 24.9332C31.457 24.9332 30.8003 24.2765 30.8003 23.4665V13.1998C30.8003 12.3899 31.457 11.7332 32.267 11.7332C33.0769 11.7332 33.7336 12.3899 33.7336 13.1998V23.4665C33.7336 24.2765 33.0769 24.9332 32.267 24.9332Z" fill="#D0C8D0"/>
<path d="M29.3335 4.3999H35.2002V13.1999H29.3335V4.3999Z" fill="#D0C8D0"/>
<path d="M32.2666 33.7333C29.0265 33.7333 26.3999 31.1067 26.3999 27.8667C26.3999 24.6266 29.0265 22 32.2666 22C35.5066 22 38.1332 24.6266 38.1332 27.8667C38.1332 31.1067 35.5066 33.7333 32.2666 33.7333ZM32.2666 24.9333C30.6465 24.9333 29.3332 26.2466 29.3332 27.8667C29.3332 29.4868 30.6465 30.8 32.2666 30.8C33.8867 30.8 35.1999 29.4868 35.1999 27.8667C35.1999 26.2466 33.8867 24.9333 32.2666 24.9333Z" fill="#D0C8D0"/>
<path d="M79.2 67.4667H76.2667V48.4C76.2667 47.59 75.61 46.9333 74.8 46.9333H71.8667V4.40002C71.8667 3.59005 71.21 2.93335 70.4 2.93335H23.4667C22.6567 2.93335 22 3.59005 22 4.40002V13.2C22 14.01 22.6567 14.6667 23.4667 14.6667H30.8V22.2083C28.4986 22.8081 26.7898 24.7419 26.4777 27.0996L19.6167 32.5879C19.2689 32.8664 19.0665 33.2878 19.0667 33.7333V39.6C19.0667 40.41 19.7234 41.0667 20.5333 41.0667C21.3433 41.0667 22 40.41 22 39.6V34.4373L27.0131 30.4275C28.4053 33.3289 31.8861 34.5525 34.7875 33.1602C35.9828 32.5868 36.9468 31.6228 37.5203 30.4275L42.5333 34.4373V39.6C42.5333 40.41 43.19 41.0667 44 41.0667C44.81 41.0667 45.4667 40.41 45.4667 39.6V33.7333C45.4669 33.2878 45.2645 32.8664 44.9167 32.5879L38.0556 27.0996C37.7436 24.7419 36.0347 22.8081 33.7333 22.2083V14.6667H60.1333V46.9333H48.4C47.59 46.9333 46.9333 47.59 46.9333 48.4V67.4667H41.0667V48.4C41.0667 47.59 40.41 46.9333 39.6 46.9333H13.2C12.39 46.9333 11.7333 47.59 11.7333 48.4V67.4667H8.8C3.93983 67.4667 0 71.4065 0 76.2667C0 81.1268 3.93983 85.0667 8.8 85.0667H79.2C84.0602 85.0667 88 81.1268 88 76.2667C88 71.4065 84.0602 67.4667 79.2 67.4667ZM35.2 27.8667C35.2 29.4868 33.8868 30.8 32.2667 30.8C30.6466 30.8 29.3333 29.4868 29.3333 27.8667C29.3333 26.2466 30.6466 24.9333 32.2667 24.9333C33.8868 24.9333 35.2 26.2466 35.2 27.8667ZM68.9333 11.7333H36.6667V5.86668H68.9333V11.7333ZM24.9333 5.86668H27.8667V11.7333H24.9333V5.86668ZM30.8 11.7333V5.86668H33.7333V11.7333H30.8ZM63.0667 14.6667H68.9333V46.9333H63.0667V14.6667ZM64.5333 49.8667V55.7333H58.6667V49.8667H64.5333ZM49.8667 49.8667H55.7333V57.2C55.7333 58.01 56.39 58.6667 57.2 58.6667H66C66.81 58.6667 67.4667 58.01 67.4667 57.2V49.8667H73.3333V67.4667H49.8667V49.8667ZM29.3333 49.8667V55.7333H23.4667V49.8667H29.3333ZM14.6667 49.8667H20.5333V57.2C20.5333 58.01 21.19 58.6667 22 58.6667H30.8C31.61 58.6667 32.2667 58.01 32.2667 57.2V49.8667H38.1333V67.4667H14.6667V49.8667ZM79.2 82.1333H8.8C5.55995 82.1333 2.93333 79.5067 2.93333 76.2667C2.93333 73.0266 5.55995 70.4 8.8 70.4H79.2C82.44 70.4 85.0667 73.0266 85.0667 76.2667C85.0667 79.5067 82.44 82.1333 79.2 82.1333Z" fill="#050029"/>
<path d="M8.7999 71.8667C6.36982 71.8667 4.3999 73.8366 4.3999 76.2667C4.3999 78.6968 6.36982 80.6667 8.7999 80.6667C11.23 80.6667 13.1999 78.6968 13.1999 76.2667C13.1999 73.8366 11.23 71.8667 8.7999 71.8667ZM8.7999 77.7334C7.98994 77.7334 7.33324 77.0767 7.33324 76.2667C7.33324 75.4567 7.98994 74.8 8.7999 74.8C9.60987 74.8 10.2666 75.4567 10.2666 76.2667C10.2666 77.0767 9.60987 77.7334 8.7999 77.7334Z" fill="#050029"/>
<path d="M20.5333 71.8667C18.1032 71.8667 16.1333 73.8366 16.1333 76.2667C16.1333 78.6968 18.1032 80.6667 20.5333 80.6667C22.9634 80.6667 24.9333 78.6968 24.9333 76.2667C24.9333 73.8366 22.9634 71.8667 20.5333 71.8667ZM20.5333 77.7334C19.7233 77.7334 19.0666 77.0767 19.0666 76.2667C19.0666 75.4567 19.7233 74.8 20.5333 74.8C21.3433 74.8 22 75.4567 22 76.2667C22 77.0767 21.3433 77.7334 20.5333 77.7334Z" fill="#050029"/>
<path d="M32.2667 71.8667C29.8366 71.8667 27.8667 73.8366 27.8667 76.2667C27.8667 78.6968 29.8366 80.6667 32.2667 80.6667C34.6968 80.6667 36.6667 78.6968 36.6667 76.2667C36.6667 73.8366 34.6968 71.8667 32.2667 71.8667ZM32.2667 77.7334C31.4567 77.7334 30.8 77.0767 30.8 76.2667C30.8 75.4567 31.4567 74.8 32.2667 74.8C33.0767 74.8 33.7334 75.4567 33.7334 76.2667C33.7334 77.0767 33.0767 77.7334 32.2667 77.7334Z" fill="#050029"/>
<path d="M44.0001 71.8667C41.57 71.8667 39.6001 73.8366 39.6001 76.2667C39.6001 78.6968 41.57 80.6667 44.0001 80.6667C46.4302 80.6667 48.4001 78.6968 48.4001 76.2667C48.4001 73.8366 46.4302 71.8667 44.0001 71.8667ZM44.0001 77.7334C43.1901 77.7334 42.5334 77.0767 42.5334 76.2667C42.5334 75.4567 43.1901 74.8 44.0001 74.8C44.8101 74.8 45.4668 75.4567 45.4668 76.2667C45.4668 77.0767 44.8101 77.7334 44.0001 77.7334Z" fill="#050029"/>
<path d="M55.7335 71.8667C53.3034 71.8667 51.3335 73.8366 51.3335 76.2667C51.3335 78.6968 53.3034 80.6667 55.7335 80.6667C58.1636 80.6667 60.1335 78.6968 60.1335 76.2667C60.1335 73.8366 58.1636 71.8667 55.7335 71.8667ZM55.7335 77.7334C54.9235 77.7334 54.2668 77.0767 54.2668 76.2667C54.2668 75.4567 54.9235 74.8 55.7335 74.8C56.5435 74.8 57.2002 75.4567 57.2002 76.2667C57.2002 77.0767 56.5435 77.7334 55.7335 77.7334Z" fill="#050029"/>
<path d="M67.4669 71.8667C65.0368 71.8667 63.0669 73.8366 63.0669 76.2667C63.0669 78.6968 65.0368 80.6667 67.4669 80.6667C69.897 80.6667 71.8669 78.6968 71.8669 76.2667C71.8669 73.8366 69.897 71.8667 67.4669 71.8667ZM67.4669 77.7334C66.6569 77.7334 66.0002 77.0767 66.0002 76.2667C66.0002 75.4567 66.6569 74.8 67.4669 74.8C68.2769 74.8 68.9336 75.4567 68.9336 76.2667C68.9336 77.0767 68.2769 77.7334 67.4669 77.7334Z" fill="#050029"/>
<path d="M79.1998 71.8667C76.7697 71.8667 74.7998 73.8366 74.7998 76.2667C74.7998 78.6968 76.7697 80.6667 79.1998 80.6667C81.6299 80.6667 83.5998 78.6968 83.5998 76.2667C83.5998 73.8366 81.6299 71.8667 79.1998 71.8667ZM79.1998 77.7334C78.3898 77.7334 77.7331 77.0767 77.7331 76.2667C77.7331 75.4567 78.3898 74.8 79.1998 74.8C80.0098 74.8 80.6665 75.4567 80.6665 76.2667C80.6665 77.0767 80.0098 77.7334 79.1998 77.7334Z" fill="#050029"/>
<path d="M35.1998 61.6001H32.2665C31.4565 61.6001 30.7998 62.2568 30.7998 63.0668C30.7998 63.8767 31.4565 64.5334 32.2665 64.5334H35.1998C36.0098 64.5334 36.6665 63.8767 36.6665 63.0668C36.6665 62.2568 36.0098 61.6001 35.1998 61.6001Z" fill="#050029"/>
<path d="M70.4 61.6001H67.4667C66.6567 61.6001 66 62.2568 66 63.0668C66 63.8767 66.6567 64.5334 67.4667 64.5334H70.4C71.21 64.5334 71.8667 63.8767 71.8667 63.0668C71.8667 62.2568 71.21 61.6001 70.4 61.6001Z" fill="#050029"/>
</svg>
