<svg width="88" height="88" viewBox="0 0 88 88" fill="none" xmlns="http://www.w3.org/2000/svg">
<g clip-path="url(#clip0)">
<path d="M44.0138 1.71875C26.9205 1.71875 13.0631 15.5702 13.0631 32.6562C13.0631 51.5625 44.0137 86.2812 44.0137 86.2812C44.0137 86.2812 74.9642 51.5625 74.9642 32.6562C74.9644 15.5702 61.1072 1.71875 44.0138 1.71875ZM44.0138 55C31.6681 55 21.6606 44.9969 21.6606 32.6562C21.6606 20.3156 31.6679 10.3125 44.0138 10.3125C56.3598 10.3125 66.367 20.3156 66.367 32.6562C66.367 44.9969 56.3596 55 44.0138 55Z" fill="#D0C8D0"/>
<path d="M73.7162 19.0369C72.8616 17.1806 71.8266 15.3931 70.6367 13.7242C69.4571 12.0708 68.116 10.517 66.6492 9.10766C65.1807 7.69656 63.5731 6.41781 61.8707 5.30578C60.1513 4.18172 58.3199 3.2175 56.4252 2.43891C52.4856 0.821562 48.3091 0 44.0139 0C39.6034 0 35.3253 0.864531 31.2967 2.56609C29.3623 3.38422 27.4948 4.39828 25.7479 5.57734C24.0182 6.74609 22.3915 8.08672 20.9127 9.56484C19.4339 11.043 18.0928 12.6689 16.9235 14.398C15.7439 16.1442 14.7312 18.0091 13.911 19.9444C12.2086 23.9714 11.3438 28.2477 11.3438 32.6562C11.3506 35.1089 11.8235 37.8795 12.7485 40.8925C13.5773 43.5944 14.7568 46.4973 16.356 49.7681C18.3798 53.8897 21.0243 58.4323 24.2174 63.2672C26.7554 67.1103 29.6613 71.1734 32.8561 75.3448C35.832 79.228 38.4613 82.4271 40.2633 84.5625H29.9142C28.9646 84.5625 28.1947 85.332 28.1947 86.2812C28.1947 87.2305 28.9646 88 29.9142 88H58.1137C59.0633 88 59.8331 87.2305 59.8331 86.2812C59.8331 85.332 59.0633 84.5625 58.1137 84.5625H47.7618C49.7427 82.2145 52.7301 78.5761 56.0366 74.2088C59.4669 69.6747 62.5345 65.2987 65.1534 61.2012C68.4547 56.0364 71.0906 51.2411 72.989 46.9477C73.3707 46.0814 72.9769 45.0639 72.1103 44.6823C71.8884 44.5844 71.6564 44.5345 71.4156 44.5345C70.7346 44.5345 70.1174 44.9367 69.8423 45.5606C65.7138 54.9227 58.5642 65.1784 53.2957 72.1342C50.2985 76.0925 47.5819 79.42 45.8332 81.5134C45.2107 82.2594 44.5986 82.9813 44.0139 83.6619C41.4382 80.6627 34.7889 72.71 28.5111 63.4941C24.436 57.5145 21.2102 52.0231 18.9215 47.1711C16.203 41.4305 14.7708 36.41 14.7828 32.6562C14.7828 24.8531 17.8245 17.5158 23.3441 11.9952C28.8669 6.47797 36.2074 3.4375 44.0139 3.4375H44.0191C59.73 3.4375 72.5574 15.7197 73.2193 31.3998C73.2571 32.3245 74.012 33.0464 74.9354 33.0464C74.9595 33.0464 74.9853 33.0464 75.0093 33.0447C75.9569 33.0052 76.6944 32.2025 76.6549 31.2555C76.4741 26.9981 75.4854 22.8869 73.7162 19.0369Z" fill="#050029"/>
<path d="M54.2907 23.5178C53.5148 22.9704 52.442 23.1555 51.8942 23.9308L42.813 36.7903L35.657 28.9221C35.0182 28.2196 33.9307 28.1679 33.2281 28.8064C32.5253 29.4449 32.4735 30.532 33.1124 31.2343L41.7098 40.6874C42.0367 41.0468 42.5523 41.2484 43.0349 41.2484C43.5553 41.2163 44.0861 40.9483 44.3869 40.5226L54.7037 25.9132C55.2514 25.1377 55.0665 24.0652 54.2907 23.5178Z" fill="#050029"/>
<path d="M74.0384 40.6968C74.988 40.6968 75.7578 39.9273 75.7578 38.978C75.7578 38.0288 74.988 37.2593 74.0384 37.2593C73.0888 37.2593 72.319 38.0288 72.319 38.978C72.319 39.9273 73.0888 40.6968 74.0384 40.6968Z" fill="#050029"/>
<path d="M44.0139 8.59375C30.7189 8.59375 19.9413 19.3669 19.9413 32.6562C19.9413 45.9456 30.719 56.7188 44.0139 56.7188C57.3088 56.7188 68.0866 45.9456 68.0866 32.6562C68.0866 19.3669 57.3088 8.59375 44.0139 8.59375ZM44.0139 53.2812C32.6183 53.2812 23.3802 44.0471 23.3802 32.6562C23.3802 21.2654 32.6181 12.0312 44.0139 12.0312C55.4098 12.0312 64.6477 21.2654 64.6477 32.6562C64.6477 44.0471 55.4096 53.2812 44.0139 53.2812Z" fill="#050029"/>
</g>
<defs>
<clipPath id="clip0">
<rect width="88" height="88" fill="white"/>
</clipPath>
</defs>
</svg>
